<svg width="40" height="40" viewBox="0 0 40 40" fill="none" xmlns="http://www.w3.org/2000/svg">
<rect width="40" height="40" rx="20" fill="white"/>
<path d="M16.2507 11.0788H19.2005V8H16.2507V11.0788ZM22.1504 11.0788V8H25.1003V11.0788H22.1504ZM16.2507 23.3941V20.3152H19.2005V23.3941H16.2507ZM28.0501 17.2364V14.1576H31V17.2364H28.0501ZM28.0501 23.3941V20.3152H31V23.3941H28.0501ZM22.1504 23.3941V20.3152H25.1003V23.3941H22.1504ZM28.0501 11.0788V8H31V11.0788H28.0501ZM19.2005 14.1576V11.0788H22.1504V14.1576H19.2005ZM12.1499 33C11.8238 33 11.5506 32.8849 11.3304 32.6548C11.1101 32.4246 11 32.1395 11 31.7993V9.2007C11 8.86049 11.1103 8.57531 11.3309 8.34517C11.5515 8.11506 11.8249 8 12.1509 8C12.477 8 12.7502 8.11506 12.9705 8.34517C13.1907 8.57531 13.3009 8.86049 13.3009 9.2007V11.0788H16.2507V14.1576H13.3009V17.2364H16.2507V20.3152H13.3009V31.7993C13.3009 32.1395 13.1906 32.4246 12.9699 32.6548C12.7493 32.8849 12.476 33 12.1499 33ZM25.1003 20.3152V17.2364H28.0501V20.3152H25.1003ZM19.2005 20.3152V17.2364H22.1504V20.3152H19.2005ZM16.2507 17.2364V14.1576H19.2005V17.2364H16.2507ZM22.1504 17.2364V14.1576H25.1003V17.2364H22.1504ZM25.1003 14.1576V11.0788H28.0501V14.1576H25.1003Z" fill="black"/>
</svg>
