<svg width="32" height="32" viewBox="0 0 32 32" fill="none" xmlns="http://www.w3.org/2000/svg">
<rect width="32" height="32" rx="16" fill="white"/>
<path d="M9.30775 24.5C8.80258 24.5 8.375 24.325 8.025 23.975C7.675 23.625 7.5 23.1974 7.5 22.6923V17.75C7.5 17.5372 7.57183 17.359 7.7155 17.2155C7.859 17.0718 8.03717 17 8.25 17C8.46283 17 8.641 17.0718 8.7845 17.2155C8.92817 17.359 9 17.5372 9 17.75V22.6923C9 22.7693 9.03208 22.8398 9.09625 22.9038C9.16025 22.9679 9.23075 23 9.30775 23H14.25C14.4628 23 14.641 23.0718 14.7845 23.2155C14.9282 23.359 15 23.5372 15 23.75C15 23.9628 14.9282 24.141 14.7845 24.2845C14.641 24.4282 14.4628 24.5 14.25 24.5H9.30775ZM22.6923 24.5H17.75C17.5372 24.5 17.359 24.4282 17.2155 24.2845C17.0718 24.141 17 23.9628 17 23.75C17 23.5372 17.0718 23.359 17.2155 23.2155C17.359 23.0718 17.5372 23 17.75 23H22.6923C22.7693 23 22.8398 22.9679 22.9038 22.9038C22.9679 22.8398 23 22.7693 23 22.6923V17.75C23 17.5372 23.0718 17.359 23.2155 17.2155C23.359 17.0718 23.5372 17 23.75 17C23.9628 17 24.141 17.0718 24.2845 17.2155C24.4282 17.359 24.5 17.5372 24.5 17.75V22.6923C24.5 23.1974 24.325 23.625 23.975 23.975C23.625 24.325 23.1974 24.5 22.6923 24.5ZM15.2308 20.0192L17.677 16.8328C17.7705 16.7123 17.891 16.652 18.0385 16.652C18.1858 16.652 18.3063 16.7123 18.4 16.8328L20.7845 20.027C20.8987 20.1808 20.9122 20.3398 20.825 20.5038C20.7378 20.6679 20.6038 20.75 20.423 20.75H11.654C11.4732 20.75 11.3392 20.6679 11.252 20.5038C11.1648 20.3398 11.1815 20.1808 11.302 20.027L12.8787 17.929C12.9724 17.8083 13.0913 17.748 13.2355 17.748C13.3798 17.748 13.4988 17.8051 13.5923 17.9192L15.2308 20.0192ZM7.5 9.30775C7.5 8.80258 7.675 8.375 8.025 8.025C8.375 7.675 8.80258 7.5 9.30775 7.5H14.25C14.4628 7.5 14.641 7.57183 14.7845 7.7155C14.9282 7.859 15 8.03717 15 8.25C15 8.46283 14.9282 8.641 14.7845 8.7845C14.641 8.92817 14.4628 9 14.25 9H9.30775C9.23075 9 9.16025 9.03208 9.09625 9.09625C9.03208 9.16025 9 9.23075 9 9.30775V14.25C9 14.4628 8.92817 14.641 8.7845 14.7845C8.641 14.9282 8.46283 15 8.25 15C8.03717 15 7.859 14.9282 7.7155 14.7845C7.57183 14.641 7.5 14.4628 7.5 14.25V9.30775ZM24.5 9.30775V14.25C24.5 14.4628 24.4282 14.641 24.2845 14.7845C24.141 14.9282 23.9628 15 23.75 15C23.5372 15 23.359 14.9282 23.2155 14.7845C23.0718 14.641 23 14.4628 23 14.25V9.30775C23 9.23075 22.9679 9.16025 22.9038 9.09625C22.8398 9.03208 22.7693 9 22.6923 9H17.75C17.5372 9 17.359 8.92817 17.2155 8.7845C17.0718 8.641 17 8.46283 17 8.25C17 8.03717 17.0718 7.859 17.2155 7.7155C17.359 7.57183 17.5372 7.5 17.75 7.5H22.6923C23.1974 7.5 23.625 7.675 23.975 8.025C24.325 8.375 24.5 8.80258 24.5 9.30775ZM19.4038 13.9038C19.0283 13.9038 18.7164 13.7798 18.4682 13.5318C18.2202 13.2836 18.0962 12.9717 18.0962 12.5962C18.0962 12.2206 18.2202 11.9087 18.4682 11.6605C18.7164 11.4125 19.0283 11.2885 19.4038 11.2885C19.7794 11.2885 20.0913 11.4125 20.3395 11.6605C20.5875 11.9087 20.7115 12.2206 20.7115 12.5962C20.7115 12.9717 20.5875 13.2836 20.3395 13.5318C20.0913 13.7798 19.7794 13.9038 19.4038 13.9038Z" fill="#6200EE"/>
</svg>
