<svg width="40" height="40" viewBox="0 0 40 40" fill="none" xmlns="http://www.w3.org/2000/svg">
<rect width="40" height="40" rx="20" fill="white"/>
<path d="M19.2862 23.0885L10.8347 22.0942C10.4411 22.0528 10.1822 21.8404 10.0579 21.4572C9.9336 21.074 10.0165 20.7477 10.3065 20.4785L23.978 7.92551C24.0608 7.86337 24.1489 7.81158 24.2421 7.77015C24.3353 7.72872 24.4751 7.70801 24.6616 7.70801C24.9723 7.70801 25.2105 7.83747 25.3762 8.0964C25.5419 8.35533 25.5419 8.61944 25.3762 8.88873L20.7155 17.247L29.167 18.2413C29.5605 18.2827 29.8195 18.4951 29.9437 18.8783C30.068 19.2615 29.9852 19.5877 29.6952 19.857L16.0236 32.41C15.9408 32.4721 15.8527 32.5239 15.7595 32.5653C15.6663 32.6068 15.5265 32.6275 15.3401 32.6275C15.0293 32.6275 14.7911 32.498 14.6254 32.2391C14.4597 31.9802 14.4597 31.716 14.6254 31.4468L19.2862 23.0885Z" fill="#F8B31E"/>
</svg>
