<svg width="14" height="14" viewBox="0 0 14 14" fill="none" xmlns="http://www.w3.org/2000/svg">
<path d="M6.99965 13.75C6.78705 13.75 6.60896 13.6781 6.46537 13.5344C6.32179 13.3906 6.25 13.2125 6.25 13V7.74995H0.999975C0.787475 7.74995 0.609358 7.67805 0.465625 7.53425C0.321875 7.39043 0.25 7.21223 0.25 6.99965C0.25 6.78705 0.321875 6.60896 0.465625 6.46538C0.609358 6.32179 0.787475 6.25 0.999975 6.25H6.25V0.999975C6.25 0.787475 6.3219 0.60935 6.4657 0.4656C6.60952 0.321866 6.78772 0.25 7.0003 0.25C7.2129 0.25 7.39099 0.321866 7.53457 0.4656C7.67816 0.60935 7.74995 0.787475 7.74995 0.999975V6.25H13C13.2125 6.25 13.3906 6.3219 13.5344 6.4657C13.6781 6.60952 13.75 6.78772 13.75 7.0003C13.75 7.2129 13.6781 7.39099 13.5344 7.53457C13.3906 7.67816 13.2125 7.74995 13 7.74995H7.74995V13C7.74995 13.2125 7.67805 13.3906 7.53425 13.5344C7.39043 13.6781 7.21223 13.75 6.99965 13.75Z" fill="#90A4AE"/>
</svg>
