<svg width="21" height="20" viewBox="0 0 21 20" fill="none" xmlns="http://www.w3.org/2000/svg">
<path fill-rule="evenodd" clip-rule="evenodd" d="M7.37489 11.2508L8.25614 12.1321L9.87489 10.5196V18.1258H11.1249V10.5196L12.7436 12.1321L13.6249 11.2508L10.4999 8.12583L7.37489 11.2508ZM15.1874 13.7508H14.8749V12.5008H15.1874C16.7407 12.563 18.0503 11.3541 18.1124 9.80083C18.1745 8.24753 16.9657 6.93796 15.4124 6.87583H14.8749L14.8124 6.36333C14.5256 4.18684 12.6702 2.55992 10.4749 2.55992C8.27958 2.55992 6.4242 4.18684 6.13739 6.36333L6.12489 6.87583H5.58739C4.03408 6.93796 2.82525 8.24753 2.88739 9.80083C2.94952 11.3541 4.25908 12.563 5.81239 12.5008H6.12489V13.7508H5.81239C3.73683 13.7377 2.00497 12.1621 1.79622 10.097C1.58746 8.03193 2.96895 6.1416 4.99989 5.71333C5.55589 3.12012 7.84773 1.26758 10.4999 1.26758C13.152 1.26758 15.4439 3.12012 15.9999 5.71333C18.0308 6.1416 19.4123 8.03193 19.2036 10.097C18.9948 12.1621 17.2629 13.7377 15.1874 13.7508V13.7508Z" fill="#FEFEFF"/>
</svg>
