<svg width="28" height="30" viewBox="0 0 28 30" fill="none" xmlns="http://www.w3.org/2000/svg">
<path d="M14.0001 29.3333C12.1556 29.3333 10.4223 28.9833 8.80008 28.2833C7.17786 27.5833 5.76675 26.6333 4.56675 25.4333C3.36675 24.2333 2.41675 22.8222 1.71675 21.2C1.01675 19.5778 0.666748 17.8445 0.666748 16C0.666748 13.4 1.35564 11.0167 2.73341 8.85001C4.11119 6.68334 5.97786 5.04446 8.33341 3.93334C8.35564 4.2889 8.38897 4.62779 8.43341 4.95001C8.47786 5.27223 8.54453 5.62223 8.63341 6.00001C6.78897 7.00001 5.33341 8.39445 4.26675 10.1833C3.20008 11.9722 2.66675 13.9111 2.66675 16C2.66675 19.1556 3.76675 21.8333 5.96675 24.0333C8.16675 26.2333 10.8445 27.3333 14.0001 27.3333C17.1556 27.3333 19.8334 26.2333 22.0334 24.0333C24.2334 21.8333 25.3334 19.1556 25.3334 16C25.3334 13.8889 24.8001 11.9445 23.7334 10.1667C22.6667 8.3889 21.2001 7.00001 19.3334 6.00001C19.4223 5.60001 19.4945 5.2389 19.5501 4.91668C19.6056 4.59445 19.6445 4.26668 19.6667 3.93334C22.0223 5.04446 23.889 6.68334 25.2667 8.85001C26.6445 11.0167 27.3334 13.4 27.3334 16C27.3334 17.8445 26.9834 19.5778 26.2834 21.2C25.5834 22.8222 24.6334 24.2333 23.4334 25.4333C22.2334 26.6333 20.8223 27.5833 19.2001 28.2833C17.5779 28.9833 15.8445 29.3333 14.0001 29.3333ZM14.0001 24C11.7779 24 9.88897 23.2222 8.33341 21.6667C6.77786 20.1111 6.00008 18.2222 6.00008 16C6.00008 14.6445 6.31119 13.3833 6.93341 12.2167C7.55564 11.05 8.43341 10.0889 9.56675 9.33334C9.65564 9.57779 9.75008 9.86112 9.85008 10.1833C9.95008 10.5056 10.0779 10.8889 10.2334 11.3333C9.5223 11.9111 8.9723 12.6 8.58341 13.4C8.19453 14.2 8.00008 15.0667 8.00008 16C8.00008 17.6667 8.58341 19.0833 9.75008 20.25C10.9167 21.4167 12.3334 22 14.0001 22C15.6667 22 17.0834 21.4167 18.2501 20.25C19.4167 19.0833 20.0001 17.6667 20.0001 16C20.0001 15.0667 19.8056 14.2 19.4167 13.4C19.0279 12.6 18.4779 11.9111 17.7667 11.3333C17.9001 10.9111 18.0167 10.5389 18.1167 10.2167C18.2167 9.89445 18.3112 9.60001 18.4001 9.33334C19.5334 10.0889 20.4167 11.05 21.0501 12.2167C21.6834 13.3833 22.0001 14.6445 22.0001 16C22.0001 18.2222 21.2223 20.1111 19.6667 21.6667C18.1112 23.2222 16.2223 24 14.0001 24ZM14.0001 0.333344C14.8445 0.333344 15.5556 0.622232 16.1334 1.20001C16.7112 1.77779 17.0001 2.4889 17.0001 3.33334C17.0001 4.06668 16.9112 4.83334 16.7334 5.63334C16.5556 6.43334 16.1445 7.81112 15.5001 9.76668C15.389 10.1222 15.2001 10.4167 14.9334 10.65C14.6667 10.8833 14.3556 11 14.0001 11C13.6445 11 13.3334 10.8833 13.0667 10.65C12.8001 10.4167 12.6112 10.1222 12.5001 9.76668C11.8556 7.81112 11.4445 6.43334 11.2667 5.63334C11.089 4.83334 11.0001 4.06668 11.0001 3.33334C11.0001 2.4889 11.289 1.77779 11.8667 1.20001C12.4445 0.622232 13.1556 0.333344 14.0001 0.333344ZM14.0001 18.3333C13.3556 18.3333 12.8056 18.1056 12.3501 17.65C11.8945 17.1945 11.6667 16.6445 11.6667 16C11.6667 15.3556 11.8945 14.8056 12.3501 14.35C12.8056 13.8945 13.3556 13.6667 14.0001 13.6667C14.6445 13.6667 15.1945 13.8945 15.6501 14.35C16.1056 14.8056 16.3334 15.3556 16.3334 16C16.3334 16.6445 16.1056 17.1945 15.6501 17.65C15.1945 18.1056 14.6445 18.3333 14.0001 18.3333Z" fill="white"/>
</svg>
