<svg width="28" height="28" viewBox="0 0 28 28" fill="none" xmlns="http://www.w3.org/2000/svg">
<path d="M13.8641 22.9346L18.7307 12.6346C18.8196 12.4569 18.8085 12.2957 18.6974 12.1513C18.5863 12.0069 18.4418 11.9346 18.2641 11.9346H14.7307V5.03464C14.7307 4.9013 14.6641 4.82352 14.5307 4.8013C14.3974 4.77908 14.3085 4.82352 14.2641 4.93464L9.3974 15.2346C9.30851 15.4124 9.31962 15.5735 9.43073 15.718C9.54184 15.8624 9.68628 15.9346 9.86406 15.9346H13.3974V22.8346C13.3974 22.968 13.4641 23.0457 13.5974 23.068C13.7307 23.0902 13.8196 23.0457 13.8641 22.9346ZM13.9974 27.3346C12.1085 27.3346 10.353 26.9957 8.73073 26.318C7.10851 25.6402 5.6974 24.7013 4.4974 23.5013C3.2974 22.3013 2.35851 20.8902 1.68073 19.268C1.00295 17.6457 0.664062 15.8902 0.664062 14.0013C0.664062 12.1346 1.00295 10.3902 1.68073 8.76797C2.35851 7.14575 3.2974 5.73464 4.4974 4.53464C5.6974 3.33464 7.10851 2.39019 8.73073 1.7013C10.353 1.01241 12.1085 0.667969 13.9974 0.667969C15.8641 0.667969 17.6085 1.01241 19.2307 1.7013C20.853 2.39019 22.2641 3.33464 23.4641 4.53464C24.6641 5.73464 25.6085 7.14575 26.2974 8.76797C26.9863 10.3902 27.3307 12.1346 27.3307 14.0013C27.3307 15.8902 26.9863 17.6457 26.2974 19.268C25.6085 20.8902 24.6641 22.3013 23.4641 23.5013C22.2641 24.7013 20.853 25.6402 19.2307 26.318C17.6085 26.9957 15.8641 27.3346 13.9974 27.3346ZM13.9974 25.3346C17.2196 25.3346 19.9141 24.2513 22.0807 22.0846C24.2474 19.918 25.3307 17.2235 25.3307 14.0013C25.3307 10.7791 24.2474 8.08463 22.0807 5.91797C19.9141 3.7513 17.2196 2.66797 13.9974 2.66797C10.7752 2.66797 8.08073 3.7513 5.91406 5.91797C3.7474 8.08463 2.66406 10.7791 2.66406 14.0013C2.66406 17.2235 3.7474 19.918 5.91406 22.0846C8.08073 24.2513 10.7752 25.3346 13.9974 25.3346Z" fill="white"/>
</svg>
