<svg width="21" height="21" viewBox="0 0 21 21" fill="none" xmlns="http://www.w3.org/2000/svg">
<path d="M17.9037 14.1046L16.7691 12.9393C17.4422 12.7559 17.9855 12.3953 18.399 11.8575C18.8124 11.3197 19.0191 10.7008 19.0191 10.0008C19.0191 9.16103 18.7227 8.44468 18.1297 7.85173C17.5368 7.25878 16.8204 6.96231 15.9807 6.96231H12.173V5.46236H15.9807C17.2358 5.46236 18.306 5.90498 19.1912 6.79023C20.0765 7.67548 20.5191 8.74566 20.5191 10.0008C20.5191 10.8867 20.2813 11.696 19.8056 12.4287C19.33 13.1613 18.696 13.72 17.9037 14.1046ZM14.5807 10.7508L13.0807 9.25081H14.7307V10.7508H14.5807ZM19.1461 20.2546L0.746094 1.85461L1.79992 0.800781L20.1999 19.2008L19.1461 20.2546ZM9.82682 14.5392H6.01914C4.76403 14.5392 3.69384 14.0966 2.80859 13.2113C1.92334 12.3261 1.48072 11.2559 1.48072 10.0008C1.48072 8.88925 1.83874 7.91393 2.55477 7.07483C3.27079 6.23573 4.16918 5.72901 5.24994 5.55466H5.49997L6.90764 6.96231H6.01914C5.17941 6.96231 4.46307 7.25878 3.87012 7.85173C3.27717 8.44468 2.98069 9.16103 2.98069 10.0008C2.98069 10.8405 3.27717 11.5569 3.87012 12.1498C4.46307 12.7428 5.17941 13.0393 6.01914 13.0393H9.82682V14.5392ZM7.26917 10.7508V9.25081H9.21149L10.6865 10.7508H7.26917Z" fill="#90A4AE"/>
</svg>
