<svg width="24" height="25" viewBox="0 0 24 25" fill="none" xmlns="http://www.w3.org/2000/svg">
<g id="icons/bulb">
<path id="Vector" d="M12 22.077C11.4948 22.077 11.0593 21.902 10.6933 21.552C10.3273 21.202 10.1283 20.7744 10.0963 20.2693H13.9038C13.8718 20.7744 13.6728 21.202 13.3068 21.552C12.9408 21.902 12.5052 22.077 12 22.077ZM9 18.8845C8.78717 18.8845 8.609 18.8128 8.4655 18.6693C8.32183 18.5256 8.25 18.3473 8.25 18.1345C8.25 17.9217 8.32183 17.7435 8.4655 17.6C8.609 17.4563 8.78717 17.3845 9 17.3845H15C15.2128 17.3845 15.391 17.4563 15.5345 17.6C15.6782 17.7435 15.75 17.9217 15.75 18.1345C15.75 18.3473 15.6782 18.5256 15.5345 18.6693C15.391 18.8128 15.2128 18.8845 15 18.8845H9ZM8.40375 16C7.35642 15.3487 6.52733 14.4977 5.9165 13.447C5.3055 12.3965 5 11.2475 5 10C5 8.05133 5.6795 6.3975 7.0385 5.0385C8.3975 3.6795 10.0513 3 12 3C13.9487 3 15.6025 3.6795 16.9615 5.0385C18.3205 6.3975 19 8.05133 19 10C19 11.2475 18.6945 12.3965 18.0835 13.447C17.4727 14.4977 16.6436 15.3487 15.5962 16H8.40375Z" fill="#FB8C00"/>
</g>
</svg>
