<svg
    xmlns="http://www.w3.org/2000/svg"
    width="24"
    height="25"
    fill="none"
  >
    <path
      fill="#90A4AE"
      d="m19.015 20.988-5.753-5.754c-.5.412-1.075.736-1.725.969-.65.233-1.323.35-2.018.35-1.709 0-3.155-.592-4.34-1.776-1.183-1.183-1.775-2.63-1.775-4.338 0-1.709.592-3.155 1.775-4.34 1.184-1.185 2.63-1.777 4.339-1.777 1.708 0 3.155.592 4.34 1.776 1.184 1.184 1.777 2.63 1.777 4.34 0 .714-.12 1.396-.36 2.046a5.72 5.72 0 0 1-.96 1.696l5.78 5.779a.673.673 0 0 1 .207.5.733.733 0 0 1-.235.53.714.714 0 0 1-.525.216.718.718 0 0 1-.527-.217ZM9.52 15.053c1.289 0 2.38-.447 3.274-1.342.895-.894 1.342-1.985 1.342-3.274 0-1.288-.447-2.38-1.342-3.274-.894-.894-1.985-1.34-3.274-1.34-1.288 0-2.38.446-3.274 1.34-.894.895-1.341 1.986-1.341 3.274 0 1.289.447 2.38 1.341 3.274.894.895 1.986 1.342 3.274 1.342Z"
    />
  </svg>