<svg width="20" height="20" viewBox="0 0 20 20" fill="none" xmlns="http://www.w3.org/2000/svg">
<path d="M9.98412 17.9173C8.904 17.9173 7.8837 17.7092 6.92323 17.2931C5.96277 16.8769 5.12409 16.3104 4.4072 15.5936C3.69033 14.8767 3.12383 14.0367 2.7077 13.0735C2.29157 12.1104 2.0835 11.0861 2.0835 10.0006C2.0835 8.90127 2.29718 7.87003 2.72454 6.9069C3.15188 5.94376 3.73227 5.10589 4.4657 4.39328C5.19915 3.68068 6.05705 3.11765 7.03941 2.70419C8.02179 2.29072 9.06959 2.08398 10.1828 2.08398C11.2245 2.08398 12.2117 2.2616 13.1444 2.61684C14.077 2.97207 14.8962 3.4638 15.6019 4.092C16.3075 4.7202 16.8698 5.46672 17.2886 6.33157C17.7074 7.19641 17.9168 8.13418 17.9168 9.14486C17.9168 10.5872 17.4881 11.7153 16.6307 12.5294C15.7734 13.3436 14.6743 13.7506 13.3335 13.7506H11.8239C11.5867 13.7506 11.397 13.8281 11.2549 13.983C11.1128 14.1379 11.0418 14.3211 11.0418 14.5327C11.0418 14.7902 11.146 15.0578 11.3543 15.3356C11.5626 15.6133 11.6668 15.9323 11.6668 16.2923C11.6668 16.8425 11.5145 17.2509 11.2101 17.5174C10.9056 17.784 10.4969 17.9173 9.98412 17.9173ZM5.41681 10.6256C5.71381 10.6256 5.96167 10.5263 6.16039 10.3275C6.3591 10.1288 6.45845 9.88096 6.45845 9.58396C6.45845 9.28696 6.3591 9.0391 6.16039 8.84038C5.96167 8.64167 5.71381 8.54232 5.41681 8.54232C5.11981 8.54232 4.87195 8.64167 4.67323 8.84038C4.47452 9.0391 4.37516 9.28696 4.37516 9.58396C4.37516 9.88096 4.47452 10.1288 4.67323 10.3275C4.87195 10.5263 5.11981 10.6256 5.41681 10.6256ZM7.91681 7.29228C8.21381 7.29228 8.46167 7.19292 8.66039 6.99421C8.8591 6.79549 8.95845 6.54763 8.95845 6.25063C8.95845 5.95363 8.8591 5.70577 8.66039 5.50705C8.46167 5.30834 8.21381 5.20898 7.91681 5.20898C7.61981 5.20898 7.37195 5.30834 7.17323 5.50705C6.97452 5.70577 6.87516 5.95363 6.87516 6.25063C6.87516 6.54763 6.97452 6.79549 7.17323 6.99421C7.37195 7.19292 7.61981 7.29228 7.91681 7.29228ZM12.0835 7.29228C12.3805 7.29228 12.6283 7.19292 12.8271 6.99421C13.0258 6.79549 13.1251 6.54763 13.1251 6.25063C13.1251 5.95363 13.0258 5.70577 12.8271 5.50705C12.6283 5.30834 12.3805 5.20898 12.0835 5.20898C11.7865 5.20898 11.5386 5.30834 11.3399 5.50705C11.1412 5.70577 11.0418 5.95363 11.0418 6.25063C11.0418 6.54763 11.1412 6.79549 11.3399 6.99421C11.5386 7.19292 11.7865 7.29228 12.0835 7.29228ZM14.5835 10.6256C14.8805 10.6256 15.1283 10.5263 15.3271 10.3275C15.5258 10.1288 15.6251 9.88096 15.6251 9.58396C15.6251 9.28696 15.5258 9.0391 15.3271 8.84038C15.1283 8.64167 14.8805 8.54232 14.5835 8.54232C14.2865 8.54232 14.0386 8.64167 13.8399 8.84038C13.6412 9.0391 13.5418 9.28696 13.5418 9.58396C13.5418 9.88096 13.6412 10.1288 13.8399 10.3275C14.0386 10.5263 14.2865 10.6256 14.5835 10.6256ZM9.98412 16.6673C10.1198 16.6673 10.2258 16.6339 10.3022 16.5671C10.3786 16.5004 10.4168 16.4088 10.4168 16.2923C10.4168 16.0979 10.3126 15.8794 10.1043 15.6369C9.89598 15.3943 9.79181 15.0145 9.79181 14.4974C9.79181 13.9034 9.9932 13.4221 10.396 13.0535C10.7988 12.6849 11.2918 12.5006 11.8751 12.5006H13.3335C14.3143 12.5006 15.115 12.2132 15.7357 11.6384C16.3564 11.0637 16.6668 10.2325 16.6668 9.14486C16.6668 7.45896 16.0204 6.069 14.7277 4.97498C13.435 3.88097 11.92 3.33396 10.1828 3.33396C8.27791 3.33396 6.66013 3.9798 5.32948 5.27146C3.99881 6.56313 3.33348 8.13952 3.33348 10.0006C3.33348 11.8479 3.98278 13.4208 5.28139 14.7194C6.58 16.018 8.14758 16.6673 9.98412 16.6673Z" fill="#263238"/>
</svg>
