<svg width="20" height="20" viewBox="0 0 20 20" fill="none" xmlns="http://www.w3.org/2000/svg">
<path d="M9.19052 14.5826C9.01344 14.5826 8.865 14.5227 8.74521 14.4029C8.62543 14.283 8.56555 14.1345 8.56555 13.9574C8.56555 13.7802 8.62543 13.6318 8.74521 13.5121C8.865 13.3925 9.01344 13.3327 9.19052 13.3327H10.8011C10.9782 13.3327 11.1266 13.3926 11.2464 13.5124C11.3662 13.6323 11.4261 13.7808 11.4261 13.9579C11.4261 14.1351 11.3662 14.2835 11.2464 14.4031C11.1266 14.5228 10.9782 14.5826 10.8011 14.5826H9.19052ZM5.96136 10.6243C5.78429 10.6243 5.63586 10.5644 5.51607 10.4446C5.39627 10.3247 5.33638 10.1762 5.33638 9.99906C5.33638 9.82189 5.39627 9.67348 5.51607 9.55383C5.63586 9.43418 5.78429 9.37435 5.96136 9.37435H14.0303C14.2073 9.37435 14.3558 9.43427 14.4756 9.5541C14.5953 9.67395 14.6552 9.82245 14.6552 9.9996C14.6552 10.1768 14.5953 10.3252 14.4756 10.4448C14.3558 10.5645 14.2073 10.6243 14.0303 10.6243H5.96136ZM3.5415 6.666C3.36442 6.666 3.21598 6.60607 3.09619 6.48622C2.9764 6.36639 2.9165 6.21789 2.9165 6.04072C2.9165 5.86357 2.9764 5.71517 3.09619 5.59552C3.21598 5.47585 3.36442 5.41602 3.5415 5.41602H16.4581C16.6352 5.41602 16.7837 5.47594 16.9034 5.59579C17.0232 5.71563 17.0831 5.86413 17.0831 6.04129C17.0831 6.21845 17.0232 6.36686 16.9034 6.48652C16.7837 6.60617 16.6352 6.666 16.4581 6.666H3.5415Z" fill="#263238"/>
</svg>
