<svg width="20" height="20" viewBox="0 0 20 20" fill="none" xmlns="http://www.w3.org/2000/svg">
<path d="M6.71513 13.9737C6.92416 13.9737 7.09918 13.903 7.24019 13.7616C7.38122 13.6202 7.45173 13.445 7.45173 13.2359C7.45173 13.0269 7.38103 12.8519 7.23963 12.7109C7.09824 12.5698 6.92303 12.4993 6.714 12.4993C6.50498 12.4993 6.32995 12.57 6.18892 12.7114C6.04791 12.8528 5.9774 13.028 5.9774 13.2371C5.9774 13.4461 6.04809 13.6211 6.18948 13.7621C6.33089 13.9032 6.5061 13.9737 6.71513 13.9737ZM6.71513 10.7365C6.92416 10.7365 7.09918 10.6658 7.24019 10.5244C7.38122 10.383 7.45173 10.2078 7.45173 9.99877C7.45173 9.78974 7.38103 9.61471 7.23963 9.47368C7.09824 9.33267 6.92303 9.26216 6.714 9.26216C6.50498 9.26216 6.32995 9.33286 6.18892 9.47425C6.04791 9.61565 5.9774 9.79086 5.9774 9.99989C5.9774 10.2089 6.04809 10.3839 6.18948 10.525C6.33089 10.666 6.5061 10.7365 6.71513 10.7365ZM6.71513 7.49933C6.92416 7.49933 7.09918 7.42863 7.24019 7.28722C7.38122 7.14583 7.45173 6.97063 7.45173 6.7616C7.45173 6.55257 7.38103 6.37754 7.23963 6.23652C7.09824 6.09549 6.92303 6.02497 6.714 6.02497C6.50498 6.02497 6.32995 6.09568 6.18892 6.23708C6.04791 6.37848 5.9774 6.5537 5.9774 6.76272C5.9774 6.97175 6.04809 7.14677 6.18948 7.28779C6.33089 7.42881 6.5061 7.49933 6.71513 7.49933ZM9.87161 13.8615H13.3652C13.5423 13.8615 13.6907 13.8016 13.8105 13.6817C13.9303 13.5619 13.9902 13.4134 13.9902 13.2362C13.9902 13.0591 13.9303 12.9106 13.8105 12.791C13.6907 12.6713 13.5423 12.6115 13.3652 12.6115H9.87161C9.69452 12.6115 9.54609 12.6714 9.4263 12.7913C9.3065 12.9111 9.24661 13.0596 9.24661 13.2368C9.24661 13.4139 9.3065 13.5623 9.4263 13.682C9.54609 13.8017 9.69452 13.8615 9.87161 13.8615ZM9.87161 10.6243H13.3652C13.5423 10.6243 13.6907 10.5644 13.8105 10.4446C13.9303 10.3247 13.9902 10.1762 13.9902 9.99906C13.9902 9.82189 13.9303 9.67348 13.8105 9.55383C13.6907 9.43418 13.5423 9.37435 13.3652 9.37435H9.87161C9.69452 9.37435 9.54609 9.43427 9.4263 9.5541C9.3065 9.67395 9.24661 9.82245 9.24661 9.9996C9.24661 10.1768 9.3065 10.3252 9.4263 10.4448C9.54609 10.5645 9.69452 10.6243 9.87161 10.6243ZM9.87161 7.38714H13.3652C13.5423 7.38714 13.6907 7.32722 13.8105 7.20737C13.9303 7.08754 13.9902 6.93904 13.9902 6.76187C13.9902 6.58472 13.9303 6.43631 13.8105 6.31666C13.6907 6.197 13.5423 6.13716 13.3652 6.13716H9.87161C9.69452 6.13716 9.54609 6.19709 9.4263 6.31693C9.3065 6.43678 9.24661 6.58528 9.24661 6.76243C9.24661 6.9396 9.3065 7.08801 9.4263 7.20766C9.54609 7.32731 9.69452 7.38714 9.87161 7.38714ZM4.42292 17.0826C4.00198 17.0826 3.64567 16.9368 3.354 16.6451C3.06234 16.3535 2.9165 15.9972 2.9165 15.5762V4.42243C2.9165 4.00149 3.06234 3.64518 3.354 3.35352C3.64567 3.06185 4.00198 2.91602 4.42292 2.91602H15.5767C15.9977 2.91602 16.354 3.06185 16.6456 3.35352C16.9373 3.64518 17.0831 4.00149 17.0831 4.42243V15.5762C17.0831 15.9972 16.9373 16.3535 16.6456 16.6451C16.354 16.9368 15.9977 17.0826 15.5767 17.0826H4.42292ZM4.42292 15.8327H15.5767C15.6408 15.8327 15.6996 15.806 15.753 15.7525C15.8064 15.6991 15.8332 15.6403 15.8332 15.5762V4.42243C15.8332 4.35832 15.8064 4.29955 15.753 4.24612C15.6996 4.1927 15.6408 4.166 15.5767 4.166H4.42292C4.35881 4.166 4.30004 4.1927 4.24661 4.24612C4.19319 4.29955 4.16648 4.35832 4.16648 4.42243V15.5762C4.16648 15.6403 4.19319 15.6991 4.24661 15.7525C4.30004 15.806 4.35881 15.8327 4.42292 15.8327Z" fill="#263238"/>
</svg>
