<svg width="20" height="20" viewBox="0 0 20 20" fill="none" xmlns="http://www.w3.org/2000/svg">
<path d="M7.63601 10.5359C7.45886 10.5359 7.31045 10.476 7.1908 10.3562C7.07115 10.2364 7.01132 10.088 7.01132 9.91088V4.46855L5.0802 6.39967C4.96749 6.51505 4.8266 6.57273 4.65753 6.57273C4.48846 6.57273 4.33929 6.51296 4.21003 6.3934C4.08075 6.26297 4.01611 6.11389 4.01611 5.94615C4.01611 5.77841 4.08075 5.62991 4.21003 5.50065L7.10105 2.60963C7.17904 2.53164 7.26165 2.47662 7.3489 2.44457C7.43615 2.41251 7.52964 2.39648 7.62936 2.39648C7.72907 2.39648 7.82379 2.41263 7.91353 2.44492C8.00328 2.47723 8.08661 2.53213 8.16353 2.60963L11.0754 5.52148C11.1993 5.64542 11.2605 5.78911 11.2589 5.95257C11.2573 6.11603 11.1918 6.26297 11.0626 6.3934C10.9333 6.51296 10.7869 6.57487 10.6235 6.57915C10.46 6.58343 10.3137 6.52093 10.1844 6.39165L8.26128 4.46855V9.9189C8.26128 10.0937 8.20136 10.2402 8.08153 10.3585C7.96168 10.4767 7.81318 10.5359 7.63601 10.5359ZM12.3708 17.5935C12.2711 17.5935 12.1763 17.5774 12.0866 17.5451C11.9969 17.5128 11.9135 17.4579 11.8366 17.3804L8.92476 14.4685C8.80083 14.3446 8.73966 14.2009 8.74126 14.0375C8.74287 13.874 8.80831 13.7271 8.93757 13.5967C9.06683 13.4771 9.2132 13.4152 9.37665 13.4109C9.54011 13.4066 9.68648 13.4691 9.81576 13.5984L11.7389 15.5215V10.0712C11.7389 9.89635 11.7988 9.74981 11.9186 9.63155C12.0385 9.5133 12.187 9.45417 12.3641 9.45417C12.5413 9.45417 12.6897 9.51407 12.8093 9.63386C12.929 9.75365 12.9888 9.90208 12.9888 10.0792V15.5215L14.9199 13.5904C15.0327 13.475 15.1735 13.4173 15.3426 13.4173C15.5117 13.4173 15.6608 13.4771 15.7901 13.5967C15.9194 13.7271 15.984 13.8762 15.984 14.0439C15.984 14.2116 15.9194 14.3601 15.7901 14.4894L12.8991 17.3804C12.8211 17.4584 12.7385 17.5134 12.6512 17.5455C12.564 17.5775 12.4705 17.5935 12.3708 17.5935Z" fill="#263238"/>
</svg>
