<svg width="20" height="20" viewBox="0 0 20 20" fill="none" xmlns="http://www.w3.org/2000/svg">
<g id="icon/text-ellipses">
<g id="Vector">
<path d="M4.37479 16.25C4.19757 16.25 4.04917 16.1901 3.92958 16.0702C3.80986 15.9505 3.75 15.8021 3.75 15.625V4.375C3.75 4.19792 3.80993 4.04951 3.92979 3.92979C4.04965 3.80993 4.19812 3.75 4.37521 3.75C4.55243 3.75 4.70083 3.80993 4.82042 3.92979C4.94014 4.04951 5 4.19792 5 4.375V15.625C5 15.8021 4.94007 15.9505 4.82021 16.0702C4.70035 16.1901 4.55188 16.25 4.37479 16.25ZM15.6248 16.25C15.4476 16.25 15.2992 16.1901 15.1796 16.0702C15.0599 15.9505 15 15.8021 15 15.625V4.375C15 4.19792 15.0599 4.04951 15.1798 3.92979C15.2997 3.80993 15.4481 3.75 15.6252 3.75C15.8024 3.75 15.9508 3.80993 16.0704 3.92979C16.1901 4.04951 16.25 4.19792 16.25 4.375V15.625C16.25 15.8021 16.1901 15.9505 16.0702 16.0702C15.9503 16.1901 15.8019 16.25 15.6248 16.25Z" fill="#212121"/>
<path d="M8 9.75C8 10.3023 7.55228 10.75 7 10.75C6.44771 10.75 6 10.3023 6 9.75C6 9.19772 6.44771 8.75 7 8.75C7.55228 8.75 8 9.19772 8 9.75Z" fill="#212121"/>
<path d="M11 9.75C11 10.3023 10.5523 10.75 10 10.75C9.44771 10.75 9 10.3023 9 9.75C9 9.19772 9.44771 8.75 10 8.75C10.5523 8.75 11 9.19772 11 9.75Z" fill="#212121"/>
<path d="M14 9.75C14 10.3023 13.5523 10.75 13 10.75C12.4477 10.75 12 10.3023 12 9.75C12 9.19772 12.4477 8.75 13 8.75C13.5523 8.75 14 9.19772 14 9.75Z" fill="#212121"/>
</g>
</g>
</svg>
