<svg width="96" height="61" viewBox="0 0 96 61" fill="none" xmlns="http://www.w3.org/2000/svg">
<g clipPath="url(#clip0_14686_62446)">
<path d="M90 1.67383H6C3.23858 1.67383 1 3.9124 1 6.67383V54.6738C1 57.4353 3.23858 59.6738 6 59.6738H90C92.7614 59.6738 95 57.4353 95 54.6738V6.67383C95 3.9124 92.7614 1.67383 90 1.67383Z" fill="white" stroke="#C7C7C7" strokeWidth="2"/>
<path d="M8.57227 25.4238C8.57227 25.0096 8.90806 24.6738 9.32227 24.6738H43.8223C44.2365 24.6738 44.5723 25.0096 44.5723 25.4238C44.5723 25.838 44.2365 26.1738 43.8223 26.1738H9.32227C8.90805 26.1738 8.57227 25.838 8.57227 25.4238Z" fill="black" fillOpacity="0.2"/>
<path d="M8.57227 35.9238C8.57227 35.5096 8.90806 35.1738 9.32227 35.1738H31.8223C32.2365 35.1738 32.5723 35.5096 32.5723 35.9238C32.5723 36.338 32.2365 36.6738 31.8223 36.6738H9.32227C8.90806 36.6738 8.57227 36.338 8.57227 35.9238Z" fill="black" fillOpacity="0.2"/>
<rect x="5" y="5" width="86" height="51" rx="3" fill="#CCCCCC"/>
<path d="M30 25.4238C30 25.0096 30.3358 24.6738 30.75 24.6738H65.25C65.6642 24.6738 66 25.0096 66 25.4238C66 25.838 65.6642 26.1738 65.25 26.1738H30.75C30.3358 26.1738 30 25.838 30 25.4238Z" fill="white"/>
<path d="M30 35.9238C30 35.5096 30.3358 35.1738 30.75 35.1738H53.25C53.6642 35.1738 54 35.5096 54 35.9238C54 36.338 53.6642 36.6738 53.25 36.6738H30.75C30.3358 36.6738 30 36.338 30 35.9238Z" fill="white"/>
</g>
<defs>
<clipPath id="clip0_14686_62446">
<rect width="96" height="60" fill="white" transform="translate(0 0.673828)"/>
</clipPath>
</defs>
</svg>
