<svg width="78" height="49" viewBox="0 0 78 49" fill="none" xmlns="http://www.w3.org/2000/svg">
<g clipPath="url(#clip0_14611_9092)">
<path d="M73.1651 0.805664H5.49848C3.274 0.805664 1.4707 2.60896 1.4707 4.83344V43.5001C1.4707 45.7246 3.274 47.5279 5.49848 47.5279H73.1651C75.3896 47.5279 77.1929 45.7246 77.1929 43.5001V4.83344C77.1929 2.60896 75.3896 0.805664 73.1651 0.805664Z" fill="white" stroke="#4694E2" strokeWidth="1.61111"/>
<path d="M7.57227 19.9377C7.57227 19.604 7.84276 19.3335 8.17643 19.3335H35.9681C36.3018 19.3335 36.5723 19.604 36.5723 19.9377C36.5723 20.2713 36.3018 20.5418 35.9681 20.5418H8.17643C7.84276 20.5418 7.57227 20.2713 7.57227 19.9377Z" fill="#4694E2"/>
<path d="M7.57227 28.3957C7.57227 28.062 7.84276 27.7915 8.17643 27.7915H26.3014C26.6351 27.7915 26.9056 28.062 26.9056 28.3957C26.9056 28.7293 26.6351 28.9998 26.3014 28.9998H8.17643C7.84276 28.9998 7.57227 28.7293 7.57227 28.3957Z" fill="black" fillOpacity="0.2"/>
<rect x="4.69336" y="3.48486" width="69.2778" height="41.0833" rx="2.41667" fill="#4694E2"/>
<path d="M24.832 19.9372C24.832 19.6035 25.1025 19.333 25.4362 19.333H53.2279C53.5615 19.333 53.832 19.6035 53.832 19.9372C53.832 20.2708 53.5615 20.5413 53.2279 20.5413H25.4362C25.1025 20.5413 24.832 20.2708 24.832 19.9372Z" fill="white"/>
<path d="M24.832 28.3957C24.832 28.062 25.1025 27.7915 25.4362 27.7915H43.5612C43.8949 27.7915 44.1654 28.062 44.1654 28.3957C44.1654 28.7293 43.8949 28.9998 43.5612 28.9998H25.4362C25.1025 28.9998 24.832 28.7293 24.832 28.3957Z" fill="white"/>
</g>
<defs>
<clipPath id="clip0_14611_9092">
<rect width="77.3333" height="48.3333" fill="white" transform="translate(0.666016)"/>
</clipPath>
</defs>
</svg>
