<svg width="78" height="49" viewBox="0 0 78 49" fill="none" xmlns="http://www.w3.org/2000/svg">
<g clipPath="url(#clip0_14611_8840)">
<path d="M73.4384 0.705078H4.56337C2.61695 0.705078 1.03906 2.28296 1.03906 4.22938V44.1044C1.03906 46.0508 2.61695 47.6287 4.56337 47.6287H73.4384C75.3848 47.6287 76.9627 46.0508 76.9627 44.1044V4.22938C76.9627 2.28296 75.3848 0.705078 73.4384 0.705078Z" fill="white" stroke="#CCCCCC" strokeWidth="1.61111"/>
<path d="M28.9895 3.45361H6.20378C4.86909 3.45361 3.78711 4.53559 3.78711 5.87028V42.4655C3.78711 43.8002 4.86909 44.8822 6.20378 44.8822H28.9895C30.3242 44.8822 31.4061 43.8002 31.4061 42.4655V5.87028C31.4061 4.53559 30.3242 3.45361 28.9895 3.45361Z" fill="#CCCCCC"/>
<path d="M40.3828 19.9377C40.3828 19.604 40.6533 19.3335 40.987 19.3335H68.7786C69.1123 19.3335 69.3828 19.604 69.3828 19.9377C69.3828 20.2713 69.1123 20.5418 68.7786 20.5418H40.987C40.6533 20.5418 40.3828 20.2713 40.3828 19.9377Z" fill="#CCCCCC"/>
<path d="M40.3848 19.9372C40.3848 19.6035 40.6553 19.333 40.9889 19.333H68.7806C69.1143 19.333 69.3848 19.6035 69.3848 19.9372C69.3848 20.2708 69.1143 20.5413 68.7806 20.5413H40.9889C40.6553 20.5413 40.3848 20.2708 40.3848 19.9372Z" fill="#CCCCCC"/>
<path d="M40.3828 28.3942C40.3828 28.0605 40.6533 27.79 40.987 27.79H59.112C59.4456 27.79 59.7161 28.0605 59.7161 28.3942C59.7161 28.7279 59.4456 28.9984 59.112 28.9984H40.987C40.6533 28.9984 40.3828 28.7279 40.3828 28.3942Z" fill="#CCCCCC"/>
</g>
<defs>
<clipPath id="clip0_14611_8840">
<rect width="77.3333" height="48.3333" fill="white" transform="translate(0.333984)"/>
</clipPath>
</defs>
</svg>
