<svg width="78" height="49" viewBox="0 0 78 49" fill="none" xmlns="http://www.w3.org/2000/svg">
<g clipPath="url(#clip0_14611_8839)">
<path d="M72.4991 0.805664H4.83247C2.60798 0.805664 0.804688 2.60896 0.804688 4.83344V43.5001C0.804688 45.7246 2.60798 47.5279 4.83247 47.5279H72.4991C74.7236 47.5279 76.5269 45.7246 76.5269 43.5001V4.83344C76.5269 2.60896 74.7236 0.805664 72.4991 0.805664Z" fill="white" stroke="#C7C7C7" strokeWidth="1.61111"/>
<path d="M71.4641 3.45215H48.6784C47.3437 3.45215 46.2617 4.53413 46.2617 5.86882V42.4641C46.2617 43.7988 47.3437 44.8807 48.6784 44.8807H71.4641C72.7988 44.8807 73.8808 43.7988 73.8808 42.4641V5.86882C73.8808 4.53413 72.7988 3.45215 71.4641 3.45215Z" fill="black" fillOpacity="0.2"/>
<path d="M6.90625 19.9377C6.90625 19.604 7.17675 19.3335 7.51042 19.3335H35.3021C35.6358 19.3335 35.9063 19.604 35.9063 19.9377C35.9063 20.2713 35.6358 20.5418 35.3021 20.5418H7.51042C7.17674 20.5418 6.90625 20.2713 6.90625 19.9377Z" fill="black" fillOpacity="0.2"/>
<mask id="mask0_14611_8839" style="mask-type:luminance" maskUnits="userSpaceOnUse" x="6" y="19" width="30" height="2">
<path d="M6.9043 19.9372C6.9043 19.6035 7.17479 19.333 7.50846 19.333H35.3001C35.6338 19.333 35.9043 19.6035 35.9043 19.9372C35.9043 20.2708 35.6338 20.5413 35.3001 20.5413H7.50846C7.17479 20.5413 6.9043 20.2708 6.9043 19.9372Z" fill="black" fillOpacity="0.2"/>
</mask>
<g mask="url(#mask0_14611_8839)">
<path d="M7.5102 20.9444H35.3019V17.7222H7.5102V20.9444ZM35.3019 18.9305H7.5102V22.1527H35.3019V18.9305ZM7.5102 18.9305C8.06628 18.9305 8.51715 19.3813 8.51715 19.9374H5.29492C5.29492 21.1609 6.28673 22.1527 7.5102 22.1527V18.9305ZM34.2949 19.9374C34.2949 19.3813 34.7457 18.9305 35.3019 18.9305V22.1527C36.5254 22.1527 37.5172 21.1609 37.5172 19.9374H34.2949ZM35.3019 20.9444C34.7457 20.9444 34.2949 20.4936 34.2949 19.9374H37.5172C37.5172 18.714 36.5254 17.7222 35.3019 17.7222V20.9444ZM7.5102 17.7222C6.28674 17.7222 5.29492 18.714 5.29492 19.9374H8.51715C8.51715 20.4936 8.06628 20.9444 7.5102 20.9444V17.7222Z" fill="black" fillOpacity="0.2"/>
</g>
<path d="M6.90625 28.3957C6.90625 28.062 7.17675 27.7915 7.51042 27.7915H25.6354C25.9691 27.7915 26.2396 28.062 26.2396 28.3957C26.2396 28.7293 25.9691 28.9998 25.6354 28.9998H7.51042C7.17675 28.9998 6.90625 28.7293 6.90625 28.3957Z" fill="black" fillOpacity="0.2"/>
<mask id="mask1_14611_8839" style="mask-type:luminance" maskUnits="userSpaceOnUse" x="6" y="27" width="21" height="3">
<path d="M6.9043 28.3962C6.9043 28.0625 7.17479 27.792 7.50846 27.792H25.6335C25.9671 27.792 26.2376 28.0625 26.2376 28.3962C26.2376 28.7298 25.9671 29.0003 25.6335 29.0003H7.50846C7.17479 29.0003 6.9043 28.7298 6.9043 28.3962Z" fill="black" fillOpacity="0.2"/>
</mask>
<g mask="url(#mask1_14611_8839)">
<path d="M7.5102 29.4029H25.6352V26.1807H7.5102V29.4029ZM25.6352 27.389H7.5102V30.6112H25.6352V27.389ZM7.5102 27.389C8.06628 27.389 8.51715 27.8398 8.51715 28.3959H5.29492C5.29492 29.6194 6.28674 30.6112 7.5102 30.6112V27.389ZM24.6283 28.3959C24.6283 27.8398 25.0791 27.389 25.6352 27.389V30.6112C26.8587 30.6112 27.8505 29.6194 27.8505 28.3959H24.6283ZM25.6352 29.4029C25.0791 29.4029 24.6283 28.9521 24.6283 28.3959H27.8505C27.8505 27.1725 26.8587 26.1807 25.6352 26.1807V29.4029ZM7.5102 26.1807C6.28674 26.1807 5.29492 27.1725 5.29492 28.3959H8.51715C8.51715 28.9521 8.06628 29.4029 7.5102 29.4029V26.1807Z" fill="#4694E2"/>
</g>
</g>
<defs>
<clipPath id="clip0_14611_8839">
<rect width="77.3333" height="48.3333" fill="white"/>
</clipPath>
</defs>
</svg>
