<svg width="96" height="61" viewBox="0 0 96 61" fill="none" xmlns="http://www.w3.org/2000/svg">
<g clipPath="url(#clip0_4029_29394)">
<path d="M90 1.42969H6C3.23858 1.42969 1 3.66826 1 6.42969V54.4297C1 57.1911 3.23858 59.4297 6 59.4297H90C92.7614 59.4297 95 57.1911 95 54.4297V6.42969C95 3.66826 92.7614 1.42969 90 1.42969Z" fill="white" stroke="#4694E2" strokeWidth="2"/>
<path d="M88.7144 4.71484H60.4287C58.7719 4.71484 57.4287 6.05799 57.4287 7.71484V53.1434C57.4287 54.8003 58.7719 56.1434 60.4287 56.1434H88.7144C90.3713 56.1434 91.7144 54.8003 91.7144 53.1434V7.71484C91.7144 6.05799 90.3713 4.71484 88.7144 4.71484Z" fill="#4694E2"/>
<path d="M8.57129 25.1797C8.57129 24.7655 8.90708 24.4297 9.32129 24.4297H43.8213C44.2355 24.4297 44.5713 24.7655 44.5713 25.1797C44.5713 25.5939 44.2355 25.9297 43.8213 25.9297H9.32129C8.90707 25.9297 8.57129 25.5939 8.57129 25.1797Z" fill="#4694E2"/>
<mask id="mask0_4029_29394" style="mask-type:luminance" maskUnits="userSpaceOnUse" x="8" y="24" width="37" height="2">
<path d="M8.57129 25.1797C8.57129 24.7655 8.90708 24.4297 9.32129 24.4297H43.8213C44.2355 24.4297 44.5713 24.7655 44.5713 25.1797C44.5713 25.5939 44.2355 25.9297 43.8213 25.9297H9.32129C8.90707 25.9297 8.57129 25.5939 8.57129 25.1797Z" fill="#4694E2"/>
</mask>
<g mask="url(#mask0_4029_29394)">
<path d="M9.32129 26.4297H43.8213V22.4297H9.32129V26.4297ZM43.8213 23.9297H9.32129V27.9297H43.8213V23.9297ZM9.32129 23.9297C10.0116 23.9297 10.5713 24.4893 10.5713 25.1797H6.57129C6.57129 26.6985 7.8025 27.9297 9.32129 27.9297V23.9297ZM42.5713 25.1797C42.5713 24.4893 43.1309 23.9297 43.8213 23.9297V27.9297C45.3401 27.9297 46.5713 26.6985 46.5713 25.1797H42.5713ZM43.8213 26.4297C43.1309 26.4297 42.5713 25.8701 42.5713 25.1797H46.5713C46.5713 23.6609 45.3401 22.4297 43.8213 22.4297V26.4297ZM9.32129 22.4297C7.80251 22.4297 6.57129 23.6609 6.57129 25.1797H10.5713C10.5713 25.8701 10.0116 26.4297 9.32129 26.4297V22.4297Z" fill="#4694E2"/>
</g>
<path d="M8.57129 35.6797C8.57129 35.2655 8.90708 34.9297 9.32129 34.9297H31.8213C32.2355 34.9297 32.5713 35.2655 32.5713 35.6797C32.5713 36.0939 32.2355 36.4297 31.8213 36.4297H9.32129C8.90708 36.4297 8.57129 36.0939 8.57129 35.6797Z" fill="#4694E2"/>
<mask id="mask1_4029_29394" style="mask-type:luminance" maskUnits="userSpaceOnUse" x="8" y="34" width="25" height="3">
<path d="M8.57129 35.6797C8.57129 35.2655 8.90708 34.9297 9.32129 34.9297H31.8213C32.2355 34.9297 32.5713 35.2655 32.5713 35.6797C32.5713 36.0939 32.2355 36.4297 31.8213 36.4297H9.32129C8.90708 36.4297 8.57129 36.0939 8.57129 35.6797Z" fill="#4694E2"/>
</mask>
<g mask="url(#mask1_4029_29394)">
<path d="M9.32129 36.9297H31.8213V32.9297H9.32129V36.9297ZM31.8213 34.4297H9.32129V38.4297H31.8213V34.4297ZM9.32129 34.4297C10.0116 34.4297 10.5713 34.9893 10.5713 35.6797H6.57129C6.57129 37.1985 7.80251 38.4297 9.32129 38.4297V34.4297ZM30.5713 35.6797C30.5713 34.9893 31.1309 34.4297 31.8213 34.4297V38.4297C33.3401 38.4297 34.5713 37.1985 34.5713 35.6797H30.5713ZM31.8213 36.9297C31.1309 36.9297 30.5713 36.3701 30.5713 35.6797H34.5713C34.5713 34.1609 33.3401 32.9297 31.8213 32.9297V36.9297ZM9.32129 32.9297C7.80251 32.9297 6.57129 34.1609 6.57129 35.6797H10.5713C10.5713 36.3701 10.0116 36.9297 9.32129 36.9297V32.9297Z" fill="#4694E2"/>
</g>
</g>
<defs>
<clipPath id="clip0_4029_29394">
<rect width="96" height="60" fill="white" transform="translate(0 0.429688)"/>
</clipPath>
</defs>
</svg>
