<svg width="128" height="128" viewBox="0 0 128 128" fill="none" xmlns="http://www.w3.org/2000/svg">
<circle cx="64" cy="64" r="64" fill="white"/>
<path d="M54.6413 33.1666V28.1667H73.3592V33.1666H54.6413ZM61.5003 70.0256H66.5002V51.3077H61.5003V70.0256ZM64.0002 95.6666C60.1028 95.6666 56.4362 94.923 53.0003 93.4358C49.5644 91.9486 46.5602 89.9187 43.9875 87.3461C41.4149 84.7734 39.385 81.7691 37.8978 78.3333C36.4106 74.8974 35.667 71.2308 35.667 67.3333C35.667 63.4359 36.4106 59.7692 37.8978 56.3334C39.385 52.8975 41.4149 49.8932 43.9875 47.3206C46.5602 44.748 49.5644 42.7181 53.0003 41.2309C56.4362 39.7437 60.1028 39.0001 64.0002 39.0001C67.3379 39.0001 70.5526 39.5663 73.6445 40.6988C76.7363 41.8313 79.607 43.4531 82.2566 45.5642L86.4104 41.4104L89.9232 44.9232L85.7693 49.077C87.8804 51.7266 89.5023 54.5972 90.6348 57.6891C91.7673 60.781 92.3335 63.9957 92.3335 67.3333C92.3335 71.2308 91.5899 74.8974 90.1027 78.3333C88.6155 81.7691 86.5856 84.7734 84.013 87.3461C81.4403 89.9187 78.4361 91.9486 75.0002 93.4358C71.5643 94.923 67.8977 95.6666 64.0002 95.6666Z" fill="#EB4A84"/>
</svg>
