<svg width="128" height="128" viewBox="0 0 128 128" fill="none" xmlns="http://www.w3.org/2000/svg">
<circle cx="64" cy="64" r="64" fill="white"/>
<path d="M21.3383 76.2146C20.6069 76.2146 20.0015 75.973 19.522 75.4896C19.0425 75.0064 18.8027 74.3952 18.8027 73.6561V54.3436C18.8027 53.6045 19.0419 52.9934 19.5201 52.5101C19.9983 52.0268 20.603 51.7852 21.3345 51.7852C22.0659 51.7852 22.6713 52.0268 23.1508 52.5101C23.6303 52.9934 23.87 53.6045 23.87 54.3436V60.3685H33.6777V54.3436C33.6777 53.6045 33.9169 52.9934 34.3951 52.5101C34.8733 52.0268 35.4781 51.7852 36.2095 51.7852C36.9409 51.7852 37.5463 52.0268 38.0258 52.5101C38.5053 52.9934 38.745 53.6045 38.745 54.3436V73.6561C38.745 74.3952 38.5059 75.0064 38.0277 75.4896C37.5494 75.973 36.9446 76.2146 36.2133 76.2146C35.4819 76.2146 34.8765 75.973 34.397 75.4896C33.9175 75.0064 33.6777 74.3952 33.6777 73.6561V65.4854H23.87V73.6561C23.87 74.3952 23.6309 75.0064 23.1527 75.4896C22.6744 75.973 22.0696 76.2146 21.3383 76.2146ZM52.7228 76.2146C51.9915 76.2146 51.3861 75.973 50.9066 75.4896C50.4271 75.0064 50.1874 74.3952 50.1874 73.6561V56.9021H45.9373C45.2054 56.9021 44.6001 56.6606 44.1216 56.1777C43.643 55.6948 43.4036 55.0841 43.4036 54.3456C43.4036 53.607 43.643 52.9957 44.1216 52.5114C44.6001 52.0272 45.2054 51.7852 45.9373 51.7852H59.5047C60.2366 51.7852 60.8418 52.0266 61.3204 52.5096C61.799 52.9925 62.0383 53.6032 62.0383 54.3417C62.0383 55.0802 61.799 55.6916 61.3204 56.1759C60.8418 56.66 60.2366 56.9021 59.5047 56.9021H55.2546V73.6561C55.2546 74.3952 55.0155 75.0064 54.5373 75.4896C54.0591 75.973 53.4543 76.2146 52.7228 76.2146ZM75.2805 76.2146C74.5491 76.2146 73.9437 75.973 73.4642 75.4896C72.9847 75.0064 72.745 74.3952 72.745 73.6561V56.9021H68.4949C67.763 56.9021 67.1577 56.6606 66.6792 56.1777C66.2006 55.6948 65.9613 55.0841 65.9613 54.3456C65.9613 53.607 66.2006 52.9957 66.6792 52.5114C67.1577 52.0272 67.763 51.7852 68.4949 51.7852H82.0623C82.7942 51.7852 83.3994 52.0266 83.878 52.5096C84.3566 52.9925 84.5959 53.6032 84.5959 54.3417C84.5959 55.0802 84.3566 55.6916 83.878 56.1759C83.3994 56.66 82.7942 56.9021 82.0623 56.9021H77.8122V73.6561C77.8122 74.3952 77.5731 75.0064 77.0949 75.4896C76.6167 75.973 76.0119 76.2146 75.2805 76.2146ZM91.7901 76.2146C91.0587 76.2146 90.4532 75.973 89.9738 75.4896C89.4943 75.0064 89.2546 74.3952 89.2546 73.6561V55.6642C89.2546 54.5652 89.6227 53.6439 90.3589 52.9003C91.0952 52.1569 92.0075 51.7852 93.0959 51.7852H102.822C104.522 51.7852 106.009 52.4289 107.284 53.7164C108.559 55.0039 109.197 56.506 109.197 58.2227V61.1938C109.197 62.9104 108.559 64.4125 107.284 65.7C106.009 66.9875 104.522 67.6313 102.822 67.6313H94.3218V73.6561C94.3218 74.3952 94.0827 75.0064 93.6044 75.4896C93.1262 75.973 92.5215 76.2146 91.7901 76.2146ZM94.3218 62.5143H102.822C103.149 62.5143 103.448 62.3768 103.721 62.1017C103.993 61.8265 104.13 61.5239 104.13 61.1938V58.2227C104.13 57.8926 103.993 57.5899 103.721 57.3148C103.448 57.0397 103.149 56.9021 102.822 56.9021H94.3218V62.5143Z" fill="#C501E4"/>
</svg>
