<svg xmlns="http://www.w3.org/2000/svg" width="25" height="25" viewBox="0 0 18 18" fill="none">
<path d="M5.42011 12.5795C5.30736 12.4668 5.25103 12.3342 5.25111 12.1819C5.2512 12.0295 5.30759 11.8969 5.42028 11.7843L8.20453 9.00001L5.42028 6.21576C5.30759 6.10306 5.25126 5.97047 5.2513 5.81799C5.25133 5.66548 5.30772 5.53286 5.42046 5.42012C5.53321 5.30737 5.66577 5.25104 5.81815 5.25113C5.97052 5.25121 6.10306 5.3076 6.21575 5.42029L9 8.20454L11.7842 5.42029C11.8969 5.3076 12.0295 5.25126 12.182 5.25129C12.3345 5.25133 12.4671 5.30772 12.5799 5.42046C12.6926 5.53321 12.749 5.66577 12.7489 5.81814C12.7488 5.97053 12.6924 6.10306 12.5797 6.21576L9.79547 9.00001L12.5797 11.7843C12.6924 11.8969 12.7487 12.0295 12.7487 12.182C12.7487 12.3345 12.6923 12.4672 12.5795 12.5799C12.4668 12.6926 12.3342 12.749 12.1819 12.7489C12.0295 12.7488 11.8969 12.6924 11.7842 12.5797L9 9.79547L6.21575 12.5797C6.10306 12.6924 5.97046 12.7488 5.81797 12.7487C5.66547 12.7487 5.53285 12.6923 5.42011 12.5795Z" fill="#607D8B"/>
</svg>