<svg width="20" height="20" viewBox="0 0 20 20" fill="none" xmlns="http://www.w3.org/2000/svg">
<path d="M4.42292 13.75C4.00198 13.75 3.64567 13.6041 3.354 13.3125C3.06234 13.0208 2.9165 12.6645 2.9165 12.2435V7.75642C2.9165 7.33547 3.06234 6.97917 3.354 6.6875C3.64567 6.39583 4.00198 6.25 4.42292 6.25H15.5767C15.9977 6.25 16.354 6.39583 16.6456 6.6875C16.9373 6.97917 17.0831 7.33547 17.0831 7.75642V12.2435C17.0831 12.6645 16.9373 13.0208 16.6456 13.3125C16.354 13.6041 15.9977 13.75 15.5767 13.75H4.42292ZM4.42292 12.5H15.5767C15.6408 12.5 15.6996 12.4733 15.753 12.4199C15.8064 12.3664 15.8332 12.3077 15.8332 12.2435V7.75642C15.8332 7.69231 15.8064 7.63354 15.753 7.5801C15.6996 7.52669 15.6408 7.49998 15.5767 7.49998H4.42292C4.35881 7.49998 4.30004 7.52669 4.24661 7.5801C4.19319 7.63354 4.16648 7.69231 4.16648 7.75642V12.2435C4.16648 12.3077 4.19319 12.3664 4.24661 12.4199C4.30004 12.4733 4.35881 12.5 4.42292 12.5Z" fill="#263238"/>
</svg>
