<svg xmlns="http://www.w3.org/2000/svg" width="20" height="20" viewBox="0 0 20 20" fill="none">
  <path d="M15.846 16.7081L11.0511 11.9132C10.6345 12.2572 10.1553 12.5265 9.61363 12.7209C9.07197 12.9153 8.51161 13.0126 7.93255 13.0126C6.50825 13.0126 5.30281 12.5194 4.31626 11.5331C3.3297 10.5468 2.83643 9.34168 2.83643 7.91775C2.83643 6.49381 3.32958 5.28824 4.31588 4.30106C5.30219 3.3139 6.50731 2.82031 7.93126 2.82031C9.35519 2.82031 10.5607 3.31359 11.5479 4.30015C12.5351 5.2867 13.0287 6.49213 13.0287 7.91644C13.0287 8.51152 12.9288 9.0799 12.729 9.62156C12.5292 10.1632 12.2627 10.6344 11.9293 11.035L16.7451 15.8507C16.8604 15.9639 16.9181 16.1027 16.9181 16.2673C16.9181 16.4319 16.8529 16.5794 16.7225 16.7098C16.6029 16.8294 16.4571 16.8892 16.2851 16.8892C16.1131 16.8892 15.9668 16.8288 15.846 16.7081ZM7.93255 11.7626C9.00627 11.7626 9.91573 11.39 10.6609 10.6448C11.4061 9.89962 11.7787 8.99016 11.7787 7.91644C11.7787 6.84272 11.4061 5.93326 10.6609 5.18806C9.91573 4.44287 9.00627 4.07027 7.93255 4.07027C6.85883 4.07027 5.94937 4.44287 5.20418 5.18806C4.459 5.93326 4.08641 6.84272 4.08641 7.91644C4.08641 8.99016 4.459 9.89962 5.20418 10.6448C5.94937 11.39 6.85883 11.7626 7.93255 11.7626Z" fill="#37474F"/>
</svg>