<svg width="20" height="20" viewBox="0 0 20 20" fill="none" xmlns="http://www.w3.org/2000/svg">
<g id="format_text_wrap_24dp_5F6368_FILL0_wght300_GRAD0_opsz24 1">
<path id="Vector" d="M4.37479 16.25C4.19757 16.25 4.04917 16.1901 3.92958 16.0702C3.80986 15.9505 3.75 15.8021 3.75 15.625V4.375C3.75 4.19792 3.80993 4.04951 3.92979 3.92979C4.04965 3.80993 4.19812 3.75 4.37521 3.75C4.55243 3.75 4.70083 3.80993 4.82042 3.92979C4.94014 4.04951 5 4.19792 5 4.375V15.625C5 15.8021 4.94007 15.9505 4.82021 16.0702C4.70035 16.1901 4.55188 16.25 4.37479 16.25ZM15.6248 16.25C15.4476 16.25 15.2992 16.1901 15.1796 16.0702C15.0599 15.9505 15 15.8021 15 15.625V4.375C15 4.19792 15.0599 4.04951 15.1798 3.92979C15.2997 3.80993 15.4481 3.75 15.6252 3.75C15.8024 3.75 15.9508 3.80993 16.0704 3.92979C16.1901 4.04951 16.25 4.19792 16.25 4.375V15.625C16.25 15.8021 16.1901 15.9505 16.0702 16.0702C15.9503 16.1901 15.8019 16.25 15.6248 16.25ZM8.49354 13.8767L6.81083 12.194C6.66028 12.0433 6.585 11.8675 6.585 11.6667C6.585 11.4658 6.66028 11.2901 6.81083 11.1394L8.51438 9.45667C8.6284 9.34306 8.77097 9.28368 8.94208 9.27854C9.11319 9.2734 9.26118 9.33278 9.38604 9.45667C9.50049 9.57028 9.55771 9.71486 9.55771 9.89042C9.55771 10.066 9.5 10.2115 9.38458 10.3269L8.66979 11.0417H10.721C11.2435 11.0417 11.6867 10.8598 12.0504 10.496C12.4143 10.1323 12.5963 9.68917 12.5963 9.16667C12.5963 8.64417 12.4143 8.20104 12.0504 7.83729C11.6867 7.47354 11.2435 7.29167 10.721 7.29167H6.77896C6.60188 7.29167 6.4534 7.23174 6.33354 7.11188C6.21382 6.99201 6.15396 6.84354 6.15396 6.66646C6.15396 6.48924 6.21382 6.34083 6.33354 6.22125C6.4534 6.10153 6.60188 6.04167 6.77896 6.04167H10.721C11.5844 6.04167 12.321 6.34667 12.931 6.95667C13.541 7.56681 13.846 8.30347 13.846 9.16667C13.846 10.0299 13.541 10.7665 12.931 11.3767C12.321 11.9867 11.5844 12.2917 10.721 12.2917H8.66979L9.38458 13.0065C9.5 13.1205 9.55771 13.2631 9.55771 13.4342C9.55771 13.6051 9.5 13.7526 9.38458 13.8767C9.26069 14.0058 9.11222 14.0691 8.93917 14.0665C8.76611 14.0638 8.61757 14.0006 8.49354 13.8767Z" fill="#212121"/>
</g>
</svg>
