<svg width="32" height="32" viewBox="0 0 32 32" fill="none" xmlns="http://www.w3.org/2000/svg">
<g id="icons/mail outline">
<path id="Vector" d="M5.74352 25.9999C5.07001 25.9999 4.49992 25.7666 4.03325 25.2999C3.56659 24.8333 3.33325 24.2632 3.33325 23.5897V8.41027C3.33325 7.73676 3.56659 7.16667 4.03325 6.7C4.49992 6.23333 5.07001 6 5.74352 6H26.2563C26.9298 6 27.4999 6.23333 27.9665 6.7C28.4332 7.16667 28.6665 7.73676 28.6665 8.41027V23.5897C28.6665 24.2632 28.4332 24.8333 27.9665 25.2999C27.4999 25.7666 26.9298 25.9999 26.2563 25.9999H5.74352ZM26.6666 9.923L16.6486 16.3358C16.546 16.3939 16.4401 16.4397 16.3307 16.473C16.2213 16.5063 16.111 16.523 15.9999 16.523C15.8888 16.523 15.7785 16.5063 15.6691 16.473C15.5597 16.4397 15.4537 16.3939 15.3512 16.3358L5.33322 9.923V23.5897C5.33322 23.7093 5.37169 23.8076 5.44862 23.8846C5.52555 23.9615 5.62385 24 5.74352 24H26.2563C26.3759 24 26.4742 23.9615 26.5512 23.8846C26.6281 23.8076 26.6666 23.7093 26.6666 23.5897V9.923ZM15.9999 14.6666L26.4614 7.99997H5.53835L15.9999 14.6666ZM5.33322 10.2307V8.70637V8.7461V8.7038V10.2307Z" fill="#2196F3"/>
</g>
</svg>
