<svg width="40" height="40" viewBox="0 0 40 40" fill="none" xmlns="http://www.w3.org/2000/svg">
<circle cx="20" cy="20" r="20" fill="#C501E4"/>
<path d="M27.7504 28.8543C25.7873 28.8543 23.8151 28.3979 21.8339 27.4851C19.8528 26.5723 18.0309 25.2846 16.3682 23.6219C14.7122 21.9593 13.4279 20.139 12.5151 18.1612C11.6023 16.1834 11.1459 14.2129 11.1459 12.2498C11.1459 11.9373 11.25 11.6752 11.4584 11.4635C11.6667 11.2518 11.9271 11.146 12.2396 11.146H15.637C15.9001 11.146 16.1322 11.2318 16.3331 11.4034C16.5341 11.575 16.662 11.787 16.7167 12.0394L17.3137 15.1043C17.3551 15.3888 17.3464 15.6332 17.2876 15.8375C17.2289 16.0418 17.1234 16.2134 16.9711 16.3523L14.5653 18.694C14.9526 19.4032 15.395 20.0739 15.8924 20.7063C16.3899 21.3386 16.9284 21.9426 17.508 22.5182C18.0796 23.0898 18.6873 23.6206 19.331 24.1107C19.9747 24.6009 20.6698 25.0569 21.4163 25.4789L23.754 23.1212C23.917 22.9516 24.1143 22.8327 24.346 22.7646C24.5777 22.6965 24.8184 22.6798 25.0681 22.7145L27.9607 23.3034C28.2238 23.3729 28.4385 23.5071 28.6048 23.7061C28.771 23.9051 28.8542 24.1308 28.8542 24.3832V27.7605C28.8542 28.073 28.7483 28.3334 28.5366 28.5418C28.325 28.7501 28.0629 28.8543 27.7504 28.8543Z" fill="white"/>
</svg>
