<svg xmlns="http://www.w3.org/2000/svg" width="33" height="32" viewBox="0 0 33 32" fill="none">
  <path d="M9.56382 26C9.13649 26 8.77326 25.8504 8.47412 25.5512C8.17497 25.2521 8.02539 24.8889 8.02539 24.4615V20.8718C8.02539 20.4445 8.17497 20.0812 8.47412 19.7821C8.77326 19.4829 9.13649 19.3334 9.56382 19.3334C9.99118 19.3334 10.3544 19.4829 10.6536 19.7821C10.9527 20.0812 11.1023 20.4445 11.1023 20.8718V24.4615C11.1023 24.8889 10.9527 25.2521 10.6536 25.5512C10.3544 25.8504 9.99118 26 9.56382 26ZM17.4356 26C17.0083 26 16.645 25.8504 16.3459 25.5512C16.0468 25.2521 15.8972 24.8889 15.8972 24.4615V14.2051C15.8972 13.7778 16.0468 13.4146 16.3459 13.1154C16.645 12.8163 17.0083 12.6667 17.4356 12.6667C17.863 12.6667 18.2262 12.8163 18.5253 13.1154C18.8245 13.4146 18.9741 13.7778 18.9741 14.2051V24.4615C18.9741 24.8889 18.8245 25.2521 18.5253 25.5512C18.2262 25.8504 17.863 26 17.4356 26ZM25.1536 26C24.7262 26 24.363 25.8504 24.0638 25.5512C23.7647 25.2521 23.6151 24.8889 23.6151 24.4615V7.53846C23.6151 7.11113 23.7647 6.7479 24.0638 6.44877C24.363 6.14961 24.7262 6.00003 25.1536 6.00003C25.5809 6.00003 25.9441 6.14961 26.2433 6.44877C26.5424 6.7479 26.692 7.11113 26.692 7.53846V24.4615C26.692 24.8889 26.5424 25.2521 26.2433 25.5512C25.9441 25.8504 25.5809 26 25.1536 26Z" fill="#9721F3"/>
</svg>