<svg width="24" height="24" viewBox="0 0 24 24" fill="none" xmlns="http://www.w3.org/2000/svg">
<mask id="path-1-inside-1_2948_3149" fill="white">
<path d="M5.04348 19C4.74783 19 4.50006 18.9034 4.30017 18.7103C4.10006 18.5172 4 18.278 4 17.9926C4 17.7071 4.10006 17.468 4.30017 17.2753C4.50006 17.0824 4.74783 16.9859 5.04348 16.9859H18.9565C19.2522 16.9859 19.4999 17.0825 19.6998 17.2756C19.8999 17.4687 20 17.708 20 17.9933C20 18.2789 19.8999 18.518 19.6998 18.7106C19.4999 18.9035 19.2522 19 18.9565 19H5.04348ZM12 11.7609L6.33322 6.2917C6.14052 6.10596 5.89832 6.01085 5.60661 6.00638C5.31513 6.00213 5.06852 6.09723 4.86678 6.2917C4.66528 6.4864 4.56452 6.72227 4.56452 6.99931C4.56452 7.27636 4.66528 7.51223 4.86678 7.70692L11.1197 13.7414C11.3712 13.984 11.6647 14.1053 12 14.1053C12.3353 14.1053 12.6288 13.984 12.8803 13.7414L19.1332 7.70692C19.3257 7.52096 19.4242 7.28721 19.4289 7.00569C19.4333 6.72439 19.3347 6.4864 19.1332 6.2917C18.9315 6.09723 18.6871 6 18.4 6C18.1129 6 17.8685 6.09723 17.6668 6.2917L12 11.7609Z"/>
</mask>
<path d="M5.04348 19C4.74783 19 4.50006 18.9034 4.30017 18.7103C4.10006 18.5172 4 18.278 4 17.9926C4 17.7071 4.10006 17.468 4.30017 17.2753C4.50006 17.0824 4.74783 16.9859 5.04348 16.9859H18.9565C19.2522 16.9859 19.4999 17.0825 19.6998 17.2756C19.8999 17.4687 20 17.708 20 17.9933C20 18.2789 19.8999 18.518 19.6998 18.7106C19.4999 18.9035 19.2522 19 18.9565 19H5.04348ZM12 11.7609L6.33322 6.2917C6.14052 6.10596 5.89832 6.01085 5.60661 6.00638C5.31513 6.00213 5.06852 6.09723 4.86678 6.2917C4.66528 6.4864 4.56452 6.72227 4.56452 6.99931C4.56452 7.27636 4.66528 7.51223 4.86678 7.70692L11.1197 13.7414C11.3712 13.984 11.6647 14.1053 12 14.1053C12.3353 14.1053 12.6288 13.984 12.8803 13.7414L19.1332 7.70692C19.3257 7.52096 19.4242 7.28721 19.4289 7.00569C19.4333 6.72439 19.3347 6.4864 19.1332 6.2917C18.9315 6.09723 18.6871 6 18.4 6C18.1129 6 17.8685 6.09723 17.6668 6.2917L12 11.7609Z" fill="#263238"/>
<path d="M4.30017 18.7103L4.43914 18.5665L4.43906 18.5664L4.30017 18.7103ZM4.30017 17.2753L4.43889 17.4194L4.43906 17.4192L4.30017 17.2753ZM19.6998 17.2756L19.5609 17.4195L19.5609 17.4195L19.6998 17.2756ZM19.6998 18.7106L19.5611 18.5666L19.5609 18.5667L19.6998 18.7106ZM12 11.7609L11.8611 11.9048L12 12.0389L12.1389 11.9048L12 11.7609ZM6.33322 6.2917L6.47211 6.1478L6.47202 6.14771L6.33322 6.2917ZM5.60661 6.00638L5.60968 5.8064L5.60953 5.8064L5.60661 6.00638ZM4.86678 6.2917L4.72798 6.14771L4.72781 6.14787L4.86678 6.2917ZM4.86678 7.70692L4.72781 7.85075L4.7279 7.85083L4.86678 7.70692ZM11.1197 13.7414L10.9808 13.8853L10.9808 13.8854L11.1197 13.7414ZM12.8803 13.7414L13.0192 13.8854L13.0192 13.8853L12.8803 13.7414ZM19.1332 7.70692L19.2721 7.85083L19.2722 7.85075L19.1332 7.70692ZM19.4289 7.00569L19.6288 7.00898L19.6288 7.00882L19.4289 7.00569ZM19.1332 6.2917L19.2722 6.14787L19.272 6.14771L19.1332 6.2917ZM17.6668 6.2917L17.528 6.14771L17.5279 6.1478L17.6668 6.2917ZM5.04348 18.8C4.79603 18.8 4.5992 18.7211 4.43914 18.5665L4.1612 18.8541C4.40092 19.0858 4.69962 19.2 5.04348 19.2V18.8ZM4.43906 18.5664C4.27913 18.412 4.2 18.2253 4.2 17.9926H3.8C3.8 18.3306 3.92099 18.6223 4.16129 18.8542L4.43906 18.5664ZM4.2 17.9926C4.2 17.7597 4.27915 17.5732 4.43889 17.4194L4.16146 17.1312C3.92097 17.3628 3.8 17.6544 3.8 17.9926H4.2ZM4.43906 17.4192C4.5991 17.2648 4.79596 17.1859 5.04348 17.1859V16.7859C4.69969 16.7859 4.40102 16.9 4.16129 17.1314L4.43906 17.4192ZM5.04348 17.1859H18.9565V16.7859H5.04348V17.1859ZM18.9565 17.1859C19.204 17.1859 19.4008 17.2648 19.5609 17.4195L19.8388 17.1318C19.5991 16.9002 19.3004 16.7859 18.9565 16.7859V17.1859ZM19.5609 17.4195C19.7209 17.5739 19.8 17.7607 19.8 17.9933H20.2C20.2 17.6553 20.079 17.3636 19.8387 17.1317L19.5609 17.4195ZM19.8 17.9933C19.8 18.2262 19.7209 18.4128 19.5611 18.5666L19.8385 18.8547C20.079 18.6232 20.2 18.3315 20.2 17.9933H19.8ZM19.5609 18.5667C19.4009 18.7212 19.204 18.8 18.9565 18.8V19.2C19.3003 19.2 19.599 19.0859 19.8387 18.8546L19.5609 18.5667ZM18.9565 18.8H5.04348V19.2H18.9565V18.8ZM12.1389 11.617L6.47211 6.1478L6.19433 6.43561L11.8611 11.9048L12.1389 11.617ZM6.47202 6.14771C6.23938 5.92346 5.94711 5.81158 5.60968 5.8064L5.60354 6.20635C5.84952 6.21013 6.04167 6.28846 6.19442 6.4357L6.47202 6.14771ZM5.60953 5.8064C5.26764 5.80141 4.96939 5.915 4.72798 6.14771L5.00559 6.4357C5.16765 6.27947 5.36262 6.20284 5.60369 6.20636L5.60953 5.8064ZM4.72781 6.14787C4.4878 6.37977 4.36452 6.66734 4.36452 6.99931H4.76452C4.76452 6.7772 4.84275 6.59303 5.00575 6.43554L4.72781 6.14787ZM4.36452 6.99931C4.36452 7.33129 4.4878 7.61886 4.72781 7.85075L5.00575 7.56309C4.84275 7.4056 4.76452 7.22143 4.76452 6.99931H4.36452ZM4.7279 7.85083L10.9808 13.8853L11.2585 13.5975L5.00567 7.56301L4.7279 7.85083ZM10.9808 13.8854C11.268 14.1622 11.6105 14.3053 12 14.3053V13.9053C11.7189 13.9053 11.4745 13.8058 11.2585 13.5974L10.9808 13.8854ZM12 14.3053C12.3895 14.3053 12.732 14.1622 13.0192 13.8854L12.7415 13.5974C12.5255 13.8058 12.2811 13.9053 12 13.9053V14.3053ZM13.0192 13.8853L19.2721 7.85083L18.9943 7.56301L12.7415 13.5975L13.0192 13.8853ZM19.2722 7.85075C19.505 7.62581 19.6234 7.34052 19.6288 7.00898L19.2289 7.0024C19.2251 7.23391 19.1464 7.4161 18.9942 7.56309L19.2722 7.85075ZM19.6288 7.00882C19.6341 6.67246 19.5137 6.38118 19.2722 6.14787L18.9943 6.43554C19.1558 6.59161 19.2324 6.77632 19.2289 7.00256L19.6288 7.00882ZM19.272 6.14771C19.032 5.91634 18.7374 5.8 18.4 5.8V6.2C18.6367 6.2 18.831 6.27813 18.9944 6.4357L19.272 6.14771ZM18.4 5.8C18.0626 5.8 17.768 5.91634 17.528 6.14771L17.8056 6.4357C17.969 6.27813 18.1633 6.2 18.4 6.2V5.8ZM17.5279 6.1478L11.8611 11.617L12.1389 11.9048L17.8057 6.43561L17.5279 6.1478Z" fill="#E4E7F2" mask="url(#path-1-inside-1_2948_3149)"/>
</svg>
