<svg width="24" height="24" viewBox="0 0 24 24" fill="none" xmlns="http://www.w3.org/2000/svg">
<g id="icon/signature">
<path id="Vector" d="M14.0748 11.725C15.2915 10.825 16.2415 9.8375 16.9248 8.7625C17.6081 7.6875 17.9498 6.61667 17.9498 5.55C17.9498 5.01667 17.8623 4.625 17.6873 4.375C17.5123 4.125 17.2748 4 16.9748 4C16.1915 4 15.4998 4.6625 14.8998 5.9875C14.2998 7.3125 13.9998 8.80833 13.9998 10.475C13.9998 10.7083 14.004 10.9292 14.0123 11.1375C14.0206 11.3458 14.0415 11.5417 14.0748 11.725ZM4.0998 16.3C3.91647 16.4833 3.68314 16.575 3.3998 16.575C3.11647 16.575 2.88314 16.4833 2.6998 16.3C2.51647 16.1167 2.4248 15.8833 2.4248 15.6C2.4248 15.3167 2.51647 15.0833 2.6998 14.9L3.5998 14L2.6998 13.1C2.51647 12.9167 2.4248 12.6833 2.4248 12.4C2.4248 12.1167 2.51647 11.8833 2.6998 11.7C2.88314 11.5167 3.11647 11.425 3.3998 11.425C3.68314 11.425 3.91647 11.5167 4.0998 11.7L4.9998 12.6L5.8998 11.7C6.08314 11.5167 6.31647 11.425 6.5998 11.425C6.88314 11.425 7.11647 11.5167 7.2998 11.7C7.48314 11.8833 7.5748 12.1167 7.5748 12.4C7.5748 12.6833 7.48314 12.9167 7.2998 13.1L6.3998 14L7.2998 14.9C7.48314 15.0833 7.5748 15.3167 7.5748 15.6C7.5748 15.8833 7.48314 16.1167 7.2998 16.3C7.11647 16.4833 6.88314 16.575 6.5998 16.575C6.31647 16.575 6.08314 16.4833 5.8998 16.3L4.9998 15.4L4.0998 16.3ZM15.4498 16C14.9498 16 14.4915 15.9042 14.0748 15.7125C13.6581 15.5208 13.2998 15.2083 12.9998 14.775C12.7331 14.9083 12.4581 15.0417 12.1748 15.175L11.3248 15.575C11.0581 15.6917 10.7956 15.6958 10.5373 15.5875C10.279 15.4792 10.0998 15.2917 9.9998 15.025C9.8998 14.7583 9.9123 14.5 10.0373 14.25C10.1623 14 10.3581 13.8167 10.6248 13.7C10.9081 13.5667 11.1831 13.4375 11.4498 13.3125C11.7165 13.1875 11.9748 13.0583 12.2248 12.925C12.1415 12.5583 12.079 12.1583 12.0373 11.725C11.9956 11.2917 11.9748 10.825 11.9748 10.325C11.9748 7.925 12.4498 5.9375 13.3998 4.3625C14.3498 2.7875 15.5415 2 16.9748 2C17.8415 2 18.5498 2.32083 19.0998 2.9625C19.6498 3.60417 19.9248 4.5 19.9248 5.65C19.9248 7.08333 19.4706 8.5 18.5623 9.9C17.654 11.3 16.3915 12.5583 14.7748 13.675C14.8915 13.7917 15.0123 13.8792 15.1373 13.9375C15.2623 13.9958 15.3915 14.025 15.5248 14.025C15.8748 14.025 16.2831 13.8333 16.7498 13.45C17.2165 13.0667 17.6665 12.55 18.0998 11.9C18.2665 11.6667 18.479 11.5042 18.7373 11.4125C18.9956 11.3208 19.2498 11.3333 19.4998 11.45C19.7498 11.5833 19.9331 11.7792 20.0498 12.0375C20.1665 12.2958 20.1998 12.5667 20.1498 12.85C20.1165 13.05 20.0998 13.2417 20.0998 13.425C20.0998 13.6083 20.1248 13.7833 20.1748 13.95C20.2581 13.9167 20.354 13.8625 20.4623 13.7875C20.5706 13.7125 20.6831 13.6167 20.7998 13.5C20.9998 13.3167 21.2373 13.2125 21.5123 13.1875C21.7873 13.1625 22.0331 13.2333 22.2498 13.4C22.4831 13.5833 22.6081 13.8083 22.6248 14.075C22.6415 14.3417 22.5581 14.5667 22.3748 14.75C21.9915 15.1333 21.5873 15.4375 21.1623 15.6625C20.7373 15.8875 20.3331 16 19.9498 16C19.5998 16 19.2873 15.8958 19.0123 15.6875C18.7373 15.4792 18.5081 15.1583 18.3248 14.725C17.8581 15.1417 17.3831 15.4583 16.8998 15.675C16.4165 15.8917 15.9331 16 15.4498 16ZM3.9998 21C3.71647 21 3.47897 20.9042 3.2873 20.7125C3.09564 20.5208 2.9998 20.2833 2.9998 20C2.9998 19.7167 3.09564 19.4792 3.2873 19.2875C3.47897 19.0958 3.71647 19 3.9998 19C4.28314 19 4.52064 19.0958 4.7123 19.2875C4.90397 19.4792 4.9998 19.7167 4.9998 20C4.9998 20.2833 4.90397 20.5208 4.7123 20.7125C4.52064 20.9042 4.28314 21 3.9998 21ZM7.9998 21C7.71647 21 7.47897 20.9042 7.2873 20.7125C7.09564 20.5208 6.9998 20.2833 6.9998 20C6.9998 19.7167 7.09564 19.4792 7.2873 19.2875C7.47897 19.0958 7.71647 19 7.9998 19C8.28314 19 8.52064 19.0958 8.7123 19.2875C8.90397 19.4792 8.9998 19.7167 8.9998 20C8.9998 20.2833 8.90397 20.5208 8.7123 20.7125C8.52064 20.9042 8.28314 21 7.9998 21ZM11.9998 21C11.7165 21 11.479 20.9042 11.2873 20.7125C11.0956 20.5208 10.9998 20.2833 10.9998 20C10.9998 19.7167 11.0956 19.4792 11.2873 19.2875C11.479 19.0958 11.7165 19 11.9998 19C12.2831 19 12.5206 19.0958 12.7123 19.2875C12.904 19.4792 12.9998 19.7167 12.9998 20C12.9998 20.2833 12.904 20.5208 12.7123 20.7125C12.5206 20.9042 12.2831 21 11.9998 21ZM15.9998 21C15.7165 21 15.479 20.9042 15.2873 20.7125C15.0956 20.5208 14.9998 20.2833 14.9998 20C14.9998 19.7167 15.0956 19.4792 15.2873 19.2875C15.479 19.0958 15.7165 19 15.9998 19C16.2831 19 16.5206 19.0958 16.7123 19.2875C16.904 19.4792 16.9998 19.7167 16.9998 20C16.9998 20.2833 16.904 20.5208 16.7123 20.7125C16.5206 20.9042 16.2831 21 15.9998 21ZM19.9998 21C19.7165 21 19.479 20.9042 19.2873 20.7125C19.0956 20.5208 18.9998 20.2833 18.9998 20C18.9998 19.7167 19.0956 19.4792 19.2873 19.2875C19.479 19.0958 19.7165 19 19.9998 19C20.2831 19 20.5206 19.0958 20.7123 19.2875C20.904 19.4792 20.9998 19.7167 20.9998 20C20.9998 20.2833 20.904 20.5208 20.7123 20.7125C20.5206 20.9042 20.2831 21 19.9998 21Z" fill="#212121"/>
</g>
</svg>
