<svg width="20" height="20" viewBox="0 0 20 20" fill="none" xmlns="http://www.w3.org/2000/svg">
<path d="M3.33348 13.9589C3.15639 13.9589 3.00796 13.899 2.88818 13.7792C2.76839 13.6593 2.7085 13.5108 2.7085 13.3337C2.7085 13.1565 2.76839 13.0081 2.88818 12.8885C3.00796 12.7688 3.15639 12.709 3.33348 12.709H11.6668C11.8439 12.709 11.9923 12.7689 12.1121 12.8887C12.2319 13.0086 12.2918 13.1571 12.2918 13.3342C12.2918 13.5114 12.2319 13.6598 12.1121 13.7795C11.9923 13.8991 11.8439 13.9589 11.6668 13.9589H3.33348ZM3.33348 7.29228C3.15639 7.29228 3.00796 7.23236 2.88818 7.11253C2.76839 6.99268 2.7085 6.84418 2.7085 6.66703C2.7085 6.48986 2.76839 6.34145 2.88818 6.2218C3.00796 6.10215 3.15639 6.04232 3.33348 6.04232H11.6668C11.8439 6.04232 11.9923 6.10224 12.1121 6.22207C12.2319 6.34192 12.2918 6.49042 12.2918 6.66757C12.2918 6.84474 12.2319 6.99314 12.1121 7.1128C11.9923 7.23245 11.8439 7.29228 11.6668 7.29228H3.33348ZM3.33348 10.6256C3.15639 10.6256 3.00796 10.5657 2.88818 10.4459C2.76839 10.326 2.7085 10.1775 2.7085 10.0004C2.7085 9.82319 2.76839 9.67478 2.88818 9.55513C3.00796 9.43548 3.15639 9.37565 3.33348 9.37565H16.6668C16.8439 9.37565 16.9923 9.43557 17.1121 9.5554C17.2319 9.67525 17.2918 9.82375 17.2918 10.0009C17.2918 10.1781 17.2319 10.3265 17.1121 10.4461C16.9923 10.5658 16.8439 10.6256 16.6668 10.6256H3.33348ZM3.33348 17.2923C3.15639 17.2923 3.00796 17.2324 2.88818 17.1125C2.76839 16.9927 2.7085 16.8442 2.7085 16.667C2.7085 16.4899 2.76839 16.3415 2.88818 16.2218C3.00796 16.1021 3.15639 16.0423 3.33348 16.0423H16.6668C16.8439 16.0423 16.9923 16.1022 17.1121 16.2221C17.2319 16.3419 17.2918 16.4904 17.2918 16.6676C17.2918 16.8447 17.2319 16.9931 17.1121 17.1128C16.9923 17.2325 16.8439 17.2923 16.6668 17.2923H3.33348ZM3.33348 3.95894C3.15639 3.95894 3.00796 3.89903 2.88818 3.77919C2.76839 3.65935 2.7085 3.51085 2.7085 3.33369C2.7085 3.15653 2.76839 3.00812 2.88818 2.88846C3.00796 2.76881 3.15639 2.70898 3.33348 2.70898H16.6668C16.8439 2.70898 16.9923 2.7689 17.1121 2.88874C17.2319 3.00858 17.2918 3.15708 17.2918 3.33423C17.2918 3.5114 17.2319 3.65981 17.1121 3.77946C16.9923 3.89912 16.8439 3.95894 16.6668 3.95894H3.33348Z" fill="black"/>
</svg>
