<svg xmlns="http://www.w3.org/2000/svg" width="24" height="25" viewBox="0 0 24 25" fill="none">
<path d="M11.0963 19.2868L4.64052 12.831C4.54693 12.7374 4.48091 12.6387 4.44244 12.5349C4.40399 12.431 4.38477 12.3189 4.38477 12.1983C4.38477 12.0778 4.40399 11.9656 4.44244 11.8618C4.48091 11.758 4.54693 11.6592 4.64052 11.5657L11.1059 5.10029C11.2444 4.96182 11.4142 4.89002 11.6155 4.88489C11.8168 4.87977 11.995 4.95477 12.1501 5.10989C12.3052 5.25476 12.3854 5.42783 12.3905 5.62911C12.3956 5.83038 12.3206 6.00858 12.1655 6.16371L6.88084 11.4484H18.4886C18.7014 11.4484 18.8796 11.5202 19.0232 11.6637C19.1667 11.8073 19.2385 11.9855 19.2385 12.1983C19.2385 12.4112 19.1667 12.5894 19.0232 12.7329C18.8796 12.8765 18.7014 12.9483 18.4886 12.9483H6.88084L12.1751 18.2426C12.3136 18.381 12.3854 18.5535 12.3905 18.7599C12.3956 18.9663 12.3206 19.1419 12.1655 19.2868C12.0206 19.4419 11.845 19.5195 11.6386 19.5195C11.4322 19.5195 11.2514 19.4419 11.0963 19.2868Z" fill="#263238"/>
</svg>
