<svg width="16" height="16" viewBox="0 0 16 16" fill="none" xmlns="http://www.w3.org/2000/svg">
<path d="M7.38573 15.5C7.13445 15.5 6.92419 15.4153 6.75496 15.2461C6.58573 15.0769 6.50111 14.8666 6.50111 14.6153V8.82687L0.903059 1.71537C0.710759 1.45896 0.682876 1.19229 0.819409 0.915375C0.955942 0.638458 1.18638 0.5 1.51073 0.5H14.4914C14.8158 0.5 15.0462 0.638458 15.1828 0.915375C15.3193 1.19229 15.2914 1.45896 15.0991 1.71537L9.50106 8.82687V14.6153C9.50106 14.8666 9.41644 15.0769 9.24721 15.2461C9.07798 15.4153 8.86772 15.5 8.61643 15.5H7.38573Z" fill="#90A4AE"/>
</svg>
