<svg width="26" height="26" viewBox="0 0 26 26" fill="none" xmlns="http://www.w3.org/2000/svg">
<path d="M13.0009 25.6653C11.249 25.6653 9.60228 25.335 8.06076 24.6744C6.51923 24.0138 5.17619 23.1114 4.03163 21.9674C2.88705 20.8233 1.98431 19.4808 1.3234 17.94C0.662487 16.3992 0.332031 14.7528 0.332031 13.0009C0.332031 11.249 0.662398 9.60228 1.32313 8.06076C1.98386 6.51923 2.88636 5.17619 4.03063 4.03163C5.1749 2.88705 6.51759 1.98431 8.0587 1.3234C9.59979 0.662487 11.2464 0.332031 12.9987 0.332031C14.4015 0.332031 15.7279 0.54272 16.9777 0.964098C18.2276 1.38548 19.373 1.96881 20.414 2.7141L18.9705 4.1833C18.1192 3.59696 17.192 3.14269 16.1887 2.82046C15.1855 2.49824 14.1222 2.33713 12.9987 2.33713C10.0448 2.33713 7.52943 3.37559 5.4525 5.4525C3.37559 7.52943 2.33713 10.0448 2.33713 12.9987C2.33713 15.9525 3.37559 18.4679 5.4525 20.5448C7.52943 22.6217 10.0448 23.6602 12.9987 23.6602C15.9525 23.6602 18.4679 22.6217 20.5448 20.5448C22.6217 18.4679 23.6602 15.9525 23.6602 12.9987C23.6602 12.5098 23.6286 12.0406 23.5653 11.591C23.5021 11.1415 23.4115 10.7013 23.2935 10.2704L24.8935 8.65763C25.1465 9.33799 25.3384 10.0389 25.4691 10.7603C25.5999 11.4817 25.6653 12.2278 25.6653 12.9987C25.6653 14.7509 25.335 16.3975 24.6744 17.9386C24.0138 19.4797 23.1114 20.8224 21.9674 21.9667C20.8233 23.111 19.4808 24.0135 17.94 24.6742C16.3992 25.3349 14.7528 25.6653 13.0009 25.6653ZM11.114 18.6371L5.9141 13.4166L7.32943 11.9885L11.1346 15.7936L24.2371 2.69103L25.6653 4.08586L11.114 18.6371Z" fill="white"/>
</svg>
