<svg width="858" height="220" viewBox="0 0 858 220" fill="none" xmlns="http://www.w3.org/2000/svg">
<rect x="288.151" y="35.7568" width="47" height="85" rx="23.5" transform="rotate(113.421 288.151 35.7568)" fill="#F2F6FB"/>
<rect x="204.624" y="39.8956" width="27" height="65" rx="13.5" transform="rotate(-66.5791 204.624 39.8956)" fill="#FEFEFF" stroke="url(#paint0_linear_2159_66812)" stroke-width="3"/>
<rect x="288.151" y="35.7568" width="47" height="85" rx="23.5" transform="rotate(113.421 288.151 35.7568)" stroke="url(#paint1_linear_2159_66812)" stroke-width="3"/>
<rect x="1.97264" y="0.78019" width="47" height="85" rx="23.5" transform="matrix(0.397483 0.91761 0.91761 -0.397483 568.349 34.2568)" fill="#F2F6FB"/>
<rect x="-1.97264" y="-0.78019" width="27" height="65" rx="13.5" transform="matrix(-0.397483 -0.91761 -0.91761 0.397483 651.876 38.3956)" fill="#FEFEFF" stroke="url(#paint2_linear_2159_66812)" stroke-width="3"/>
<rect x="1.97264" y="0.78019" width="47" height="85" rx="23.5" transform="matrix(0.397483 0.91761 0.91761 -0.397483 568.349 34.2568)" stroke="url(#paint3_linear_2159_66812)" stroke-width="3"/>
<rect x="391" y="26.5" width="47" height="85" rx="23.5" transform="rotate(90 391 26.5)" fill="#F2F6FB"/>
<rect x="316" y="63.5" width="27" height="65" rx="13.5" transform="rotate(-90 316 63.5)" fill="#FEFEFF" stroke="url(#paint4_linear_2159_66812)" stroke-width="3"/>
<rect x="391" y="26.5" width="47" height="85" rx="23.5" transform="rotate(90 391 26.5)" stroke="url(#paint5_linear_2159_66812)" stroke-width="3"/>
<rect x="1.5" y="1.5" width="47" height="85" rx="23.5" transform="matrix(4.37114e-08 1 1 -4.37114e-08 465.5 25)" fill="#F2F6FB"/>
<rect x="-1.5" y="-1.5" width="27" height="65" rx="13.5" transform="matrix(-1.31134e-07 -1 -1 1.31134e-07 540.5 62)" fill="#FEFEFF" stroke="url(#paint6_linear_2159_66812)" stroke-width="3"/>
<rect x="1.5" y="1.5" width="47" height="85" rx="23.5" transform="matrix(4.37114e-08 1 1 -4.37114e-08 465.5 25)" stroke="url(#paint7_linear_2159_66812)" stroke-width="3"/>
<rect x="338" y="43.5" width="13" height="85" rx="6.5" transform="rotate(90 338 43.5)" fill="#F2F6FB"/>
<rect x="338" y="43.5" width="13" height="85" rx="6.5" transform="rotate(90 338 43.5)" stroke="url(#paint8_linear_2159_66812)" stroke-width="3"/>
<rect x="1.5" y="1.5" width="13" height="85" rx="6.5" transform="matrix(4.37114e-08 1 1 -4.37114e-08 518.5 42)" fill="#F2F6FB"/>
<rect x="1.5" y="1.5" width="13" height="85" rx="6.5" transform="matrix(4.37114e-08 1 1 -4.37114e-08 518.5 42)" stroke="url(#paint9_linear_2159_66812)" stroke-width="3"/>
<path d="M409.5 43.5C417.002 43.5 423.173 49.1967 423.923 56.5L381.5 56.5C377.91 56.5 375 53.5898 375 50C375 46.4101 377.91 43.5 381.5 43.5L409.5 43.5Z" fill="#F2F6FB"/>
<path d="M409.5 43.5C417.002 43.5 423.173 49.1967 423.923 56.5L381.5 56.5C377.91 56.5 375 53.5898 375 50C375 46.4101 377.91 43.5 381.5 43.5L409.5 43.5Z" stroke="url(#paint10_linear_2159_66812)" stroke-width="3"/>
<path d="M422.631 76.1322C423.921 74.8427 425.832 74.5531 427.4 75.2637L416.547 86.1172C416.008 86.6558 415.135 86.6558 414.596 86.1172C414.058 85.5787 414.058 84.7056 414.596 84.167L422.631 76.1322Z" fill="#F2F6FB"/>
<path d="M422.631 76.1322C423.921 74.8427 425.832 74.5531 427.4 75.2637L416.547 86.1172C416.008 86.6558 415.135 86.6558 414.596 86.1172C414.058 85.5787 414.058 84.7056 414.596 84.167L422.631 76.1322Z" stroke="url(#paint11_linear_2159_66812)" stroke-width="2.87901"/>
<path d="M446.616 20.9893C445.965 23.4176 443.786 25.0279 441.39 25.0619L445.22 10.7701C445.505 9.70487 446.6 9.07273 447.665 9.35815C448.731 9.64357 449.363 10.7385 449.077 11.8037L446.616 20.9893Z" fill="#F2F6FB"/>
<path d="M446.616 20.9893C445.965 23.4176 443.786 25.0279 441.39 25.0619L445.22 10.7701C445.505 9.70487 446.6 9.07273 447.665 9.35815C448.731 9.64357 449.363 10.7385 449.077 11.8037L446.616 20.9893Z" stroke="url(#paint12_linear_2159_66812)" stroke-width="3"/>
<path d="M451.81 72.2517C452.519 73.4213 452.451 74.8446 451.753 75.92L448.098 69.8902C447.819 69.4297 447.966 68.8302 448.427 68.5511C448.887 68.2719 449.487 68.4189 449.766 68.8794L451.81 72.2517Z" fill="#F2F6FB"/>
<path d="M451.81 72.2517C452.519 73.4213 452.451 74.8446 451.753 75.92L448.098 69.8902C447.819 69.4297 447.966 68.8302 448.427 68.5511C448.887 68.2719 449.487 68.4189 449.766 68.8794L451.81 72.2517Z" stroke="url(#paint13_linear_2159_66812)" stroke-width="2.47497"/>
<path d="M455.5 56.5C447.998 56.5 441.827 50.8033 441.077 43.5L483.5 43.5C487.09 43.5 490 46.4102 490 50C490 53.5899 487.09 56.5 483.5 56.5L455.5 56.5Z" fill="#F2F6FB"/>
<path d="M455.5 56.5C447.998 56.5 441.827 50.8033 441.077 43.5L483.5 43.5C487.09 43.5 490 46.4102 490 50C490 53.5899 487.09 56.5 483.5 56.5L455.5 56.5Z" stroke="url(#paint14_linear_2159_66812)" stroke-width="3"/>
<path d="M327.523 166.211V152.675H332.371V150.203H319.867V152.675H324.715V166.211H327.523ZM345.047 166.211V158.003C345.047 155.627 343.799 154.331 341.303 154.331C339.479 154.331 337.967 155.291 337.199 156.203V150.203H334.679V166.211H337.199V158.123C337.799 157.331 338.903 156.563 340.175 156.563C341.591 156.563 342.527 157.115 342.527 158.915V166.211H345.047ZM349.568 153.203C350.432 153.203 351.128 152.507 351.128 151.643C351.128 150.779 350.432 150.083 349.568 150.083C348.728 150.083 348.008 150.779 348.008 151.643C348.008 152.507 348.728 153.203 349.568 153.203ZM350.84 166.211V154.619H348.32V166.211H350.84ZM358.069 166.499C361.189 166.499 362.893 164.939 362.893 162.899C362.893 158.291 355.885 159.827 355.885 157.763C355.885 156.947 356.725 156.347 358.045 156.347C359.485 156.347 360.781 156.947 361.477 157.739L362.533 155.963C361.477 155.027 359.989 154.331 358.021 154.331C355.093 154.331 353.461 155.963 353.461 157.859C353.461 162.299 360.469 160.667 360.469 162.947C360.469 163.859 359.701 164.507 358.189 164.507C356.677 164.507 355.069 163.715 354.253 162.875L353.101 164.699C354.301 165.875 356.101 166.499 358.069 166.499ZM378.601 166.499C383.233 166.499 385.513 163.859 385.513 159.875V150.203H382.681V159.803C382.681 162.347 381.265 164.003 378.601 164.003C375.913 164.003 374.497 162.347 374.497 159.803V150.203H371.665V159.899C371.665 163.835 373.945 166.499 378.601 166.499ZM401.299 166.211L397.387 159.923C399.307 159.611 401.179 158.075 401.179 155.219C401.179 152.267 399.115 150.203 395.947 150.203H388.915V166.211H391.723V160.235H394.507L398.059 166.211H401.299ZM395.563 157.763H391.723V152.675H395.563C397.147 152.675 398.299 153.683 398.299 155.219C398.299 156.755 397.147 157.763 395.563 157.763ZM413.849 166.211V163.739H406.793V150.203H403.985V166.211H413.849ZM423.724 153.203C424.588 153.203 425.284 152.507 425.284 151.643C425.284 150.779 424.588 150.083 423.724 150.083C422.884 150.083 422.164 150.779 422.164 151.643C422.164 152.507 422.884 153.203 423.724 153.203ZM424.996 166.211V154.619H422.476V166.211H424.996ZM432.225 166.499C435.345 166.499 437.049 164.939 437.049 162.899C437.049 158.291 430.041 159.827 430.041 157.763C430.041 156.947 430.881 156.347 432.201 156.347C433.641 156.347 434.937 156.947 435.633 157.739L436.689 155.963C435.633 155.027 434.145 154.331 432.177 154.331C429.249 154.331 427.617 155.963 427.617 157.859C427.617 162.299 434.625 160.667 434.625 162.947C434.625 163.859 433.857 164.507 432.345 164.507C430.833 164.507 429.225 163.715 428.409 162.875L427.257 164.699C428.457 165.875 430.257 166.499 432.225 166.499ZM446.997 153.203C447.861 153.203 448.557 152.507 448.557 151.643C448.557 150.779 447.861 150.083 446.997 150.083C446.157 150.083 445.437 150.779 445.437 151.643C445.437 152.507 446.157 153.203 446.997 153.203ZM448.269 166.211V154.619H445.749V166.211H448.269ZM461.882 166.211V158.051C461.882 155.675 460.634 154.331 458.138 154.331C456.314 154.331 454.826 155.291 454.058 156.203V154.619H451.538V166.211H454.058V158.123C454.634 157.331 455.738 156.563 457.034 156.563C458.45 156.563 459.362 157.163 459.362 158.963V166.211H461.882ZM470.435 166.499C472.691 166.499 474.059 165.539 474.875 164.435L473.219 162.899C472.571 163.787 471.683 164.267 470.555 164.267C468.443 164.267 467.051 162.659 467.051 160.403C467.051 158.147 468.443 156.563 470.555 156.563C471.683 156.563 472.571 157.019 473.219 157.931L474.875 156.395C474.059 155.291 472.691 154.331 470.435 154.331C466.907 154.331 464.435 156.899 464.435 160.403C464.435 163.931 466.907 166.499 470.435 166.499ZM482.317 166.499C486.037 166.499 488.293 163.739 488.293 160.403C488.293 157.091 486.037 154.331 482.317 154.331C478.645 154.331 476.365 157.091 476.365 160.403C476.365 163.739 478.645 166.499 482.317 166.499ZM482.317 164.267C480.181 164.267 478.981 162.467 478.981 160.403C478.981 158.363 480.181 156.563 482.317 156.563C484.477 156.563 485.677 158.363 485.677 160.403C485.677 162.467 484.477 164.267 482.317 164.267ZM493.363 166.211V158.315C493.867 157.499 495.283 156.779 496.339 156.779C496.651 156.779 496.915 156.803 497.131 156.851V154.355C495.619 154.355 494.227 155.219 493.363 156.323V154.619H490.843V166.211H493.363ZM501.683 166.211V158.315C502.187 157.499 503.603 156.779 504.659 156.779C504.971 156.779 505.235 156.803 505.451 156.851V154.355C503.939 154.355 502.547 155.219 501.683 156.323V154.619H499.163V166.211H501.683ZM512.836 166.499C514.684 166.499 516.388 165.923 517.54 164.819L516.388 163.163C515.572 163.979 514.228 164.435 513.1 164.435C510.916 164.435 509.596 162.995 509.404 161.243H518.356V160.643C518.356 156.995 516.124 154.331 512.644 154.331C509.212 154.331 506.764 157.043 506.764 160.403C506.764 164.075 509.356 166.499 512.836 166.499ZM515.908 159.467H509.38C509.5 158.051 510.484 156.395 512.644 156.395C514.924 156.395 515.86 158.099 515.908 159.467ZM526.123 166.499C528.379 166.499 529.747 165.539 530.563 164.435L528.907 162.899C528.259 163.787 527.371 164.267 526.243 164.267C524.131 164.267 522.739 162.659 522.739 160.403C522.739 158.147 524.131 156.563 526.243 156.563C527.371 156.563 528.259 157.019 528.907 157.931L530.563 156.395C529.747 155.291 528.379 154.331 526.123 154.331C522.595 154.331 520.123 156.899 520.123 160.403C520.123 163.931 522.595 166.499 526.123 166.499ZM536.253 166.499C537.429 166.499 538.173 166.187 538.629 165.755L538.029 163.859C537.837 164.075 537.381 164.267 536.901 164.267C536.181 164.267 535.797 163.691 535.797 162.899V156.827H538.149V154.619H535.797V151.451H533.277V154.619H531.357V156.827H533.277V163.523C533.277 165.443 534.309 166.499 536.253 166.499Z" fill="#303030"/>
<path d="M241.294 213.211V203.723H244.686V202.539H236.59V203.723H239.966V213.211H241.294ZM252.835 213.211V207.755C252.835 206.075 251.987 205.291 250.371 205.291C249.203 205.291 248.147 205.963 247.603 206.603V202.539H246.403V213.211H247.603V207.563C248.067 206.939 248.963 206.363 249.891 206.363C250.931 206.363 251.635 206.763 251.635 208.123V213.211H252.835ZM258.719 213.403C259.983 213.403 261.023 212.987 261.791 212.219L261.215 211.435C260.607 212.059 259.711 212.411 258.831 212.411C257.167 212.411 256.143 211.195 256.047 209.739H262.303V209.435C262.303 207.115 260.927 205.291 258.591 205.291C256.383 205.291 254.783 207.099 254.783 209.339C254.783 211.755 256.431 213.403 258.719 213.403ZM261.119 208.859H256.047C256.111 207.675 256.927 206.283 258.575 206.283C260.335 206.283 261.103 207.707 261.119 208.859ZM269.572 213.211V207.739C269.924 207.115 270.932 206.507 271.668 206.507C271.86 206.507 272.004 206.523 272.148 206.555V205.323C271.092 205.323 270.196 205.915 269.572 206.731V205.483H268.372V213.211H269.572ZM277.141 213.403C278.405 213.403 279.445 212.987 280.213 212.219L279.637 211.435C279.029 212.059 278.133 212.411 277.253 212.411C275.589 212.411 274.565 211.195 274.469 209.739H280.725V209.435C280.725 207.115 279.349 205.291 277.013 205.291C274.805 205.291 273.205 207.099 273.205 209.339C273.205 211.755 274.853 213.403 277.141 213.403ZM279.541 208.859H274.469C274.533 207.675 275.349 206.283 276.997 206.283C278.757 206.283 279.525 207.707 279.541 208.859ZM285.901 212.331C284.349 212.331 283.437 211.051 283.437 209.339C283.437 207.627 284.349 206.363 285.901 206.363C286.861 206.363 287.805 206.923 288.205 207.595V211.083C287.805 211.755 286.861 212.331 285.901 212.331ZM285.613 213.403C286.653 213.403 287.581 212.907 288.205 212.043V216.155H289.405V205.483H288.205V206.635C287.661 205.851 286.701 205.291 285.613 205.291C283.581 205.291 282.173 206.827 282.173 209.339C282.173 211.835 283.581 213.403 285.613 213.403ZM298.241 213.211V205.483H297.041V211.163C296.593 211.787 295.697 212.331 294.753 212.331C293.713 212.331 293.025 211.931 293.025 210.571V205.483H291.825V210.939C291.825 212.619 292.673 213.403 294.289 213.403C295.441 213.403 296.449 212.795 297.041 212.123V213.211H298.241ZM301.838 213.211V207.739C302.19 207.115 303.198 206.507 303.934 206.507C304.126 206.507 304.27 206.523 304.414 206.555V205.323C303.358 205.323 302.462 205.915 301.838 206.731V205.483H300.638V213.211H301.838ZM309.407 213.403C310.671 213.403 311.711 212.987 312.479 212.219L311.903 211.435C311.295 212.059 310.399 212.411 309.519 212.411C307.855 212.411 306.831 211.195 306.735 209.739H312.991V209.435C312.991 207.115 311.615 205.291 309.279 205.291C307.071 205.291 305.471 207.099 305.471 209.339C305.471 211.755 307.119 213.403 309.407 213.403ZM311.807 208.859H306.735C306.799 207.675 307.615 206.283 309.263 206.283C311.023 206.283 311.791 207.707 311.807 208.859ZM317.382 213.403C319.382 213.403 320.422 212.363 320.422 211.067C320.422 208.059 315.638 209.179 315.638 207.483C315.638 206.795 316.294 206.267 317.35 206.267C318.342 206.267 319.19 206.683 319.654 207.243L320.214 206.411C319.59 205.787 318.662 205.291 317.35 205.291C315.51 205.291 314.47 206.315 314.47 207.515C314.47 210.379 319.254 209.227 319.254 211.099C319.254 211.867 318.614 212.427 317.43 212.427C316.374 212.427 315.398 211.915 314.886 211.323L314.262 212.187C315.046 213.019 316.118 213.403 317.382 213.403ZM324.324 213.403C325.028 213.403 325.46 213.195 325.764 212.907L325.412 212.011C325.252 212.187 324.932 212.331 324.596 212.331C324.068 212.331 323.812 211.915 323.812 211.339V206.539H325.38V205.483H323.812V203.371H322.612V205.483H321.332V206.539H322.612V211.595C322.612 212.747 323.188 213.403 324.324 213.403ZM330.563 213.403C331.827 213.403 332.867 212.987 333.635 212.219L333.059 211.435C332.451 212.059 331.555 212.411 330.675 212.411C329.011 212.411 327.987 211.195 327.891 209.739H334.147V209.435C334.147 207.115 332.771 205.291 330.435 205.291C328.227 205.291 326.627 207.099 326.627 209.339C326.627 211.755 328.275 213.403 330.563 213.403ZM332.963 208.859H327.891C327.955 207.675 328.771 206.283 330.419 206.283C332.179 206.283 332.947 207.707 332.963 208.859ZM342.891 213.211V202.539H341.691V206.651C341.067 205.803 340.123 205.291 339.083 205.291C337.051 205.291 335.643 206.891 335.643 209.355C335.643 211.867 337.067 213.403 339.083 213.403C340.171 213.403 341.115 212.843 341.691 212.059V213.211H342.891ZM339.371 212.331C337.819 212.331 336.891 211.067 336.891 209.355C336.891 207.643 337.819 206.363 339.371 206.363C340.331 206.363 341.259 206.939 341.691 207.611V211.115C341.259 211.787 340.331 212.331 339.371 212.331ZM353.227 213.403C355.259 213.403 356.667 211.835 356.667 209.339C356.667 206.827 355.259 205.291 353.227 205.291C352.139 205.291 351.179 205.851 350.619 206.635V205.483H349.419V216.155H350.619V212.043C351.243 212.907 352.171 213.403 353.227 213.403ZM352.923 212.331C351.979 212.331 351.035 211.755 350.619 211.083V207.595C351.035 206.923 351.979 206.363 352.923 206.363C354.475 206.363 355.403 207.627 355.403 209.339C355.403 211.051 354.475 212.331 352.923 212.331ZM364.607 213.211V207.899C364.607 206.027 363.247 205.291 361.615 205.291C360.351 205.291 359.359 205.707 358.527 206.571L359.087 207.403C359.775 206.667 360.527 206.331 361.455 206.331C362.575 206.331 363.407 206.923 363.407 207.963V209.355C362.783 208.635 361.903 208.299 360.847 208.299C359.535 208.299 358.143 209.115 358.143 210.843C358.143 212.523 359.535 213.403 360.847 213.403C361.887 213.403 362.767 213.035 363.407 212.331V213.211H364.607ZM361.279 212.539C360.159 212.539 359.375 211.835 359.375 210.859C359.375 209.867 360.159 209.163 361.279 209.163C362.127 209.163 362.943 209.483 363.407 210.123V211.579C362.943 212.219 362.127 212.539 361.279 212.539ZM370.117 216.347C372.005 216.347 373.797 215.547 373.797 212.987V205.483H372.597V206.651C371.973 205.803 371.045 205.291 370.005 205.291C367.973 205.291 366.565 206.827 366.565 209.307C366.565 211.803 367.989 213.307 370.005 213.307C371.093 213.307 372.037 212.715 372.597 211.931V213.035C372.597 214.731 371.397 215.355 370.117 215.355C369.013 215.355 368.245 215.067 367.605 214.299L366.997 215.195C367.909 216.091 368.805 216.347 370.117 216.347ZM370.293 212.251C368.741 212.251 367.812 211.003 367.812 209.307C367.812 207.595 368.741 206.363 370.293 206.363C371.253 206.363 372.181 206.939 372.597 207.611V210.987C372.181 211.659 371.253 212.251 370.293 212.251ZM379.688 213.403C380.952 213.403 381.992 212.987 382.76 212.219L382.184 211.435C381.576 212.059 380.68 212.411 379.8 212.411C378.136 212.411 377.112 211.195 377.016 209.739H383.272V209.435C383.272 207.115 381.896 205.291 379.56 205.291C377.352 205.291 375.752 207.099 375.752 209.339C375.752 211.755 377.4 213.403 379.688 213.403ZM382.088 208.859H377.016C377.08 207.675 377.896 206.283 379.544 206.283C381.304 206.283 382.072 207.707 382.088 208.859ZM396.141 213.211V202.539H394.941V206.651C394.317 205.803 393.373 205.291 392.333 205.291C390.301 205.291 388.893 206.891 388.893 209.355C388.893 211.867 390.317 213.403 392.333 213.403C393.421 213.403 394.365 212.843 394.941 212.059V213.211H396.141ZM392.621 212.331C391.069 212.331 390.141 211.067 390.141 209.355C390.141 207.643 391.069 206.363 392.621 206.363C393.581 206.363 394.509 206.939 394.941 207.611V211.115C394.509 211.787 393.581 212.331 392.621 212.331ZM401.92 213.403C404.272 213.403 405.744 211.579 405.744 209.339C405.744 207.099 404.272 205.291 401.92 205.291C399.568 205.291 398.096 207.099 398.096 209.339C398.096 211.579 399.568 213.403 401.92 213.403ZM401.92 212.331C400.272 212.331 399.344 210.923 399.344 209.339C399.344 207.771 400.272 206.363 401.92 206.363C403.568 206.363 404.48 207.771 404.48 209.339C404.48 210.923 403.568 212.331 401.92 212.331ZM411.188 213.403C412.452 213.403 413.492 212.987 414.26 212.219L413.684 211.435C413.076 212.059 412.18 212.411 411.3 212.411C409.636 212.411 408.612 211.195 408.516 209.739H414.772V209.435C414.772 207.115 413.396 205.291 411.06 205.291C408.852 205.291 407.252 207.099 407.252 209.339C407.252 211.755 408.9 213.403 411.188 213.403ZM413.588 208.859H408.516C408.58 207.675 409.396 206.283 411.044 206.283C412.804 206.283 413.572 207.707 413.588 208.859ZM419.164 213.403C421.164 213.403 422.204 212.363 422.204 211.067C422.204 208.059 417.42 209.179 417.42 207.483C417.42 206.795 418.076 206.267 419.132 206.267C420.124 206.267 420.972 206.683 421.436 207.243L421.996 206.411C421.372 205.787 420.444 205.291 419.132 205.291C417.292 205.291 416.252 206.315 416.252 207.515C416.252 210.379 421.036 209.227 421.036 211.099C421.036 211.867 420.396 212.427 419.212 212.427C418.156 212.427 417.18 211.915 416.668 211.323L416.044 212.187C416.828 213.019 417.9 213.403 419.164 213.403ZM434.694 213.211V207.787C434.694 206.107 433.846 205.291 432.23 205.291C431.078 205.291 430.022 205.963 429.478 206.603V205.483H428.278V213.211H429.478V207.563C429.926 206.939 430.822 206.363 431.766 206.363C432.806 206.363 433.494 206.795 433.494 208.155V213.211H434.694ZM440.467 213.403C442.819 213.403 444.291 211.579 444.291 209.339C444.291 207.099 442.819 205.291 440.467 205.291C438.115 205.291 436.643 207.099 436.643 209.339C436.643 211.579 438.115 213.403 440.467 213.403ZM440.467 212.331C438.819 212.331 437.891 210.923 437.891 209.339C437.891 207.771 438.819 206.363 440.467 206.363C442.115 206.363 443.027 207.771 443.027 209.339C443.027 210.923 442.115 212.331 440.467 212.331ZM448.199 213.403C448.903 213.403 449.335 213.195 449.639 212.907L449.287 212.011C449.127 212.187 448.807 212.331 448.471 212.331C447.943 212.331 447.687 211.915 447.687 211.339V206.539H449.255V205.483H447.687V203.371H446.487V205.483H445.207V206.539H446.487V211.595C446.487 212.747 447.063 213.403 448.199 213.403ZM458.563 213.403C459.827 213.403 460.867 212.987 461.635 212.219L461.059 211.435C460.451 212.059 459.555 212.411 458.675 212.411C457.011 212.411 455.987 211.195 455.891 209.739H462.147V209.435C462.147 207.115 460.771 205.291 458.435 205.291C456.227 205.291 454.627 207.099 454.627 209.339C454.627 211.755 456.275 213.403 458.563 213.403ZM460.963 208.859H455.891C455.955 207.675 456.771 206.283 458.419 206.283C460.179 206.283 460.947 207.707 460.963 208.859ZM470.491 213.211L467.515 209.243L470.315 205.483H468.923L466.779 208.427L464.635 205.483H463.243L466.043 209.243L463.083 213.211H464.459L466.779 210.043L469.099 213.211H470.491ZM472.464 204.379C472.912 204.379 473.28 204.027 473.28 203.579C473.28 203.131 472.912 202.763 472.464 202.763C472.032 202.763 471.664 203.131 471.664 203.579C471.664 204.027 472.032 204.379 472.464 204.379ZM473.072 213.211V205.483H471.872V213.211H473.072ZM477.914 213.403C479.914 213.403 480.954 212.363 480.954 211.067C480.954 208.059 476.17 209.179 476.17 207.483C476.17 206.795 476.826 206.267 477.882 206.267C478.874 206.267 479.722 206.683 480.186 207.243L480.746 206.411C480.122 205.787 479.194 205.291 477.882 205.291C476.042 205.291 475.002 206.315 475.002 207.515C475.002 210.379 479.786 209.227 479.786 211.099C479.786 211.867 479.146 212.427 477.962 212.427C476.906 212.427 475.93 211.915 475.418 211.323L474.794 212.187C475.578 213.019 476.65 213.403 477.914 213.403ZM484.855 213.403C485.559 213.403 485.991 213.195 486.295 212.907L485.943 212.011C485.783 212.187 485.463 212.331 485.127 212.331C484.599 212.331 484.343 211.915 484.343 211.339V206.539H485.911V205.483H484.343V203.371H483.143V205.483H481.863V206.539H483.143V211.595C483.143 212.747 483.719 213.403 484.855 213.403ZM489.222 212.827C489.222 212.059 488.742 211.611 488.214 211.611C487.734 211.611 487.366 212.011 487.366 212.475C487.366 212.955 487.686 213.291 488.134 213.291C488.214 213.291 488.326 213.275 488.358 213.259C488.294 213.787 487.83 214.411 487.318 214.747L487.91 215.243C488.646 214.715 489.222 213.803 489.222 212.827ZM497.371 213.403C498.075 213.403 498.507 213.195 498.811 212.907L498.459 212.011C498.299 212.187 497.979 212.331 497.643 212.331C497.115 212.331 496.859 211.915 496.859 211.339V206.539H498.427V205.483H496.859V203.371H495.659V205.483H494.379V206.539H495.659V211.595C495.659 212.747 496.235 213.403 497.371 213.403ZM506.554 213.211V207.755C506.554 206.075 505.706 205.291 504.09 205.291C502.922 205.291 501.866 205.963 501.322 206.603V202.539H500.122V213.211H501.322V207.563C501.786 206.939 502.682 206.363 503.61 206.363C504.65 206.363 505.354 206.763 505.354 208.123V213.211H506.554ZM514.982 213.211V207.899C514.982 206.027 513.622 205.291 511.99 205.291C510.726 205.291 509.734 205.707 508.902 206.571L509.462 207.403C510.15 206.667 510.902 206.331 511.83 206.331C512.95 206.331 513.782 206.923 513.782 207.963V209.355C513.158 208.635 512.278 208.299 511.222 208.299C509.91 208.299 508.518 209.115 508.518 210.843C508.518 212.523 509.91 213.403 511.222 213.403C512.262 213.403 513.142 213.035 513.782 212.331V213.211H514.982ZM511.654 212.539C510.534 212.539 509.75 211.835 509.75 210.859C509.75 209.867 510.534 209.163 511.654 209.163C512.502 209.163 513.318 209.483 513.782 210.123V211.579C513.318 212.219 512.502 212.539 511.654 212.539ZM519.34 213.403C520.044 213.403 520.476 213.195 520.78 212.907L520.428 212.011C520.268 212.187 519.948 212.331 519.612 212.331C519.084 212.331 518.828 211.915 518.828 211.339V206.539H520.396V205.483H518.828V203.371H517.628V205.483H516.348V206.539H517.628V211.595C517.628 212.747 518.204 213.403 519.34 213.403ZM523.707 203.595C523.707 202.811 523.227 202.379 522.699 202.379C522.219 202.379 521.851 202.779 521.851 203.243C521.851 203.723 522.171 204.059 522.619 204.059C522.699 204.059 522.811 204.043 522.843 204.027C522.779 204.539 522.315 205.179 521.803 205.515L522.395 206.011C523.131 205.483 523.707 204.571 523.707 203.595ZM527.742 213.403C529.742 213.403 530.782 212.363 530.782 211.067C530.782 208.059 525.998 209.179 525.998 207.483C525.998 206.795 526.654 206.267 527.71 206.267C528.702 206.267 529.55 206.683 530.014 207.243L530.574 206.411C529.95 205.787 529.022 205.291 527.71 205.291C525.87 205.291 524.83 206.315 524.83 207.515C524.83 210.379 529.614 209.227 529.614 211.099C529.614 211.867 528.974 212.427 527.79 212.427C526.734 212.427 525.758 211.915 525.246 211.323L524.622 212.187C525.406 213.019 526.478 213.403 527.742 213.403ZM542.888 213.211V207.899C542.888 206.027 541.528 205.291 539.896 205.291C538.632 205.291 537.64 205.707 536.808 206.571L537.368 207.403C538.056 206.667 538.808 206.331 539.736 206.331C540.856 206.331 541.688 206.923 541.688 207.963V209.355C541.064 208.635 540.184 208.299 539.128 208.299C537.816 208.299 536.424 209.115 536.424 210.843C536.424 212.523 537.816 213.403 539.128 213.403C540.168 213.403 541.048 213.035 541.688 212.331V213.211H542.888ZM539.56 212.539C538.44 212.539 537.656 211.835 537.656 210.859C537.656 209.867 538.44 209.163 539.56 209.163C540.408 209.163 541.224 209.483 541.688 210.123V211.579C541.224 212.219 540.408 212.539 539.56 212.539ZM546.494 213.211V202.539H545.294V213.211H546.494ZM550.088 213.211V202.539H548.888V213.211H550.088ZM564.494 213.211L566.958 205.483H565.71L563.822 211.643L561.79 205.483H560.766L558.734 211.643L556.846 205.483H555.598L558.062 213.211H559.262L561.278 207.003L563.294 213.211H564.494ZM571.844 213.403C573.108 213.403 574.148 212.987 574.916 212.219L574.34 211.435C573.732 212.059 572.836 212.411 571.956 212.411C570.292 212.411 569.268 211.195 569.172 209.739H575.428V209.435C575.428 207.115 574.052 205.291 571.716 205.291C569.508 205.291 567.908 207.099 567.908 209.339C567.908 211.755 569.556 213.403 571.844 213.403ZM574.244 208.859H569.172C569.236 207.675 570.052 206.283 571.7 206.283C573.46 206.283 574.228 207.707 574.244 208.859ZM588.297 213.211L584.857 208.987L588.281 205.483H586.761L582.697 209.595V202.539H581.497V213.211H582.697V211.003L583.977 209.739L586.761 213.211H588.297ZM596.132 213.211V207.787C596.132 206.107 595.284 205.291 593.668 205.291C592.516 205.291 591.46 205.963 590.916 206.603V205.483H589.716V213.211H590.916V207.563C591.364 206.939 592.26 206.363 593.204 206.363C594.244 206.363 594.932 206.795 594.932 208.155V213.211H596.132ZM601.904 213.403C604.256 213.403 605.728 211.579 605.728 209.339C605.728 207.099 604.256 205.291 601.904 205.291C599.552 205.291 598.08 207.099 598.08 209.339C598.08 211.579 599.552 213.403 601.904 213.403ZM601.904 212.331C600.256 212.331 599.328 210.923 599.328 209.339C599.328 207.771 600.256 206.363 601.904 206.363C603.552 206.363 604.464 207.771 604.464 209.339C604.464 210.923 603.552 212.331 601.904 212.331ZM615.572 213.211L618.036 205.483H616.788L614.9 211.643L612.868 205.483H611.844L609.812 211.643L607.924 205.483H606.676L609.14 213.211H610.34L612.356 207.003L614.372 213.211H615.572ZM620.57 210.219L620.826 202.539H619.322L619.578 210.219H620.57ZM620.074 213.371C620.554 213.371 620.954 212.955 620.954 212.491C620.954 212.011 620.554 211.611 620.074 211.611C619.594 211.611 619.194 212.011 619.194 212.491C619.194 212.955 619.594 213.371 620.074 213.371Z" fill="#303030"/>
<defs>
<linearGradient id="paint0_linear_2159_66812" x1="232.651" y1="74.6757" x2="202.651" y2="74.6757" gradientUnits="userSpaceOnUse">
<stop stop-color="#E1E5EF"/>
<stop offset="1" stop-color="#E1E5EF" stop-opacity="0"/>
</linearGradient>
<linearGradient id="paint1_linear_2159_66812" x1="340.124" y1="78.9765" x2="290.124" y2="78.9765" gradientUnits="userSpaceOnUse">
<stop stop-color="#E1E5EF"/>
<stop offset="1" stop-color="#E1E5EF" stop-opacity="0"/>
</linearGradient>
<linearGradient id="paint2_linear_2159_66812" x1="30" y1="34" x2="-1.63302e-07" y2="34" gradientUnits="userSpaceOnUse">
<stop stop-color="#E1E5EF"/>
<stop offset="1" stop-color="#E1E5EF" stop-opacity="0"/>
</linearGradient>
<linearGradient id="paint3_linear_2159_66812" x1="50" y1="44" x2="-2.7217e-07" y2="44" gradientUnits="userSpaceOnUse">
<stop stop-color="#E1E5EF"/>
<stop offset="1" stop-color="#E1E5EF" stop-opacity="0"/>
</linearGradient>
<linearGradient id="paint4_linear_2159_66812" x1="344.5" y1="99" x2="314.5" y2="99" gradientUnits="userSpaceOnUse">
<stop stop-color="#E1E5EF"/>
<stop offset="1" stop-color="#E1E5EF" stop-opacity="0"/>
</linearGradient>
<linearGradient id="paint5_linear_2159_66812" x1="442.5" y1="69" x2="392.5" y2="69" gradientUnits="userSpaceOnUse">
<stop stop-color="#E1E5EF"/>
<stop offset="1" stop-color="#E1E5EF" stop-opacity="0"/>
</linearGradient>
<linearGradient id="paint6_linear_2159_66812" x1="30" y1="34" x2="-1.63302e-07" y2="34" gradientUnits="userSpaceOnUse">
<stop stop-color="#E1E5EF"/>
<stop offset="1" stop-color="#E1E5EF" stop-opacity="0"/>
</linearGradient>
<linearGradient id="paint7_linear_2159_66812" x1="50" y1="44" x2="-2.7217e-07" y2="44" gradientUnits="userSpaceOnUse">
<stop stop-color="#E1E5EF"/>
<stop offset="1" stop-color="#E1E5EF" stop-opacity="0"/>
</linearGradient>
<linearGradient id="paint8_linear_2159_66812" x1="355.5" y1="86" x2="339.5" y2="86" gradientUnits="userSpaceOnUse">
<stop stop-color="#E1E5EF"/>
<stop offset="1" stop-color="#E1E5EF" stop-opacity="0"/>
</linearGradient>
<linearGradient id="paint9_linear_2159_66812" x1="16" y1="44" x2="-8.70944e-08" y2="44" gradientUnits="userSpaceOnUse">
<stop stop-color="#E1E5EF"/>
<stop offset="1" stop-color="#E1E5EF" stop-opacity="0"/>
</linearGradient>
<linearGradient id="paint10_linear_2159_66812" x1="399.5" y1="58" x2="399.5" y2="42" gradientUnits="userSpaceOnUse">
<stop stop-color="#E1E5EF"/>
<stop offset="1" stop-color="#E1E5EF" stop-opacity="0"/>
</linearGradient>
<linearGradient id="paint11_linear_2159_66812" x1="422.643" y1="82.1426" x2="418.571" y2="78.0711" gradientUnits="userSpaceOnUse">
<stop stop-color="#E1E5EF"/>
<stop offset="1" stop-color="#E1E5EF" stop-opacity="0"/>
</linearGradient>
<linearGradient id="paint12_linear_2159_66812" x1="442.088" y1="16.6635" x2="448.843" y2="18.4736" gradientUnits="userSpaceOnUse">
<stop stop-color="#E1E5EF"/>
<stop offset="1" stop-color="#E1E5EF" stop-opacity="0"/>
</linearGradient>
<linearGradient id="paint13_linear_2159_66812" x1="448.479" y1="73.4122" x2="452.712" y2="70.8462" gradientUnits="userSpaceOnUse">
<stop stop-color="#E1E5EF"/>
<stop offset="1" stop-color="#E1E5EF" stop-opacity="0"/>
</linearGradient>
<linearGradient id="paint14_linear_2159_66812" x1="465.5" y1="42" x2="465.5" y2="58" gradientUnits="userSpaceOnUse">
<stop stop-color="#E1E5EF"/>
<stop offset="1" stop-color="#E1E5EF" stop-opacity="0"/>
</linearGradient>
</defs>
</svg>
