<svg width="40" height="40" viewBox="0 0 40 40" fill="none" xmlns="http://www.w3.org/2000/svg">
<g clip-path="url(#clip0_11407_98007)">
<path d="M12 15L11.06 12.94L9 12L11.06 11.06L12 9L12.94 11.06L15 12L12.94 12.94L12 15Z" fill="#607D8B"/>
<path d="M23.5 15L22.56 12.94L20.5 12L22.56 11.06L23.5 9L24.44 11.06L26.5 12L24.44 12.94L23.5 15Z" fill="#607D8B"/>
<path d="M12 20.5L12.94 22.56L15 23.5L12.94 24.44L12 26.5L11.06 24.44L9 23.5L11.06 22.56L12 20.5Z" fill="#607D8B"/>
<path d="M14.2895 17.12L17.1195 14.29C17.3195 14.1 17.5695 14 17.8295 14C18.0895 14 18.3395 14.1 18.5395 14.29L29.7095 25.46C30.0995 25.85 30.0995 26.48 29.7095 26.87L26.8795 29.7C26.6795 29.9 26.4295 30 26.1695 30C25.9095 30 25.6595 29.9 25.4595 29.71L14.2895 18.54C13.8995 18.15 13.8995 17.51 14.2895 17.12ZM17.8295 16.42L16.4195 17.83L17.5895 19L18.9995 17.59L17.8295 16.42ZM26.1695 27.59L27.5795 26.18L20.4095 19L18.9995 20.41L26.1695 27.59Z" fill="#607D8B"/>
</g>
<defs>
<clipPath id="clip0_11407_98007">
<rect width="24" height="24" fill="white" transform="matrix(-1 0 0 1 32 8)"/>
</clipPath>
</defs>
</svg>
