<svg width="134" height="14" viewBox="0 0 134 14" fill="none" xmlns="http://www.w3.org/2000/svg">
<path id="Line 110" opacity="0.6" d="M0.333333 7.00001C0.333333 10.6819 3.3181 13.6667 7 13.6667C10.6819 13.6667 13.6667 10.6819 13.6667 7.00001C13.6667 3.31811 10.6819 0.333346 7 0.333345C3.3181 0.333345 0.333334 3.31811 0.333333 7.00001ZM120.333 7.00001C120.333 10.6819 123.318 13.6667 127 13.6667C130.682 13.6667 133.667 10.6819 133.667 7.00001C133.667 3.31811 130.682 0.333344 127 0.333344C123.318 0.333344 120.333 3.31811 120.333 7.00001ZM12 8.25001C12.6904 8.25001 13.25 7.69037 13.25 7.00001C13.25 6.30966 12.6904 5.75001 12 5.75001L12 8.25001ZM22 5.75001C21.3096 5.75001 20.75 6.30966 20.75 7.00001C20.75 7.69037 21.3096 8.25001 22 8.25001L22 5.75001ZM32 8.25001C32.6904 8.25001 33.25 7.69037 33.25 7.00001C33.25 6.30966 32.6904 5.75001 32 5.75001L32 8.25001ZM42 5.75001C41.3096 5.75001 40.75 6.30966 40.75 7.00001C40.75 7.69037 41.3096 8.25001 42 8.25001L42 5.75001ZM52 8.25001C52.6904 8.25001 53.25 7.69037 53.25 7.00001C53.25 6.30966 52.6904 5.75001 52 5.75001L52 8.25001ZM62 5.75001C61.3096 5.75001 60.75 6.30966 60.75 7.00001C60.75 7.69037 61.3096 8.25001 62 8.25001L62 5.75001ZM72 8.25001C72.6904 8.25001 73.25 7.69037 73.25 7.00001C73.25 6.30966 72.6904 5.75001 72 5.75001L72 8.25001ZM82 5.75001C81.3096 5.75001 80.75 6.30966 80.75 7.00001C80.75 7.69037 81.3096 8.25001 82 8.25001L82 5.75001ZM92 8.25001C92.6904 8.25001 93.25 7.69037 93.25 7.00001C93.25 6.30966 92.6904 5.75001 92 5.75001L92 8.25001ZM102 5.75001C101.31 5.75001 100.75 6.30965 100.75 7.00001C100.75 7.69037 101.31 8.25001 102 8.25001L102 5.75001ZM112 8.25001C112.69 8.25001 113.25 7.69037 113.25 7.00001C113.25 6.30965 112.69 5.75001 112 5.75001L112 8.25001ZM122 5.75001C121.31 5.75001 120.75 6.30965 120.75 7.00001C120.75 7.69037 121.31 8.25001 122 8.25001L122 5.75001ZM7 8.25001L12 8.25001L12 5.75001L7 5.75001L7 8.25001ZM22 8.25001L32 8.25001L32 5.75001L22 5.75001L22 8.25001ZM42 8.25001L52 8.25001L52 5.75001L42 5.75001L42 8.25001ZM62 8.25001L72 8.25001L72 5.75001L62 5.75001L62 8.25001ZM82 8.25001L92 8.25001L92 5.75001L82 5.75001L82 8.25001ZM102 8.25001L112 8.25001L112 5.75001L102 5.75001L102 8.25001ZM122 8.25001L127 8.25001L127 5.75001L122 5.75001L122 8.25001Z" fill="white"/>
</svg>