<svg width="19" height="18" viewBox="0 0 19 18" fill="none" xmlns="http://www.w3.org/2000/svg">
<g id="icons/info">
<path id="Vector" d="M8.93753 12.5625H10.0625V8.24998H8.93753V12.5625ZM9.50001 6.96634C9.67165 6.96634 9.81552 6.90829 9.93162 6.79219C10.0477 6.67609 10.1058 6.53222 10.1058 6.36058C10.1058 6.18896 10.0477 6.04509 9.93162 5.92898C9.81552 5.81288 9.67165 5.75482 9.50001 5.75482C9.32837 5.75482 9.18451 5.81288 9.06841 5.92898C8.95231 6.04509 8.89426 6.18896 8.89426 6.36058C8.89426 6.53222 8.95231 6.67609 9.06841 6.79219C9.18451 6.90829 9.32837 6.96634 9.50001 6.96634ZM9.50127 16.125C8.51582 16.125 7.58954 15.938 6.72244 15.564C5.85533 15.19 5.10107 14.6824 4.45966 14.0413C3.81823 13.4001 3.31044 12.6462 2.93627 11.7795C2.56211 10.9128 2.37503 9.98669 2.37503 9.00124C2.37503 8.01579 2.56203 7.08951 2.93603 6.22241C3.31003 5.3553 3.81759 4.60104 4.45872 3.95963C5.09986 3.3182 5.85379 2.81041 6.72051 2.43624C7.58722 2.06208 8.51331 1.875 9.49876 1.875C10.4842 1.875 11.4105 2.062 12.2776 2.436C13.1447 2.81 13.899 3.31756 14.5404 3.95869C15.1818 4.59983 15.6896 5.35376 16.0638 6.22048C16.4379 7.08719 16.625 8.01327 16.625 8.99872C16.625 9.98417 16.438 10.9104 16.064 11.7775C15.69 12.6447 15.1824 13.3989 14.5413 14.0403C13.9002 14.6818 13.1462 15.1896 12.2795 15.5637C11.4128 15.9379 10.4867 16.125 9.50127 16.125ZM9.50001 15C11.175 15 12.5938 14.4187 13.7563 13.2562C14.9188 12.0937 15.5 10.675 15.5 8.99998C15.5 7.32498 14.9188 5.90623 13.7563 4.74373C12.5938 3.58123 11.175 2.99998 9.50001 2.99998C7.82501 2.99998 6.40626 3.58123 5.24376 4.74373C4.08126 5.90623 3.50001 7.32498 3.50001 8.99998C3.50001 10.675 4.08126 12.0937 5.24376 13.2562C6.40626 14.4187 7.82501 15 9.50001 15Z" fill="#607D8B"/>
</g>
</svg>
