<svg width="31" height="30" viewBox="0 0 31 30" fill="none" xmlns="http://www.w3.org/2000/svg">
<path d="M15.3335 3C18.5161 3 21.5683 4.26428 23.8188 6.51471C26.0692 8.76515 27.3335 11.8174 27.3335 15C27.3335 18.1826 26.0692 21.2348 23.8188 23.4853C21.5684 25.7357 18.5161 27 15.3335 27L15.3335 15V3Z" fill="#000700"/>
<path d="M15.3335 27C12.1509 27 9.09866 25.7357 6.84822 23.4853C4.59778 21.2349 3.3335 18.1826 3.3335 15C3.33349 11.8174 4.59777 8.76517 6.8482 6.51473C9.09863 4.26429 12.1509 3.00001 15.3335 3L15.3335 4.72757C12.6091 4.72758 9.99623 5.80985 8.06978 7.73631C6.14333 9.66277 5.06107 12.2756 5.06107 15C5.06107 17.7244 6.14334 20.3373 8.0698 22.2637C9.99625 24.1902 12.6091 25.2724 15.3335 25.2724L15.3335 27Z" fill="black"/>
</svg>