<svg width="24" height="32" viewBox="0 0 24 32" fill="none" xmlns="http://www.w3.org/2000/svg">
<path fillRule="evenodd" clipRule="evenodd" d="M4 0C1.79086 0 0 1.79086 0 4V28C0 30.2091 1.79086 32 4 32H20C22.2091 32 24 30.2091 24 28V10H14V0H4Z" fill="#2DC6FE"/>
<path d="M14 0L19 5L24 10H14V0Z" fill="#2DC6FE" fillOpacity="0.5"/>
<path d="M10.8501 24.902C10.2887 24.902 9.80804 24.7021 9.40826 24.3024C9.00848 23.9025 8.80859 23.4218 8.80859 22.8604C8.80859 22.2989 9.00848 21.8183 9.40826 21.4185C9.80804 21.0187 10.2887 20.8188 10.8501 20.8188C11.0737 20.8188 11.2831 20.8521 11.4784 20.9186C11.6736 20.9852 11.8531 21.085 12.0168 21.2181V15.6248C12.0168 15.4755 12.0675 15.3503 12.169 15.2492C12.2705 15.1482 12.3963 15.0977 12.5464 15.0977H14.6647C14.8147 15.0977 14.94 15.1482 15.0406 15.2492C15.1412 15.3503 15.1914 15.4755 15.1914 15.6248V16.4774C15.1914 16.6268 15.1409 16.752 15.0399 16.8531C14.9389 16.9541 14.8137 17.0046 14.6642 17.0046H12.8918V22.8604C12.8918 23.4218 12.6919 23.9025 12.2921 24.3024C11.8922 24.7021 11.4116 24.902 10.8501 24.902Z" fill="white"/>
</svg>