<svg width="24" height="32" viewBox="0 0 24 32" fill="none" xmlns="http://www.w3.org/2000/svg">
<path fillRule="evenodd" clipRule="evenodd" d="M4 0C1.79086 0 0 1.79086 0 4V28C0 30.2091 1.79086 32 4 32H20C22.2091 32 24 30.2091 24 28V10H14V0H4Z" fill="#E5252A"/>
<path d="M14 0L19 5L24 10H14V0Z" fill="#E5252A" fillOpacity="0.5"/>
<path d="M4.56925 23V17.1818H6.97266C7.40826 17.1818 7.78421 17.267 8.1005 17.4375C8.41868 17.6061 8.66394 17.8419 8.83629 18.1449C9.00864 18.446 9.09482 18.7964 9.09482 19.196C9.09482 19.5975 9.00675 19.9489 8.83061 20.25C8.65637 20.5492 8.40732 20.7812 8.08345 20.946C7.75959 21.1108 7.37512 21.1932 6.93004 21.1932H5.44709V20.0852H6.66868C6.8808 20.0852 7.05788 20.0483 7.19993 19.9744C7.34387 19.9006 7.45277 19.7973 7.52663 19.6648C7.6005 19.5303 7.63743 19.3741 7.63743 19.196C7.63743 19.0161 7.6005 18.8608 7.52663 18.7301C7.45277 18.5975 7.34387 18.4953 7.19993 18.4233C7.05599 18.3513 6.87891 18.3153 6.66868 18.3153H5.9755V23H4.56925ZM11.9386 23H9.788V17.1818H11.9357C12.5285 17.1818 13.0389 17.2983 13.467 17.5312C13.8969 17.7623 14.2283 18.0956 14.4613 18.5312C14.6942 18.965 14.8107 19.4839 14.8107 20.0881C14.8107 20.6941 14.6942 21.215 14.4613 21.6506C14.2302 22.0862 13.8997 22.4205 13.4698 22.6534C13.0399 22.8845 12.5295 23 11.9386 23ZM11.1942 21.8011H11.8846C12.2103 21.8011 12.4859 21.7462 12.7113 21.6364C12.9386 21.5246 13.11 21.3438 13.2255 21.0938C13.3429 20.8419 13.4016 20.5066 13.4016 20.0881C13.4016 19.6695 13.3429 19.3362 13.2255 19.0881C13.1081 18.8381 12.9348 18.6581 12.7056 18.5483C12.4783 18.4366 12.198 18.3807 11.8647 18.3807H11.1942V21.8011ZM15.6317 23V17.1818H19.6033V18.3239H17.038V19.517H19.3505V20.6619H17.038V23H15.6317Z" fill="white"/>
</svg>