<svg width="38" height="38" viewBox="0 0 38 38" fill="none" xmlns="http://www.w3.org/2000/svg">
<path d="M17.9769 20.2769V27.3653C17.9769 27.6868 18.0866 27.9563 18.3059 28.1737C18.5252 28.3912 18.797 28.4999 19.1213 28.4999C19.4455 28.4999 19.7141 28.3912 19.9269 28.1737C20.1397 27.9563 20.2461 27.6868 20.2461 27.3653V20.2769H27.3653C27.6868 20.2769 27.9562 20.1672 28.1737 19.9479C28.3912 19.7285 28.4999 19.4567 28.4999 19.1325C28.4999 18.8082 28.3912 18.5397 28.1737 18.3269C27.9562 18.1141 27.6868 18.0077 27.3653 18.0077H20.2461V10.6346C20.2461 10.3131 20.1364 10.0437 19.9171 9.8262C19.6977 9.60873 19.4259 9.5 19.1017 9.5C18.7775 9.5 18.5089 9.60873 18.2961 9.8262C18.0833 10.0437 17.9769 10.3131 17.9769 10.6346V18.0077H10.6346C10.3131 18.0077 10.0436 18.1173 9.8262 18.3367C9.60873 18.556 9.5 18.8278 9.5 19.1521C9.5 19.4763 9.60873 19.7448 9.8262 19.9576C10.0436 20.1704 10.3131 20.2769 10.6346 20.2769H17.9769ZM19.0166 37.9999C16.3848 37.9999 13.9185 37.5012 11.6177 36.5039C9.3169 35.5066 7.3043 34.1447 5.5799 32.4184C3.8555 30.692 2.49442 28.6791 1.49665 26.3795C0.498884 24.08 0 21.6161 0 18.9879C0 16.3597 0.498667 13.8921 1.496 11.5851C2.49333 9.27813 3.85517 7.26943 5.5815 5.559C7.30787 3.84853 9.32082 2.49442 11.6203 1.49665C13.9199 0.498883 16.3838 0 19.012 0C21.6402 0 24.1078 0.498667 26.4148 1.496C28.7218 2.49333 30.7305 3.84683 32.4409 5.5565C34.1514 7.2662 35.5055 9.27668 36.5033 11.588C37.501 13.8992 37.9999 16.3643 37.9999 18.9833C37.9999 21.6151 37.5012 24.0814 36.5039 26.3822C35.5066 28.683 34.1531 30.6925 32.4434 32.4108C30.7337 34.129 28.7232 35.4901 26.412 36.494C24.1007 37.4979 21.6356 37.9999 19.0166 37.9999Z" fill="#2196F3"/>
</svg>
