<svg width="32" height="32" viewBox="0 0 32 32" fill="none" xmlns="http://www.w3.org/2000/svg">
<path d="M10.3077 25.4999C9.81058 25.4999 9.38502 25.3229 9.03102 24.9689C8.67701 24.6149 8.5 24.1893 8.5 23.6922V14.3076C8.5 13.8105 8.67701 13.385 9.03102 13.031C9.38502 12.677 9.81058 12.4999 10.3077 12.4999H11.5V10.5C11.5 9.25125 11.9378 8.18908 12.8134 7.31345C13.6891 6.43782 14.7513 6 16 6C17.2487 6 18.3108 6.43782 19.1865 7.31345C20.0621 8.18908 20.5 9.25125 20.5 10.5V12.4999H21.6922C22.1894 12.4999 22.6149 12.677 22.9689 13.031C23.3229 13.385 23.5 13.8105 23.5 14.3076V23.6922C23.5 24.1893 23.3229 24.6149 22.9689 24.9689C22.6149 25.3229 22.1894 25.4999 21.6922 25.4999H10.3077ZM16 20.7499C16.4859 20.7499 16.899 20.5797 17.2394 20.2393C17.5798 19.899 17.75 19.4858 17.75 18.9999C17.75 18.514 17.5798 18.1009 17.2394 17.7605C16.899 17.4201 16.4859 17.2499 16 17.2499C15.5141 17.2499 15.1009 17.4201 14.7606 17.7605C14.4202 18.1009 14.25 18.514 14.25 18.9999C14.25 19.4858 14.4202 19.899 14.7606 20.2393C15.1009 20.5797 15.5141 20.7499 16 20.7499ZM13 12.4999H19V10.5C19 9.66662 18.7083 8.95828 18.125 8.37495C17.5416 7.79162 16.8333 7.49995 16 7.49995C15.1666 7.49995 14.4583 7.79162 13.875 8.37495C13.2916 8.95828 13 9.66662 13 10.5V12.4999Z" fill="#4CAF50"/>
</svg>
