<svg width="40" height="40" viewBox="0 0 40 40" fill="none" xmlns="http://www.w3.org/2000/svg">
<rect width="40" height="40" rx="20" fill="white"/>
<path d="M20.9317 20L13.8397 13.1368C13.753 13.0501 13.6887 12.9556 13.6468 12.8534C13.6049 12.7512 13.584 12.6456 13.584 12.5365V12.0664C13.584 11.8347 13.6625 11.6408 13.8194 11.4845C13.9764 11.3282 14.1709 11.25 14.4029 11.25H25.1833C25.5261 11.25 25.8174 11.3701 26.0573 11.6103C26.2973 11.8505 26.4173 12.1422 26.4173 12.4853C26.4173 12.8284 26.2973 13.1215 26.0573 13.3645C25.8174 13.6076 25.5261 13.7291 25.1833 13.7291H17.5954L23.2313 19.2439C23.4467 19.4519 23.5544 19.7032 23.5544 19.9978C23.5544 20.2924 23.4467 20.5452 23.2313 20.7561L17.5954 26.2821H25.1833C25.5261 26.2821 25.8174 26.4022 26.0573 26.6423C26.2973 26.8825 26.4173 27.1742 26.4173 27.5173C26.4173 27.8604 26.2973 28.1517 26.0573 28.391C25.8174 28.6303 25.5261 28.7499 25.1833 28.7499H14.1718C14.0096 28.7499 13.8711 28.6925 13.7563 28.5777C13.6414 28.4628 13.584 28.3243 13.584 28.1621V27.3638C13.584 27.2798 13.5976 27.2023 13.6249 27.1314C13.6521 27.0604 13.6998 26.9927 13.768 26.9282L20.9317 20Z" fill="black"/>
</svg>