<svg width="40" height="40" viewBox="0 0 40 40" fill="none" xmlns="http://www.w3.org/2000/svg">
<circle cx="20" cy="20" r="20" fill="#4AA3EB"/>
<path d="M13.029 28.8538C12.5028 28.8538 12.0575 28.6715 11.6929 28.3069C11.3283 27.9423 11.146 27.497 11.146 26.9708V13.0285C11.146 12.5023 11.3283 12.057 11.6929 11.6924C12.0575 11.3278 12.5028 11.1455 13.029 11.1455H26.9713C27.4974 11.1455 27.9428 11.3278 28.3074 11.6924C28.672 12.057 28.8543 12.5023 28.8543 13.0285V26.9708C28.8543 27.497 28.672 27.9423 28.3074 28.3069C27.9428 28.6715 27.4974 28.8538 26.9713 28.8538H13.029ZM18.5418 23.6214C18.6673 23.6214 18.7842 23.6014 18.8924 23.5613C19.0005 23.5213 19.1034 23.4525 19.2008 23.355L25.0222 17.5337C25.1664 17.3895 25.2385 17.2152 25.2385 17.0109C25.2385 16.8065 25.1577 16.6236 24.9961 16.462C24.8452 16.3111 24.6623 16.2356 24.4472 16.2356C24.2322 16.2356 24.0493 16.3111 23.8984 16.462L18.5418 21.8186L16.0959 19.3727C15.9516 19.2284 15.7774 19.1563 15.5731 19.1563C15.3687 19.1563 15.1858 19.2371 15.0242 19.3987C14.8733 19.5496 14.7978 19.7326 14.7978 19.9476C14.7978 20.1626 14.8733 20.3455 15.0242 20.4964L17.8828 23.355C17.9802 23.4525 18.0831 23.5213 18.1913 23.5613C18.2994 23.6014 18.4163 23.6214 18.5418 23.6214Z" fill="white"/>
</svg>
