<svg width="32" height="32" viewBox="0 0 32 32" fill="none" xmlns="http://www.w3.org/2000/svg">
<path d="M13.0221 14.8134L10.415 12.2176C10.2819 12.4913 10.1772 12.7766 10.1009 13.0735C10.0246 13.3704 9.9865 13.6729 9.9865 13.9811C9.9865 15.0523 10.3671 15.9685 11.1283 16.7297C11.8894 17.4909 12.8056 17.8715 13.8769 17.8715C14.1641 17.8715 14.4258 17.8445 14.6621 17.7907C14.8985 17.7368 15.1348 17.6635 15.3711 17.5708L19.2279 21.4208C19.4408 21.6317 19.6892 21.7372 19.9731 21.7372C20.2571 21.7372 20.5045 21.6317 20.7154 21.4208L21.3413 20.7837C21.5522 20.5728 21.6577 20.3267 21.6577 20.0455C21.6577 19.7643 21.5522 19.5183 21.3413 19.3074L17.5025 15.4394C17.6027 15.218 17.6779 14.9963 17.728 14.7742C17.7781 14.5521 17.8032 14.2757 17.8032 13.9452C17.8032 12.877 17.4226 11.9634 16.6614 11.2045C15.9003 10.4455 14.984 10.066 13.9128 10.066C13.6046 10.066 13.3044 10.1038 13.012 10.1794C12.7196 10.2551 12.4358 10.3601 12.1605 10.4945L14.7452 13.0904L13.0221 14.8134ZM16.0013 27.0836C14.4684 27.0836 13.0275 26.7927 11.6787 26.2109C10.3298 25.6292 9.15652 24.8396 8.15877 23.8423C7.16099 22.845 6.37109 21.6722 5.78906 20.324C5.20703 18.9757 4.91602 17.5352 4.91602 16.0023C4.91602 14.4693 5.2069 13.0285 5.78868 11.6796C6.37046 10.3308 7.16 9.1575 8.15731 8.15974C9.15463 7.16197 10.3274 6.37207 11.6757 5.79004C13.0239 5.20801 14.4644 4.91699 15.9974 4.91699C17.5303 4.91699 18.9712 5.20788 20.32 5.78966C21.6688 6.37144 22.8421 7.16098 23.8399 8.15828C24.8376 9.15561 25.6275 10.3284 26.2096 11.6766C26.7916 13.0248 27.0826 14.4654 27.0826 15.9983C27.0826 17.5313 26.7917 18.9721 26.21 20.321C25.6282 21.6698 24.8386 22.8431 23.8413 23.8409C22.844 24.8386 21.6712 25.6285 20.323 26.2106C18.9748 26.7926 17.5342 27.0836 16.0013 27.0836Z" fill="#4AA3EB"/>
</svg>
