<svg width="129" height="46" viewBox="0 0 129 46" fill="none" xmlns="http://www.w3.org/2000/svg">
<g clip-path="url(#clip0_1552_11709)">
<path d="M8.2528 18.3671C7.91821 18.4258 7.57187 18.4552 7.20206 18.4552C6.40374 18.4552 5.79325 18.2495 5.37648 17.8383C4.95971 17.4328 4.74838 16.7983 4.74838 15.9404V8.69583H1.33789V16.4634C1.33789 18.1732 1.78988 19.4599 2.67626 20.3178C3.56851 21.1756 4.80708 21.5986 6.38026 21.5986C6.96139 21.5986 7.47795 21.5751 7.92408 21.5281C8.37607 21.4811 8.79871 21.3989 9.20961 21.2813V18.1614C8.8985 18.2378 8.58152 18.3083 8.24693 18.3612L8.2528 18.3671ZM4.75425 8.68408V8.70171H4.77773L4.75425 8.68408Z" fill="#1C3693"/>
<path d="M9.10395 5.26451V8.70174H4.77773L4.75425 8.68411L2.41798 6.72754L1.57856 6.02247L1.33789 5.8227V1.68628H4.77186V5.26451H9.09808H9.10395Z" fill="#1C3693"/>
<path d="M14.6809 0.511176C14.2993 0.170392 13.8415 0 13.2955 0C12.7496 0 12.2859 0.170392 11.9102 0.511176C11.5345 0.851961 11.3408 1.32201 11.3408 1.92719C11.3408 2.49125 11.5345 2.94955 11.9102 3.31383C12.2918 3.67224 12.7496 3.85439 13.2955 3.85439C13.8415 3.85439 14.2993 3.67224 14.6809 3.31383C15.0624 2.95542 15.2503 2.49125 15.2503 1.92719C15.2503 1.32788 15.0624 0.851961 14.6809 0.511176ZM11.605 5.81096V21.2873H14.9861V5.81096H11.605Z" fill="#1C3693"/>
<path d="M18.543 5.81093V21.2872H21.9241V5.81093H18.543ZM31.1694 8.31981C30.7174 7.40909 30.1011 6.70402 29.3028 6.22223C28.5044 5.73455 27.5828 5.49365 26.5321 5.49365C25.4814 5.49365 24.5363 5.76393 23.7027 6.31036C22.9631 6.79216 22.3702 7.4561 21.9241 8.30806C21.8595 8.42557 21.8067 8.53721 21.748 8.6606C21.2843 9.68295 21.0495 10.9051 21.0495 12.327H21.9241C21.9241 11.0578 22.2411 10.106 22.8692 9.44792C23.4973 8.79573 24.2721 8.4667 25.1879 8.4667C26.1036 8.4667 26.8726 8.79573 27.5065 9.44792C28.1346 10.1001 28.4516 11.0578 28.4516 12.327V21.2872H31.8327V11.5631C31.8327 10.3175 31.6097 9.2364 31.1636 8.31981H31.1694Z" fill="#1C3693"/>
<path d="M41.3017 19.1075L37.445 5.81104H33.8291L38.5545 21.2873H41.9356L41.3075 19.1075H41.3017ZM45.082 5.81104L41.3017 19.1075L40.6794 21.2873C40.427 22.1628 40.0396 22.7797 39.5289 23.144C39.0123 23.5024 38.3079 23.6846 37.4157 23.6846C37.0048 23.6846 36.6115 23.6493 36.2182 23.5847C35.8308 23.5201 35.4492 23.4261 35.0794 23.3085V26.405C35.4668 26.5225 35.866 26.6106 36.2886 26.6694C36.7054 26.7281 37.1574 26.7575 37.6446 26.7575C38.6367 26.7575 39.5172 26.5989 40.2861 26.2757C41.0551 25.9526 41.7243 25.4003 42.2996 24.6247C42.869 23.8432 43.3855 22.7386 43.8316 21.2932L48.557 5.81691H45.0878L45.082 5.81104Z" fill="#1C3693"/>
<path d="M10.296 40.1891C10.0612 41.1586 9.67969 41.8695 9.14551 42.3043C8.61134 42.7391 7.91867 42.9624 7.06165 42.9624C5.9933 42.9624 5.1304 42.5511 4.47883 41.7344C3.82726 40.9177 3.5044 39.6485 3.5044 37.9388C3.5044 36.229 3.82726 34.9598 4.47883 34.1431C5.1304 33.3264 5.9933 32.921 7.06165 32.921C7.91867 32.921 8.61134 33.1384 9.14551 33.5732C9.67969 34.0139 10.0612 34.7072 10.296 35.659L13.5598 34.7542C13.1547 33.1795 12.3799 31.9692 11.247 31.1348C10.1082 30.3005 8.74048 29.8774 7.1497 29.8774C5.72915 29.8774 4.4847 30.2124 3.41635 30.8704C2.34801 31.5344 1.50859 32.4627 0.909846 33.6731C0.305231 34.8776 0.00585938 36.2995 0.00585938 37.9388C0.00585938 39.578 0.305231 40.9706 0.909846 42.1868C1.50859 43.4031 2.34801 44.3431 3.41635 45.0071C4.4847 45.671 5.72915 46.0001 7.1497 46.0001C8.74635 46.0001 10.1141 45.577 11.2646 44.7309C12.4093 43.8848 13.19 42.6627 13.595 41.0646L10.3019 40.1891H10.296Z" fill="#1C3693"/>
<path d="M29.0568 33.6789C28.4405 32.4744 27.5952 31.5402 26.5034 30.8763C25.4174 30.2123 24.1612 29.8833 22.7407 29.8833C21.3201 29.8833 20.0698 30.2182 18.978 30.8763C17.892 31.5402 17.0409 32.4686 16.4304 33.6789C15.8199 34.8834 15.5146 36.3053 15.5146 37.9446C15.5146 39.5839 15.8199 40.9764 16.4304 42.1927C17.0409 43.4089 17.892 44.349 18.978 45.0129C20.0698 45.6769 21.3201 46.0059 22.7407 46.0059C24.1612 46.0059 25.4174 45.6769 26.5034 45.0129C27.5952 44.349 28.4405 43.4148 29.0568 42.1927C29.6673 40.9764 29.9726 39.5604 29.9726 37.9446C29.9726 36.3288 29.6673 34.8893 29.0568 33.6789ZM25.4526 41.7344C24.7717 42.5511 23.8677 42.9624 22.7407 42.9624C21.6136 42.9624 20.7096 42.5511 20.0287 41.7344C19.3478 40.9177 19.0073 39.6485 19.0073 37.9387C19.0073 36.2289 19.3478 34.9598 20.0287 34.1431C20.7096 33.3264 21.6136 32.921 22.7407 32.921C23.8677 32.921 24.7717 33.3264 25.4526 34.1431C26.1336 34.9657 26.474 36.2289 26.474 37.9387C26.474 39.6485 26.1336 40.9177 25.4526 41.7344Z" fill="#1C3693"/>
<path d="M32.7725 30.2065V45.6828H36.1536V30.2065H32.7725ZM44.8471 32.9445C44.6241 32.3569 44.313 31.8458 43.9138 31.4051C42.9981 30.3945 41.8241 29.8833 40.3859 29.8833C39.3939 29.8833 38.5134 30.136 37.7444 30.6413C37.0928 31.0702 36.5645 31.6577 36.1536 32.4157C36.0714 32.5567 36.0069 32.6977 35.9364 32.8505C35.502 33.8141 35.2848 34.9657 35.2848 36.3112H36.1595C36.1595 35.1655 36.4354 34.3018 36.993 33.726C37.5507 33.156 38.2199 32.8681 39.0182 32.8681C39.8165 32.8681 40.515 33.156 41.061 33.726C41.601 34.3018 41.8769 35.1655 41.8769 36.3112V45.6828H45.2874V35.5474C45.2874 34.5603 45.1406 33.6966 44.853 32.9445H44.8471ZM53.0006 31.3992C52.0732 30.3886 50.8991 29.8774 49.4551 29.8774C48.4455 29.8774 47.5474 30.1301 46.7608 30.6354C45.9742 31.1407 45.352 31.8751 44.8941 32.8387C44.8765 32.874 44.8647 32.9034 44.853 32.9327C44.4245 33.8728 44.2073 34.9951 44.2073 36.2936H45.2874C45.2874 35.1478 45.5633 34.2841 46.1151 33.7083C46.6727 33.1384 47.3419 32.8505 48.1402 32.8505C48.9386 32.8505 49.6136 33.1384 50.1654 33.7083C50.723 34.2841 50.9989 35.1478 50.9989 36.2936V45.6652H54.3801V35.5298C54.3801 33.7788 53.9163 32.3981 52.9947 31.3875L53.0006 31.3992Z" fill="#1C3693"/>
<path d="M57.9375 30.2065V45.6828H61.3186V30.2065H57.9375ZM70.0122 32.9445C69.7891 32.3569 69.478 31.8458 69.0788 31.4051C68.1631 30.3945 66.9891 29.8833 65.5509 29.8833C64.5589 29.8833 63.6843 30.136 62.9094 30.6413C62.2637 31.0702 61.7354 31.6577 61.3186 32.4157C61.2365 32.5567 61.1719 32.6977 61.1015 32.8505C60.6671 33.8141 60.444 34.9657 60.444 36.3112H61.3186C61.3186 35.1655 61.5945 34.3018 62.1522 33.726C62.7098 33.156 63.379 32.8681 64.1774 32.8681C64.9757 32.8681 65.6742 33.156 66.2201 33.726C66.7602 34.3018 67.0361 35.1655 67.0361 36.3112V45.6828H70.4466V35.5474C70.4466 34.5603 70.2998 33.6966 70.0122 32.9445ZM78.1598 31.3992C77.2323 30.3886 76.0583 29.8774 74.6143 29.8774C73.6046 29.8774 72.7065 30.1301 71.9199 30.6354C71.1333 31.1407 70.5111 31.8751 70.0533 32.8387C70.0415 32.8681 70.0239 32.9034 70.0122 32.9327C69.5837 33.8787 69.3665 35.001 69.3665 36.2995H70.4466C70.4466 35.1537 70.7224 34.29 71.2742 33.7142C71.8319 33.1443 72.5011 32.8564 73.2994 32.8564C74.0977 32.8564 74.7728 33.1443 75.3246 33.7142C75.8763 34.29 76.1522 35.1537 76.1522 36.2995V45.671H79.5334V35.5356C79.5334 33.7847 79.0696 32.4039 78.1481 31.3933L78.1598 31.3992Z" fill="#1C3693"/>
<path d="M91.9364 39.2255C91.9364 40.0598 91.7309 40.7766 91.3083 41.3701C90.8915 41.9635 90.3691 42.4159 89.7351 42.7273C89.1011 43.0387 88.4554 43.1915 87.798 43.1915C87.0995 43.1915 86.5829 43.0211 86.2542 42.6803C85.9196 42.3396 85.7552 41.9635 85.7552 41.5581C85.7552 41.0704 85.9489 40.6415 86.3422 40.2713C86.7296 39.9071 87.393 39.6309 88.3263 39.4546L91.9422 38.7143L92.7582 38.5498V36.1232L91.9422 36.2583L87.1582 37.0574C85.5263 37.3512 84.3171 37.9211 83.5305 38.7789C82.7439 39.6368 82.3506 40.6474 82.3506 41.8166C82.3506 43.0446 82.7556 44.0435 83.5598 44.8249C84.364 45.6005 85.4676 45.9942 86.8705 45.9942C87.98 45.9942 88.9896 45.718 89.9053 45.1775C90.7447 44.6722 91.4315 43.973 91.9598 43.0623C92.0068 42.9859 92.0479 42.9095 92.0949 42.8272C92.6408 41.8049 92.9108 40.6063 92.9108 39.2196H91.9481L91.9364 39.2255ZM95.3234 42.2338V35.6943C95.3234 33.8846 94.7775 32.4627 93.6915 31.4286C92.5997 30.4004 91.0852 29.8833 89.1422 29.8833C87.528 29.8833 86.1426 30.2711 84.9862 31.0349C83.8298 31.8046 83.0433 32.9386 82.6382 34.4369L85.8433 35.3417C86.0781 34.4663 86.4596 33.8141 86.9938 33.3852C87.528 32.9562 88.1737 32.7447 88.9309 32.7447C89.7468 32.7447 90.4512 32.9974 91.0441 33.5027C91.637 34.008 91.9305 34.8541 91.9305 36.0409V42.5805C91.9305 42.7391 91.9305 42.9036 91.9422 43.0623C91.954 43.4148 91.9833 43.7673 92.0303 44.1257C92.1007 44.6487 92.1946 45.1657 92.3062 45.671H95.746C95.4525 44.5253 95.3058 43.3737 95.3058 42.222L95.3234 42.2338Z" fill="#1C3693"/>
<path d="M98.8809 30.2065V45.6828H102.262V30.2065H98.8809ZM111.507 32.7153C111.061 31.7987 110.439 31.0995 109.641 30.6119C108.842 30.1242 107.921 29.8833 106.87 29.8833C105.819 29.8833 104.88 30.1595 104.041 30.7059C103.307 31.1877 102.708 31.8516 102.262 32.7036C102.197 32.8152 102.145 32.9327 102.086 33.0561C101.622 34.0785 101.387 35.3006 101.387 36.7225H102.262C102.262 35.4592 102.579 34.5015 103.207 33.8493C103.835 33.1971 104.61 32.8681 105.526 32.8681C106.441 32.8681 107.216 33.1971 107.844 33.8493C108.473 34.5015 108.795 35.4592 108.795 36.7225V45.6886H112.177V35.9645C112.177 34.7189 111.953 33.6378 111.507 32.7212V32.7153Z" fill="#1C3693"/>
<path d="M125.619 32.7152C125.431 32.3274 125.208 31.9749 124.95 31.6635C123.975 30.4766 122.684 29.8832 121.07 29.8832C119.884 29.8832 118.833 30.2063 117.917 30.8468C117.002 31.4872 116.291 32.4097 115.775 33.6024C115.258 34.801 115 36.2464 115 37.9386C115 39.6308 115.258 41.0527 115.775 42.263C116.291 43.4675 117.002 44.39 117.917 45.0363C118.833 45.6826 119.884 45.9999 121.07 45.9999C122.684 45.9999 123.975 45.4065 124.95 44.2196C125.208 43.9082 125.431 43.5557 125.619 43.1679C126.147 42.1044 126.405 40.7706 126.405 39.1666V36.7106C126.405 35.1124 126.147 33.7787 125.619 32.7093V32.7152ZM124.785 41.7636C124.116 42.5803 123.236 42.9916 122.144 42.9916C121.052 42.9916 120.177 42.5803 119.502 41.7636C118.833 40.9469 118.499 39.6719 118.499 37.9386C118.499 36.2053 118.833 34.9303 119.502 34.1136C120.172 33.291 121.052 32.8856 122.144 32.8856C123.236 32.8856 124.11 33.291 124.785 34.1136C125.455 34.9303 125.789 36.2053 125.789 37.9386C125.789 39.6719 125.455 40.9469 124.785 41.7636ZM125.619 24.8008V33.9961L126.083 37.9386L125.619 41.9399V45.6768H129V24.8008H125.619Z" fill="#1C3693"/>
</g>
<defs>
<clipPath id="clip0_1552_11709">
<rect width="129" height="46" fill="white"/>
</clipPath>
</defs>
</svg>
