<svg xmlns="http://www.w3.org/2000/svg" width="24" height="24" viewBox="0 0 24 24" fill="none">
  <path d="M7.22682 16.7727C7.07649 16.6224 7.00137 16.4457 7.00148 16.2425C7.0016 16.0393 7.07679 15.8626 7.22705 15.7123L10.9394 12L7.22705 8.28768C7.07679 8.13742 7.00168 7.96063 7.00173 7.75731C7.00178 7.55397 7.07696 7.37714 7.22728 7.22682C7.37761 7.07649 7.55436 7.00139 7.75754 7.00151C7.9607 7.00161 8.13741 7.07679 8.28767 7.22705L12 10.9394L15.7123 7.22705C15.8626 7.07679 16.0394 7.00168 16.2427 7.00172C16.446 7.00178 16.6229 7.07697 16.7732 7.22728C16.9235 7.37762 16.9986 7.55436 16.9985 7.75753C16.9984 7.9607 16.9232 8.13742 16.773 8.28768L13.0606 12L16.773 15.7123C16.9232 15.8626 16.9983 16.0394 16.9983 16.2427C16.9982 16.446 16.923 16.6229 16.7727 16.7732C16.6224 16.9235 16.4456 16.9986 16.2425 16.9985C16.0393 16.9984 15.8626 16.9232 15.7123 16.773L12 13.0606L8.28767 16.773C8.13741 16.9232 7.96062 16.9983 7.75729 16.9983C7.55396 16.9982 7.37714 16.9231 7.22682 16.7727Z" fill="white"/>
</svg>