<svg width="144" height="144" viewBox="0 0 144 144" fill="none" xmlns="http://www.w3.org/2000/svg">
<path d="M12.3053 1.5H48.4917H69.1329C71.9248 1.5 74.6024 2.60909 76.5766 4.58329L90.1481 18.1548C92.1223 20.129 93.2313 22.8066 93.2313 25.5985V97.5588C93.2313 103.373 88.5183 108.086 82.7044 108.086H12.3053C6.49141 108.086 1.77832 103.373 1.77832 97.5588V12.027C1.77832 6.21309 6.49141 1.5 12.3053 1.5Z" stroke="#B0BEC5" stroke-width="2.63174" stroke-linecap="round" stroke-dasharray="5 5"/>
<ellipse cx="72.8352" cy="73.2144" rx="34.2126" ry="34.2127" fill="white"/>
<path d="M134.757 142.07L96.9002 104.214C93.6105 106.93 89.8274 109.055 85.5508 110.591C81.2742 112.126 76.85 112.893 72.2783 112.893C61.0331 112.893 51.5159 109 43.7268 101.213C35.9378 93.4256 32.0432 83.9109 32.0432 72.6686C32.0432 61.4262 35.9368 51.908 43.7239 44.114C51.511 36.3201 61.0257 32.4231 72.2681 32.4231C83.5103 32.4231 93.0285 36.3176 100.822 44.1067C108.616 51.8958 112.513 61.413 112.513 72.6582C112.513 77.3566 111.725 81.844 110.147 86.1206C108.57 90.3972 106.465 94.1171 103.834 97.2802L141.855 135.301C142.766 136.195 143.221 137.291 143.221 138.59C143.221 139.89 142.706 141.054 141.677 142.084C140.733 143.028 139.582 143.5 138.224 143.5C136.866 143.5 135.71 143.024 134.757 142.07ZM72.2783 103.025C80.7556 103.025 87.9359 100.083 93.8194 94.1994C99.7029 88.3159 102.645 81.1355 102.645 72.6582C102.645 64.1809 99.7029 57.0005 93.8194 51.1171C87.9359 45.2336 80.7556 42.2918 72.2783 42.2918C63.801 42.2918 56.6206 45.2336 50.7371 51.1171C44.8538 57.0005 41.9121 64.1809 41.9121 72.6582C41.9121 81.1355 44.8538 88.3159 50.7371 94.1994C56.6206 100.083 63.801 103.025 72.2783 103.025Z" fill="#B0BEC5"/>
<path d="M77.8539 64.2736C77.8539 62.5979 77.2939 61.2519 76.1739 60.2358C75.0536 59.22 73.5749 58.7121 71.7378 58.7121C70.5748 58.7121 69.5438 58.9494 68.6447 59.4239C67.7456 59.8989 66.9694 60.6138 66.3163 61.5687C65.9313 62.1126 65.4168 62.434 64.7728 62.5327C64.1291 62.6319 63.5664 62.4746 63.0847 62.0609C62.7285 61.751 62.525 61.3627 62.4743 60.8959C62.4235 60.4288 62.5321 59.9856 62.8 59.5665C63.8304 58.0081 65.1048 56.823 66.6232 56.0112C68.1414 55.1994 69.8462 54.7935 71.7378 54.7935C74.7588 54.7935 77.2178 55.6586 79.1148 57.3888C81.0114 59.119 81.9597 61.3723 81.9597 64.1488C81.9597 65.6189 81.645 66.966 81.0155 68.1902C80.3856 69.4147 79.3123 70.7321 77.7955 72.1423C76.3748 73.4304 75.4055 74.4758 74.8877 75.2785C74.3698 76.0812 74.0692 76.9833 73.986 77.9849C73.9028 78.5627 73.6635 79.044 73.2681 79.429C72.8723 79.8143 72.396 80.0069 71.8392 80.0069C71.2825 80.0069 70.8064 79.8163 70.4109 79.4351C70.0155 79.0539 69.8178 78.5849 69.8178 78.0281C69.8178 76.6699 70.128 75.4282 70.7483 74.3028C71.3691 73.1774 72.408 71.9667 73.8653 70.6709C75.4213 69.3049 76.475 68.1652 77.0263 67.2515C77.578 66.3382 77.8539 65.3456 77.8539 64.2736ZM71.7378 91.6379C70.9077 91.6379 70.1927 91.3381 69.593 90.7383C68.9933 90.1386 68.6934 89.4236 68.6934 88.5936C68.6934 87.7635 68.9933 87.0485 69.593 86.4488C70.1927 85.8491 70.9077 85.5492 71.7378 85.5492C72.5679 85.5492 73.2828 85.8491 73.8825 86.4488C74.4823 87.0485 74.7821 87.7635 74.7821 88.5936C74.7821 89.4236 74.4823 90.1386 73.8825 90.7383C73.2828 91.3381 72.5679 91.6379 71.7378 91.6379Z" fill="#607D8B"/>
</svg>
