<svg xmlns="http://www.w3.org/2000/svg" width="32" height="32" viewBox="0 0 32 32" fill="none">
<path d="M16 19.5485C15.8479 19.5485 15.7004 19.5229 15.5577 19.4716C15.415 19.4203 15.2812 19.3323 15.1564 19.2075L9.14359 13.1947C8.95043 13.0016 8.85728 12.7708 8.86412 12.5024C8.87094 12.234 8.97094 12.0033 9.16412 11.8101C9.35728 11.617 9.59145 11.5204 9.86665 11.5204C10.1419 11.5204 10.376 11.617 10.5692 11.8101L16 17.2409L21.4513 11.7896C21.6444 11.5965 21.8752 11.5033 22.1436 11.5101C22.4119 11.517 22.6427 11.617 22.8359 11.8101C23.029 12.0033 23.1256 12.2375 23.1256 12.5127C23.1256 12.7879 23.029 13.0221 22.8359 13.2152L16.8436 19.2075C16.7188 19.3323 16.5872 19.4203 16.4487 19.4716C16.3102 19.5229 16.1607 19.5485 16 19.5485Z" fill="#2196F3"/>
</svg>