<svg xmlns="http://www.w3.org/2000/svg" width="32" height="32" viewBox="0 0 32 32" fill="#4AA3EB">
<path d="M14.1336 21.1385L23.0977 12.1744L21.6926 10.7693L14.1336 18.3283L10.3336 14.5283L8.92852 15.9334L14.1336 21.1385ZM7.07726 27.3334C6.40375 27.3334 5.83366 27.1 5.36699 26.6334C4.90033 26.1667 4.66699 25.5966 4.66699 24.9231V7.07702C4.66699 6.40351 4.90033 5.83341 5.36699 5.36675C5.83366 4.90008 6.40375 4.66675 7.07726 4.66675H24.9233C25.5968 4.66675 26.1669 4.90008 26.6336 5.36675C27.1003 5.83341 27.3336 6.40351 27.3336 7.07702V24.9231C27.3336 25.5966 27.1003 26.1667 26.6336 26.6334C26.1669 27.1 25.5968 27.3334 24.9233 27.3334H7.07726ZM7.07726 25.3334H24.9233C25.0259 25.3334 25.1199 25.2906 25.2054 25.2052C25.2909 25.1197 25.3336 25.0257 25.3336 24.9231V7.07702C25.3336 6.97444 25.2909 6.8804 25.2054 6.79492C25.1199 6.70945 25.0259 6.66672 24.9233 6.66672H7.07726C6.97468 6.66672 6.88065 6.70945 6.79516 6.79492C6.70969 6.8804 6.66696 6.97444 6.66696 7.07702V24.9231C6.66696 25.0257 6.70969 25.1197 6.79516 25.2052C6.88065 25.2906 6.97468 25.3334 7.07726 25.3334Z" fill="#2196F3"/>
</svg>