<svg xmlns="http://www.w3.org/2000/svg" width="33" height="32" viewBox="0 0 33 32" fill="#EDB900">
<path d="M16.6666 21.9999C18.3316 21.9999 19.7478 21.4161 20.9153 20.2486C22.0828 19.0811 22.6666 17.6648 22.6666 15.9999C22.6666 14.335 22.0828 12.9187 20.9153 11.7512C19.7478 10.5837 18.3316 9.99992 16.6666 9.99992C15.0017 9.99992 13.5855 10.5837 12.4179 11.7512C11.2504 12.9187 10.6667 14.335 10.6667 15.9999C10.6667 17.6648 11.2504 19.0811 12.4179 20.2486C13.5855 21.4161 15.0017 21.9999 16.6666 21.9999ZM16.6689 28.6665C14.917 28.6665 13.2702 28.3341 11.7287 27.6692C10.1872 27.0043 8.84629 26.102 7.706 24.9622C6.56569 23.8224 5.66294 22.4821 4.99777 20.9412C4.33259 19.4004 4 17.754 4 16.0021C4 14.2502 4.33244 12.6035 4.99733 11.062C5.66222 9.52045 6.56456 8.17954 7.70433 7.03925C8.84413 5.89894 10.1845 4.9962 11.7253 4.33102C13.2661 3.66584 14.9125 3.33325 16.6644 3.33325C18.4163 3.33325 20.063 3.6657 21.6045 4.33059C23.1461 4.99548 24.487 5.89781 25.6273 7.03759C26.7676 8.17739 27.6703 9.51771 28.3355 11.0586C29.0007 12.5994 29.3333 14.2457 29.3333 15.9977C29.3333 17.7496 29.0008 19.3963 28.3359 20.9378C27.671 22.4793 26.7687 23.8202 25.6289 24.9605C24.4891 26.1008 23.1488 27.0036 21.608 27.6688C20.0671 28.3339 18.4208 28.6665 16.6689 28.6665ZM16.6666 26.6666C19.6444 26.6666 22.1666 25.6332 24.2333 23.5666C26.3 21.4999 27.3333 18.9777 27.3333 15.9999C27.3333 13.0221 26.3 10.4999 24.2333 8.43322C22.1666 6.36655 19.6444 5.33322 16.6666 5.33322C13.6889 5.33322 11.1666 6.36655 9.09997 8.43322C7.0333 10.4999 5.99997 13.0221 5.99997 15.9999C5.99997 18.9777 7.0333 21.4999 9.09997 23.5666C11.1666 25.6332 13.6889 26.6666 16.6666 26.6666Z" fill="#EDB900"/>
</svg>