<svg width="24" height="32" viewBox="0 0 24 32" fill="none" xmlns="http://www.w3.org/2000/svg">
<path fillRule="evenodd" clipRule="evenodd" d="M4 0C1.79086 0 0 1.79086 0 4V28C0 30.2091 1.79086 32 4 32H20C22.2091 32 24 30.2091 24 28V10H14V0H4Z" fill="#8F00FA"/>
<path d="M14 0L19 5L24 10H14V0Z" fill="#8F00FA" fillOpacity="0.5"/>
<path d="M11.2973 21.9632L13.8382 20.3311C13.963 20.2518 14.0254 20.1417 14.0254 20.0007C14.0254 19.8598 13.963 19.7493 13.8382 19.6693L11.2973 18.0371C11.1664 17.9474 11.0322 17.9402 10.8945 18.0155C10.7569 18.0909 10.6882 18.2084 10.6882 18.368V21.6323C10.6882 21.792 10.7569 21.9095 10.8945 21.9848C11.0322 22.0602 11.1664 22.053 11.2973 21.9632ZM12.0017 25.5418C11.2352 25.5418 10.5147 25.3964 9.84028 25.1055C9.16585 24.8146 8.57921 24.4198 8.08036 23.9212C7.58151 23.4225 7.18655 22.8361 6.89546 22.162C6.60448 21.4879 6.45898 20.7676 6.45898 20.0012C6.45898 19.2347 6.60443 18.5142 6.89532 17.8398C7.18621 17.1654 7.58098 16.5787 8.07963 16.0799C8.57828 15.581 9.16468 15.1861 9.83882 14.895C10.513 14.604 11.2332 14.4585 11.9996 14.4585C12.7661 14.4585 13.4866 14.6039 14.161 14.8948C14.8355 15.1857 15.4221 15.5805 15.9209 16.0791C16.4198 16.5778 16.8148 17.1642 17.1058 17.8383C17.3968 18.5125 17.5423 19.2327 17.5423 19.9991C17.5423 20.7656 17.3969 21.4861 17.106 22.1605C16.8151 22.835 16.4203 23.4216 15.9217 23.9205C15.423 24.4193 14.8366 24.8143 14.1625 25.1054C13.4883 25.3963 12.7681 25.5418 12.0017 25.5418Z" fill="white"/>
</svg>