<svg width="57" height="57" viewBox="0 0 57 57" fill="none" xmlns="http://www.w3.org/2000/svg">
<path d="M28.8099 51.1462C25.7467 51.1462 22.8667 50.5636 20.1699 49.3984C17.4731 48.2333 15.1271 46.653 13.1318 44.6577C11.1365 42.6625 9.55624 40.3164 8.39109 37.6196C7.2259 34.9229 6.64331 32.0428 6.64331 28.9796C6.64331 24.8903 7.67686 21.1077 9.74396 17.6316C11.811 14.1556 14.6409 11.4483 18.2336 9.50986C18.2875 10.0692 18.3578 10.6346 18.4445 11.206C18.5313 11.7773 18.6734 12.4339 18.8708 13.1758C16.1456 14.9018 14.0097 17.1559 12.4631 19.9379C10.9165 22.72 10.1433 25.7339 10.1433 28.9796C10.1433 34.1907 11.9516 38.6046 15.5683 42.2213C19.1849 45.8379 23.5988 47.6463 28.8099 47.6463C34.021 47.6463 38.4349 45.8379 42.0516 42.2213C45.6683 38.6046 47.4766 34.1907 47.4766 28.9796C47.4766 25.7339 46.6996 22.7103 45.1455 19.9088C43.5915 17.1073 41.4324 14.8435 38.6683 13.1174C38.8657 12.3905 39.0115 11.7451 39.1058 11.1813C39.2 10.6174 39.286 10.0602 39.3638 9.50986C42.9565 11.4483 45.7901 14.1496 47.8647 17.6136C49.9392 21.0777 50.9765 24.8664 50.9765 28.9796C50.9765 32.0428 50.3939 34.9229 49.2287 37.6196C48.0636 40.3164 46.4834 42.6625 44.4881 44.6577C42.4928 46.653 40.1468 48.2333 37.45 49.3984C34.7532 50.5636 31.8732 51.1462 28.8099 51.1462ZM28.8099 41.8129C25.2501 41.8129 22.2213 40.5639 19.7235 38.0661C17.2256 35.5682 15.9766 32.5394 15.9766 28.9796C15.9766 27.0382 16.3827 25.2067 17.1949 23.4851C18.0071 21.7636 19.1625 20.3015 20.6612 19.0989C20.8258 19.5776 20.9985 20.1026 21.1795 20.6739C21.3604 21.2453 21.593 21.9378 21.8772 22.7514C21.0965 23.6159 20.5012 24.5777 20.0913 25.6367C19.6815 26.6956 19.4766 27.8099 19.4766 28.9796C19.4766 31.5463 20.3905 33.7435 22.2183 35.5713C24.046 37.399 26.2433 38.3129 28.8099 38.3129C31.3766 38.3129 33.5738 37.399 35.4016 35.5713C37.2294 33.7435 38.1433 31.5463 38.1433 28.9796C38.1433 27.795 37.9346 26.6807 37.5173 25.6367C37.1 24.5926 36.501 23.6309 35.7202 22.7514C35.9416 22.1023 36.1076 21.6072 36.2183 21.2662C36.3289 20.9253 36.5563 20.1954 36.9003 19.0765C38.414 20.279 39.5829 21.7448 40.407 23.4739C41.2311 25.2029 41.6432 27.0382 41.6432 28.9796C41.6432 32.5394 40.3943 35.5682 37.8964 38.0661C35.3986 40.5639 32.3697 41.8129 28.8099 41.8129ZM26.9253 20.2295C25.4865 15.889 24.5658 12.9199 24.1635 11.3225C23.7611 9.72511 23.56 8.22192 23.56 6.81293C23.56 5.34414 24.0678 4.10195 25.0834 3.08637C26.0989 2.07078 27.3411 1.56299 28.8099 1.56299C30.2787 1.56299 31.5209 2.07078 32.5365 3.08637C33.5521 4.10195 34.0599 5.34414 34.0599 6.81293C34.0599 8.22192 33.8587 9.72511 33.4563 11.3225C33.054 12.9199 32.1334 15.889 30.6945 20.2295H26.9253ZM28.8099 33.0629C27.6762 33.0629 26.7122 32.6658 25.918 31.8715C25.1238 31.0773 24.7266 30.1134 24.7266 28.9796C24.7266 27.8458 25.1238 26.8819 25.918 26.0877C26.7122 25.2934 27.6762 24.8963 28.8099 24.8963C29.9437 24.8963 30.9077 25.2934 31.7019 26.0877C32.4961 26.8819 32.8932 27.8458 32.8932 28.9796C32.8932 30.1134 32.4961 31.0773 31.7019 31.8715C30.9077 32.6658 29.9437 33.0629 28.8099 33.0629Z" fill="#FF5252"/>
</svg>
