<svg width="96" height="61" viewBox="0 0 96 61" fill="none" xmlns="http://www.w3.org/2000/svg">
<g clipPath="url(#clip0_4029_26639)">
<path d="M90.75 1.30469H5.25C2.83375 1.30469 0.875 3.26344 0.875 5.67969V55.1797C0.875 57.5959 2.83375 59.5547 5.25 59.5547H90.75C93.1662 59.5547 95.125 57.5959 95.125 55.1797V5.67969C95.125 3.26344 93.1662 1.30469 90.75 1.30469Z" fill="white" stroke="#4694E2" strokeWidth="2"/>
<path d="M35.5728 4.7168H7.28711C5.63026 4.7168 4.28711 6.05994 4.28711 7.7168V53.1454C4.28711 54.8022 5.63026 56.1454 7.28711 56.1454H35.5728C37.2297 56.1454 38.5728 54.8022 38.5728 53.1454V7.7168C38.5728 6.05994 37.2297 4.7168 35.5728 4.7168Z" fill="#4694E2"/>
<path d="M49.7163 25.1797C49.7163 24.7655 50.0521 24.4297 50.4663 24.4297H84.9663C85.3805 24.4297 85.7163 24.7655 85.7163 25.1797C85.7163 25.5939 85.3805 25.9297 84.9663 25.9297H50.4663C50.0521 25.9297 49.7163 25.5939 49.7163 25.1797Z" fill="#2196F3"/>
<path d="M49.7163 25.1797C49.7163 24.7655 50.0521 24.4297 50.4663 24.4297H84.9663C85.3805 24.4297 85.7163 24.7655 85.7163 25.1797C85.7163 25.5939 85.3805 25.9297 84.9663 25.9297H50.4663C50.0521 25.9297 49.7163 25.5939 49.7163 25.1797Z" fill="#4694E2"/>
<path d="M49.7163 35.6777C49.7163 35.2635 50.0521 34.9277 50.4663 34.9277H72.9663C73.3805 34.9277 73.7163 35.2635 73.7163 35.6777C73.7163 36.092 73.3805 36.4277 72.9663 36.4277H50.4663C50.0521 36.4277 49.7163 36.092 49.7163 35.6777Z" fill="#4694E2"/>
</g>
<defs>
<clipPath id="clip0_4029_26639">
<rect width="96" height="60" fill="white" transform="translate(0 0.429688)"/>
</clipPath>
</defs>
</svg>
