<svg width="96" height="60" viewBox="0 0 96 60" fill="none" xmlns="http://www.w3.org/2000/svg">
<g clipPath="url(#clip0_14686_62438)">
<path d="M90 1H6C3.23858 1 1 3.23858 1 6V54C1 56.7614 3.23858 59 6 59H90C92.7614 59 95 56.7614 95 54V6C95 3.23858 92.7614 1 90 1Z" fill="white" stroke="#4694E2" strokeWidth="2"/>
<path d="M8.57227 38.75C8.57227 38.3358 8.90806 38 9.32227 38H43.8223C44.2365 38 44.5723 38.3358 44.5723 38.75C44.5723 39.1642 44.2365 39.5 43.8223 39.5H9.32227C8.90805 39.5 8.57227 39.1642 8.57227 38.75Z" fill="#4694E2"/>
<path d="M8.57227 49.25C8.57227 48.8358 8.90806 48.5 9.32227 48.5H31.8223C32.2365 48.5 32.5723 48.8358 32.5723 49.25C32.5723 49.6642 32.2365 50 31.8223 50H9.32227C8.90806 50 8.57227 49.6642 8.57227 49.25Z" fill="#4694E2"/>
<rect x="5" y="5" width="86" height="26" rx="3" fill="#4694E2"/>
</g>
<defs>
<clipPath id="clip0_14686_62438">
<rect width="96" height="60" fill="white"/>
</clipPath>
</defs>
</svg>
