<svg width="58" height="58" viewBox="0 0 58 58" fill="none" xmlns="http://www.w3.org/2000/svg">
<rect x="3.6875" y="3.6875" width="50.625" height="50.625" rx="25.3125" fill="#212121"/>
<rect x="3.6875" y="3.6875" width="50.625" height="50.625" rx="25.3125" stroke="#FAFCFE" stroke-width="5.625"/>
<path d="M28.9995 37.8603C28.7205 37.8603 28.4868 37.766 28.2983 37.5773C28.1099 37.3886 28.0156 37.1549 28.0156 36.8759V29.9853H21.125C20.8461 29.9853 20.6123 29.8909 20.4236 29.7022C20.235 29.5134 20.1406 29.2795 20.1406 29.0005C20.1406 28.7215 20.235 28.4877 20.4236 28.2993C20.6123 28.1108 20.8461 28.0166 21.125 28.0166H28.0156V21.1259C28.0156 20.847 28.11 20.6132 28.2987 20.4246C28.4875 20.2359 28.7214 20.1416 29.0004 20.1416C29.2794 20.1416 29.5132 20.2359 29.7016 20.4246C29.8901 20.6132 29.9843 20.847 29.9843 21.1259V28.0166H36.875C37.1539 28.0166 37.3877 28.111 37.5763 28.2997C37.765 28.4885 37.8593 28.7224 37.8593 29.0014C37.8593 29.2804 37.765 29.5142 37.5763 29.7026C37.3877 29.8911 37.1539 29.9853 36.875 29.9853H29.9843V36.8759C29.9843 37.1549 29.8899 37.3886 29.7012 37.5773C29.5124 37.766 29.2786 37.8603 28.9995 37.8603Z" fill="white"/>
</svg>
