<svg width="20" height="20" viewBox="0 0 20 20" fill="none" xmlns="http://www.w3.org/2000/svg">
<path d="M3.33348 17.2923C3.15639 17.2923 3.00796 17.2324 2.88818 17.1125C2.76839 16.9927 2.7085 16.8442 2.7085 16.667C2.7085 16.4899 2.76839 16.3415 2.88818 16.2218C3.00796 16.1021 3.15639 16.0423 3.33348 16.0423H16.6668C16.8439 16.0423 16.9923 16.1022 17.1121 16.2221C17.2319 16.3419 17.2918 16.4904 17.2918 16.6676C17.2918 16.8447 17.2319 16.9931 17.1121 17.1128C16.9923 17.2325 16.8439 17.2923 16.6668 17.2923H3.33348ZM6.66681 13.9589C6.48973 13.9589 6.34129 13.899 6.22152 13.7792C6.10173 13.6593 6.04183 13.5108 6.04183 13.3337C6.04183 13.1565 6.10173 13.0081 6.22152 12.8885C6.34129 12.7688 6.48973 12.709 6.66681 12.709H13.3335C13.5106 12.709 13.659 12.7689 13.7788 12.8887C13.8986 13.0086 13.9585 13.1571 13.9585 13.3342C13.9585 13.5114 13.8986 13.6598 13.7788 13.7795C13.659 13.8991 13.5106 13.9589 13.3335 13.9589H6.66681ZM3.33348 10.6256C3.15639 10.6256 3.00796 10.5657 2.88818 10.4459C2.76839 10.326 2.7085 10.1775 2.7085 10.0004C2.7085 9.82319 2.76839 9.67478 2.88818 9.55513C3.00796 9.43548 3.15639 9.37565 3.33348 9.37565H16.6668C16.8439 9.37565 16.9923 9.43557 17.1121 9.5554C17.2319 9.67525 17.2918 9.82375 17.2918 10.0009C17.2918 10.1781 17.2319 10.3265 17.1121 10.4461C16.9923 10.5658 16.8439 10.6256 16.6668 10.6256H3.33348ZM6.66681 7.29228C6.48973 7.29228 6.34129 7.23236 6.22152 7.11253C6.10173 6.99268 6.04183 6.84418 6.04183 6.66703C6.04183 6.48986 6.10173 6.34145 6.22152 6.2218C6.34129 6.10215 6.48973 6.04232 6.66681 6.04232H13.3335C13.5106 6.04232 13.659 6.10224 13.7788 6.22207C13.8986 6.34192 13.9585 6.49042 13.9585 6.66757C13.9585 6.84474 13.8986 6.99314 13.7788 7.1128C13.659 7.23245 13.5106 7.29228 13.3335 7.29228H6.66681ZM3.33348 3.95894C3.15639 3.95894 3.00796 3.89903 2.88818 3.77919C2.76839 3.65935 2.7085 3.51085 2.7085 3.33369C2.7085 3.15653 2.76839 3.00812 2.88818 2.88846C3.00796 2.76881 3.15639 2.70898 3.33348 2.70898H16.6668C16.8439 2.70898 16.9923 2.7689 17.1121 2.88874C17.2319 3.00858 17.2918 3.15708 17.2918 3.33423C17.2918 3.5114 17.2319 3.65981 17.1121 3.77946C16.9923 3.89912 16.8439 3.95894 16.6668 3.95894H3.33348Z" fill="white"/>
</svg>
