<svg width="56" height="57" viewBox="0 0 56 57" fill="none" xmlns="http://www.w3.org/2000/svg">
<path d="M27.1835 41.9375L35.8077 25.1108H29.1667V14.0276L20.2373 30.9441H27.1835V41.9375ZM28.004 50.1941C24.9382 50.1941 22.0564 49.6123 19.3588 48.4487C16.6611 47.2852 14.3145 45.7061 12.319 43.7115C10.3235 41.7168 8.74365 39.3713 7.57959 36.6748C6.41553 33.9783 5.8335 31.0972 5.8335 28.0314C5.8335 24.9655 6.41527 22.0838 7.57883 19.3861C8.74239 16.6884 10.3215 14.3418 12.3161 12.3463C14.3107 10.3508 16.6563 8.771 19.3528 7.60693C22.0492 6.44287 24.9304 5.86084 27.9962 5.86084C31.062 5.86084 33.9438 6.44262 36.6414 7.60618C39.3391 8.76973 41.6857 10.3488 43.6812 12.3434C45.6768 14.3381 47.2566 16.6836 48.4206 19.3801C49.5847 22.0766 50.1667 24.9577 50.1667 28.0235C50.1667 31.0894 49.5849 33.9711 48.4214 36.6688C47.2578 39.3665 45.6787 41.7131 43.6841 43.7086C41.6895 45.7041 39.3439 47.2839 36.6474 48.448C33.951 49.612 31.0699 50.1941 28.004 50.1941ZM28.0001 46.6941C33.2112 46.6941 37.6251 44.8858 41.2418 41.2691C44.8584 37.6525 46.6668 33.2386 46.6668 28.0275C46.6668 22.8163 44.8584 18.4025 41.2418 14.7858C37.6251 11.1691 33.2112 9.36078 28.0001 9.36078C22.789 9.36078 18.3751 11.1691 14.7584 14.7858C11.1418 18.4025 9.33344 22.8163 9.33344 28.0275C9.33344 33.2386 11.1418 37.6525 14.7584 41.2691C18.3751 44.8858 22.789 46.6941 28.0001 46.6941Z" fill="#2196F3"/>
</svg>
