<svg width="57" height="57" viewBox="0 0 57 57" fill="none" xmlns="http://www.w3.org/2000/svg">
<path d="M28.8138 51.1462C25.748 51.1462 22.8662 50.5644 20.1686 49.4009C17.4709 48.2373 15.1243 46.6582 13.1288 44.6636C11.1333 42.669 9.55346 40.3234 8.3894 37.6269C7.22534 34.9305 6.64331 32.0494 6.64331 28.9835C6.64331 25.9177 7.22519 23.0359 8.38894 20.3383C9.55269 17.6406 11.1321 15.294 13.1271 13.2985C15.1221 11.3029 17.468 9.72314 20.165 8.55908C22.8619 7.39502 25.7435 6.81299 28.8099 6.81299C30.7514 6.81299 32.633 7.06054 34.4548 7.55563C36.2766 8.05073 38.0191 8.76644 39.6824 9.70276C40.1311 9.95406 40.4242 10.316 40.5619 10.7886C40.6995 11.2613 40.6187 11.7025 40.3196 12.1123C40.0204 12.5222 39.6248 12.7787 39.1327 12.8819C38.6406 12.9851 38.1658 12.911 37.7081 12.6597C36.344 11.8969 34.9088 11.3151 33.4026 10.9142C31.8964 10.5134 30.3655 10.3129 28.8099 10.3129C23.6377 10.3129 19.2335 12.131 15.5974 15.7671C11.9613 19.4032 10.1433 23.8074 10.1433 28.9796C10.1433 34.1518 11.9613 38.556 15.5974 42.1921C19.2335 45.8282 23.6377 47.6463 28.8099 47.6463C33.9821 47.6463 38.3863 45.8282 42.0224 42.1921C45.6585 38.556 47.4766 34.1518 47.4766 28.9796C47.4766 28.528 47.4594 28.0905 47.425 27.6672C47.3906 27.2438 47.3315 26.8093 47.2477 26.3635C47.17 25.8666 47.2552 25.3917 47.5035 24.9386C47.7518 24.4856 48.1256 24.1918 48.6249 24.0571C49.0948 23.9225 49.5309 23.9809 49.9332 24.2321C50.3356 24.4834 50.5756 24.8454 50.6534 25.318C50.7611 25.9073 50.8419 26.5034 50.8957 27.1063C50.9496 27.7092 50.9765 28.3337 50.9765 28.9796C50.9765 32.046 50.3948 34.9276 49.2312 37.6245C48.0676 40.3215 46.4886 42.6675 44.4939 44.6625C42.4993 46.6575 40.1537 48.2368 37.4573 49.4006C34.7608 50.5643 31.8797 51.1462 28.8138 51.1462ZM25.4984 33.9873L47.2881 12.1617C47.6112 11.8386 48.0113 11.6674 48.4884 11.6479C48.9656 11.6285 49.3867 11.8014 49.7519 12.1666C50.0867 12.5013 50.2541 12.9095 50.2541 13.3912C50.2541 13.8728 50.0851 14.2826 49.747 14.6206L26.9746 37.4289C26.5528 37.8507 26.0608 38.0616 25.4984 38.0616C24.936 38.0616 24.4439 37.8507 24.0221 37.4289L17.6189 31.0257C17.2959 30.7026 17.1306 30.2966 17.1231 29.8075C17.1156 29.3184 17.2809 28.9049 17.6189 28.5668C17.9569 28.2288 18.3668 28.0597 18.8484 28.0597C19.33 28.0597 19.7398 28.2288 20.0778 28.5668L25.4984 33.9873Z" fill="#4CAF50"/>
</svg>
