<svg
      width="25"
      height="25"
      viewBox="0 0 25 25"
      fill="none"
      xmlns="http://www.w3.org/2000/svg"
    >
      <g id="icons/delete">
        <path
          id="Vector"
          d="M7.8077 21C7.30898 21 6.88302 20.8234 6.52982 20.4702C6.17661 20.117 6 19.691 6 19.1923V6.50005H5V5.00008H9.49997V4.11548H15.5V5.00008H20V6.50005H19V19.1923C19 19.6975 18.825 20.125 18.475 20.475C18.125 20.825 17.6974 21 17.1922 21H7.8077ZM17.5 6.50005H7.49997V19.1923C7.49997 19.2821 7.52883 19.3558 7.58652 19.4135C7.64423 19.4712 7.71795 19.5001 7.8077 19.5001H17.1922C17.2692 19.5001 17.3397 19.468 17.4038 19.4039C17.4679 19.3398 17.5 19.2693 17.5 19.1923V6.50005ZM9.90385 17.5001H11.4038V8.50005H9.90385V17.5001ZM13.5961 17.5001H15.0961V8.50005H13.5961V17.5001Z"
          fill="#263238"
        />
      </g>
    </svg>