 <svg
      width="25"
      height="25"
      viewBox="0 0 25 25"
      fill="none"
      xmlns="http://www.w3.org/2000/svg"
    >
      <g id="icons/image">
        <path
          id="Vector"
          d="M5.75 22C4.98718 22 4.33815 21.7323 3.8029 21.1971C3.26763 20.6618 3 20.0128 3 19.25V5.75C3 4.98718 3.26763 4.33815 3.8029 3.8029C4.33815 3.26763 4.98718 3 5.75 3H19.25C20.0128 3 20.6618 3.26763 21.1971 3.8029C21.7323 4.33815 22 4.98718 22 5.75V19.25C22 20.0128 21.7323 20.6618 21.1971 21.1971C20.6618 21.7323 20.0128 22 19.25 22H5.75ZM5.75 20.5H19.25C19.5974 20.5 19.8926 20.3785 20.1356 20.1356C20.3785 19.8926 20.5 19.5974 20.5 19.25V5.75C20.5 5.40255 20.3785 5.10735 20.1356 4.8644C19.8926 4.62145 19.5974 4.49997 19.25 4.49997H5.75C5.40255 4.49997 5.10735 4.62145 4.8644 4.8644C4.62145 5.10735 4.49998 5.40255 4.49998 5.75V19.25C4.49998 19.5974 4.62145 19.8926 4.8644 20.1356C5.10735 20.3785 5.40255 20.5 5.75 20.5ZM7.1058 18L10.5 14.6058L12.3192 16.4L14.5 13.6538L17.9807 18H7.1058ZM8.75 10.25C8.2641 10.25 7.85096 10.0798 7.51058 9.73938C7.17019 9.39901 7 8.98588 7 8.49998C7 8.01408 7.17019 7.60094 7.51058 7.26058C7.85096 6.92019 8.2641 6.75 8.75 6.75C9.23588 6.75 9.64902 6.92019 9.9894 7.26058C10.3298 7.60094 10.5 8.01408 10.5 8.49998C10.5 8.98588 10.3298 9.39901 9.9894 9.73938C9.64902 10.0798 9.23588 10.25 8.75 10.25Z"
          fill="#263238"
        />
      </g>
    </svg>