<svg width="128" height="128" viewBox="0 0 128 128" fill="none" xmlns="http://www.w3.org/2000/svg">
<circle cx="64" cy="64" r="64" fill="white"/>
<path d="M56.0001 94.0126L52.4361 90.5319L58.6028 84.3652H56.0001C49.9702 84.3652 44.8516 82.2562 40.6444 78.0383C36.4371 73.8204 34.3335 68.6965 34.3335 62.6666C34.3335 56.6367 36.4371 51.5181 40.6444 47.3109C44.8516 43.1036 49.9702 41 56.0001 41H76.0001C82.03 41 87.1485 43.1036 91.3558 47.3109C95.563 51.5181 97.6667 56.6367 97.6667 62.6666C97.6667 68.6965 95.563 73.8204 91.3558 78.0383C87.1485 82.2562 82.03 84.3652 76.0001 84.3652V79.3653C80.6326 79.3653 84.5685 77.7403 87.8078 74.4903C91.0471 71.2403 92.6667 67.2991 92.6667 62.6666C92.6667 58.0341 91.0471 54.0982 87.8078 50.8589C84.5685 47.6196 80.6326 45.9999 76.0001 45.9999H56.0001C51.3676 45.9999 47.4317 47.6196 44.1924 50.8589C40.9531 54.0982 39.3334 58.0341 39.3334 62.6666C39.3334 67.2991 40.9531 71.2403 44.1924 74.4903C47.4317 77.7403 51.3676 79.3653 56.0001 79.3653L59.0643 79.7435L52.5194 73.1986L56.0001 69.7179L68.1474 81.8653L56.0001 94.0126Z" fill="#90A4AE"/>
</svg>
