<svg width="64" height="64" viewBox="0 0 64 64" fill="none" xmlns="http://www.w3.org/2000/svg">
<rect width="64" height="64" rx="6.85714" fill="#212121"/>
<path d="M30.7695 49V46H45.3845C45.5512 46 45.6955 45.9487 45.8175 45.846C45.9392 45.7437 46 45.6092 46 45.4425V31.454C46 27.6307 44.632 24.412 41.896 21.798C39.1603 19.184 35.8617 17.877 32 17.877C28.1383 17.877 24.8397 19.184 22.104 21.798C19.368 24.412 18 27.6307 18 31.454V43.2305H16.5C15.541 43.2305 14.718 42.8967 14.031 42.229C13.3437 41.561 13 40.7475 13 39.7885V35.904C13 35.2553 13.1847 34.661 13.554 34.121C13.9233 33.5813 14.4053 33.1475 15 32.8195L15.0925 30.2655C15.2565 28.0885 15.8218 26.0718 16.7885 24.2155C17.7552 22.3592 18.9948 20.7432 20.5075 19.3675C22.0205 17.9918 23.7667 16.92 25.746 16.152C27.7257 15.384 29.8103 15 32 15C34.1897 15 36.2692 15.384 38.2385 16.152C40.2078 16.92 41.954 17.9867 43.477 19.352C45 20.7173 46.2397 22.3282 47.196 24.1845C48.1523 26.0412 48.7228 28.0578 48.9075 30.2345L49 32.7385C49.582 33.0128 50.0608 33.4052 50.4365 33.9155C50.8122 34.4258 51 34.995 51 35.623V40.0885C51 40.7165 50.8122 41.2857 50.4365 41.796C50.0608 42.3063 49.582 42.6987 49 42.973V45.4425C49 46.4268 48.6468 47.2658 47.9405 47.9595C47.2338 48.6532 46.3818 49 45.3845 49H30.7695ZM26.3845 35.5385C25.8948 35.5385 25.4775 35.3725 25.1325 35.0405C24.7878 34.7085 24.6155 34.2975 24.6155 33.8075C24.6155 33.3178 24.7878 32.9038 25.1325 32.5655C25.4775 32.2268 25.8948 32.0575 26.3845 32.0575C26.8745 32.0575 27.2918 32.2268 27.6365 32.5655C27.9815 32.9038 28.154 33.3178 28.154 33.8075C28.154 34.2975 27.9815 34.7085 27.6365 35.0405C27.2918 35.3725 26.8745 35.5385 26.3845 35.5385ZM37.6155 35.5385C37.1255 35.5385 36.7082 35.3725 36.3635 35.0405C36.0185 34.7085 35.846 34.2975 35.846 33.8075C35.846 33.3178 36.0185 32.9038 36.3635 32.5655C36.7082 32.2268 37.1255 32.0575 37.6155 32.0575C38.1052 32.0575 38.5225 32.2268 38.8675 32.5655C39.2122 32.9038 39.3845 33.3178 39.3845 33.8075C39.3845 34.2975 39.2122 34.7085 38.8675 35.0405C38.5225 35.3725 38.1052 35.5385 37.6155 35.5385ZM20.7425 32.4C20.5348 29.136 21.5502 26.343 23.7885 24.021C26.0268 21.6993 28.7973 20.5385 32.1 20.5385C34.8743 20.5385 37.3223 21.3968 39.444 23.1135C41.566 24.8302 42.8538 27.0525 43.3075 29.7805C40.4665 29.7472 37.8415 29.0012 35.4325 27.5425C33.0235 26.0835 31.1742 24.0835 29.8845 21.5425C29.3768 24.0295 28.3128 26.2282 26.6925 28.1385C25.0718 30.0488 23.0885 31.4693 20.7425 32.4Z" fill="white"/>
</svg>
