<svg width="858" height="392" viewBox="0 0 858 392" fill="none" xmlns="http://www.w3.org/2000/svg">
<rect x="314.375" y="227.996" width="111" height="12" fill="url(#paint0_linear_2159_66633)"/>
<path d="M553.875 238.497H393.875C393.599 238.497 393.375 238.273 393.375 237.997V176.582C393.375 176.35 393.535 176.148 393.761 176.095L553.761 138.533C554.075 138.46 554.375 138.698 554.375 139.02V237.997C554.375 238.273 554.151 238.497 553.875 238.497Z" fill="#F2F6FB" stroke="url(#paint1_linear_2159_66633)" stroke-width="3"/>
<path d="M485.613 104.411L344.3 181.285C344.02 181.437 343.672 181.293 343.581 180.988L304.132 48.1932C304.054 47.9285 304.205 47.6501 304.469 47.5715L415.421 14.6114C415.574 14.566 415.739 14.5962 415.866 14.6926L475.453 60.0014C475.546 60.0717 475.611 60.1721 475.637 60.2852L485.86 103.858C485.912 104.077 485.81 104.304 485.613 104.411Z" fill="#F2F6FB" stroke="url(#paint2_linear_2159_66633)" stroke-width="3"/>
<path d="M314.867 317V303.464H319.715V300.992H307.211V303.464H312.059V317H314.867ZM332.391 317V308.792C332.391 306.416 331.143 305.12 328.647 305.12C326.823 305.12 325.311 306.08 324.543 306.992V300.992H322.023V317H324.543V308.912C325.143 308.12 326.247 307.352 327.519 307.352C328.935 307.352 329.871 307.904 329.871 309.704V317H332.391ZM336.911 303.992C337.775 303.992 338.471 303.296 338.471 302.432C338.471 301.568 337.775 300.872 336.911 300.872C336.071 300.872 335.351 301.568 335.351 302.432C335.351 303.296 336.071 303.992 336.911 303.992ZM338.183 317V305.408H335.663V317H338.183ZM345.412 317.288C348.532 317.288 350.236 315.728 350.236 313.688C350.236 309.08 343.228 310.616 343.228 308.552C343.228 307.736 344.068 307.136 345.388 307.136C346.828 307.136 348.124 307.736 348.82 308.528L349.876 306.752C348.82 305.816 347.332 305.12 345.364 305.12C342.436 305.12 340.804 306.752 340.804 308.648C340.804 313.088 347.812 311.456 347.812 313.736C347.812 314.648 347.044 315.296 345.532 315.296C344.02 315.296 342.412 314.504 341.596 313.664L340.444 315.488C341.644 316.664 343.444 317.288 345.412 317.288ZM362.057 317V307.616H364.409V305.408H362.057V304.76C362.057 303.464 362.681 302.816 363.665 302.816C364.097 302.816 364.433 302.912 364.673 303.08L365.225 301.208C364.721 300.92 364.001 300.752 363.209 300.752C361.073 300.752 359.537 302.168 359.537 304.76V305.408H357.617V307.616H359.537V317H362.057ZM367.577 303.992C368.441 303.992 369.137 303.296 369.137 302.432C369.137 301.568 368.441 300.872 367.577 300.872C366.737 300.872 366.017 301.568 366.017 302.432C366.017 303.296 366.737 303.992 367.577 303.992ZM368.849 317V305.408H366.329V317H368.849ZM374.629 317V300.992H372.109V317H374.629ZM383.25 317.288C385.098 317.288 386.802 316.712 387.954 315.608L386.802 313.952C385.986 314.768 384.642 315.224 383.514 315.224C381.33 315.224 380.01 313.784 379.818 312.032H388.77V311.432C388.77 307.784 386.538 305.12 383.058 305.12C379.626 305.12 377.178 307.832 377.178 311.192C377.178 314.864 379.77 317.288 383.25 317.288ZM386.322 310.256H379.794C379.914 308.84 380.898 307.184 383.058 307.184C385.338 307.184 386.274 308.888 386.322 310.256ZM408.101 317V300.992H405.581V307.016C404.645 305.792 403.301 305.12 401.861 305.12C398.861 305.12 396.701 307.472 396.701 311.216C396.701 315.032 398.885 317.288 401.861 317.288C403.349 317.288 404.693 316.568 405.581 315.416V317H408.101ZM402.581 315.056C400.589 315.056 399.317 313.448 399.317 311.216C399.317 308.96 400.589 307.352 402.581 307.352C403.781 307.352 405.005 308.048 405.581 308.912V313.52C405.005 314.384 403.781 315.056 402.581 315.056ZM416.598 317.288C420.318 317.288 422.574 314.528 422.574 311.192C422.574 307.88 420.318 305.12 416.598 305.12C412.926 305.12 410.646 307.88 410.646 311.192C410.646 314.528 412.926 317.288 416.598 317.288ZM416.598 315.056C414.462 315.056 413.262 313.256 413.262 311.192C413.262 309.152 414.462 307.352 416.598 307.352C418.758 307.352 419.958 309.152 419.958 311.192C419.958 313.256 418.758 315.056 416.598 315.056ZM430.476 317.288C432.324 317.288 434.028 316.712 435.18 315.608L434.028 313.952C433.212 314.768 431.868 315.224 430.74 315.224C428.556 315.224 427.236 313.784 427.044 312.032H435.996V311.432C435.996 307.784 433.764 305.12 430.284 305.12C426.852 305.12 424.404 307.832 424.404 311.192C424.404 314.864 426.996 317.288 430.476 317.288ZM433.548 310.256H427.02C427.14 308.84 428.124 307.184 430.284 307.184C432.564 307.184 433.5 308.888 433.548 310.256ZM442.444 317.288C445.564 317.288 447.268 315.728 447.268 313.688C447.268 309.08 440.26 310.616 440.26 308.552C440.26 307.736 441.1 307.136 442.42 307.136C443.86 307.136 445.156 307.736 445.852 308.528L446.908 306.752C445.852 305.816 444.364 305.12 442.396 305.12C439.468 305.12 437.836 306.752 437.836 308.648C437.836 313.088 444.844 311.456 444.844 313.736C444.844 314.648 444.076 315.296 442.564 315.296C441.052 315.296 439.444 314.504 438.628 313.664L437.476 315.488C438.676 316.664 440.476 317.288 442.444 317.288ZM466.312 317V308.84C466.312 306.464 465.064 305.12 462.568 305.12C460.744 305.12 459.256 306.08 458.488 306.992V305.408H455.968V317H458.488V308.912C459.064 308.12 460.168 307.352 461.464 307.352C462.88 307.352 463.792 307.952 463.792 309.752V317H466.312ZM474.817 317.288C478.537 317.288 480.793 314.528 480.793 311.192C480.793 307.88 478.537 305.12 474.817 305.12C471.145 305.12 468.865 307.88 468.865 311.192C468.865 314.528 471.145 317.288 474.817 317.288ZM474.817 315.056C472.681 315.056 471.481 313.256 471.481 311.192C471.481 309.152 472.681 307.352 474.817 307.352C476.977 307.352 478.177 309.152 478.177 311.192C478.177 313.256 476.977 315.056 474.817 315.056ZM486.823 317.288C487.999 317.288 488.743 316.976 489.199 316.544L488.599 314.648C488.407 314.864 487.951 315.056 487.471 315.056C486.751 315.056 486.367 314.48 486.367 313.688V307.616H488.719V305.408H486.367V302.24H483.847V305.408H481.927V307.616H483.847V314.312C483.847 316.232 484.879 317.288 486.823 317.288ZM502.523 317.288C504.371 317.288 506.075 316.712 507.227 315.608L506.075 313.952C505.259 314.768 503.915 315.224 502.787 315.224C500.603 315.224 499.283 313.784 499.091 312.032H508.043V311.432C508.043 307.784 505.811 305.12 502.331 305.12C498.899 305.12 496.451 307.832 496.451 311.192C496.451 314.864 499.043 317.288 502.523 317.288ZM505.595 310.256H499.067C499.187 308.84 500.171 307.184 502.331 307.184C504.611 307.184 505.547 308.888 505.595 310.256ZM520.682 317L516.41 311.048L520.418 305.408H517.586L514.85 309.344L512.09 305.408H509.258L513.266 311.048L509.018 317H511.826L514.85 312.728L517.85 317H520.682ZM523.685 303.992C524.549 303.992 525.245 303.296 525.245 302.432C525.245 301.568 524.549 300.872 523.685 300.872C522.845 300.872 522.125 301.568 522.125 302.432C522.125 303.296 522.845 303.992 523.685 303.992ZM524.957 317V305.408H522.437V317H524.957ZM532.186 317.288C535.306 317.288 537.01 315.728 537.01 313.688C537.01 309.08 530.002 310.616 530.002 308.552C530.002 307.736 530.842 307.136 532.162 307.136C533.602 307.136 534.898 307.736 535.594 308.528L536.65 306.752C535.594 305.816 534.106 305.12 532.138 305.12C529.21 305.12 527.578 306.752 527.578 308.648C527.578 313.088 534.586 311.456 534.586 313.736C534.586 314.648 533.818 315.296 532.306 315.296C530.794 315.296 529.186 314.504 528.37 313.664L527.218 315.488C528.418 316.664 530.218 317.288 532.186 317.288ZM543.026 317.288C544.202 317.288 544.946 316.976 545.402 316.544L544.802 314.648C544.61 314.864 544.154 315.056 543.674 315.056C542.954 315.056 542.57 314.48 542.57 313.688V307.616H544.922V305.408H542.57V302.24H540.05V305.408H538.13V307.616H540.05V314.312C540.05 316.232 541.082 317.288 543.026 317.288ZM549.61 312.104L550.042 300.992H546.97L547.426 312.104H549.61ZM548.506 317.24C549.418 317.24 550.186 316.472 550.186 315.584C550.186 314.672 549.418 313.904 548.506 313.904C547.594 313.904 546.85 314.672 546.85 315.584C546.85 316.472 547.594 317.24 548.506 317.24Z" fill="#303030"/>
<path d="M230.7 364V354.512H234.092V353.328H225.996V354.512H229.372V364H230.7ZM242.241 364V358.544C242.241 356.864 241.393 356.08 239.777 356.08C238.609 356.08 237.553 356.752 237.009 357.392V353.328H235.809V364H237.009V358.352C237.473 357.728 238.369 357.152 239.297 357.152C240.337 357.152 241.041 357.552 241.041 358.912V364H242.241ZM248.126 364.192C249.39 364.192 250.43 363.776 251.198 363.008L250.622 362.224C250.014 362.848 249.118 363.2 248.238 363.2C246.574 363.2 245.549 361.984 245.454 360.528H251.71V360.224C251.71 357.904 250.334 356.08 247.998 356.08C245.789 356.08 244.19 357.888 244.19 360.128C244.19 362.544 245.838 364.192 248.126 364.192ZM250.526 359.648H245.454C245.518 358.464 246.334 357.072 247.982 357.072C249.742 357.072 250.51 358.496 250.526 359.648ZM258.978 364V358.528C259.33 357.904 260.338 357.296 261.074 357.296C261.266 357.296 261.41 357.312 261.554 357.344V356.112C260.498 356.112 259.602 356.704 258.978 357.52V356.272H257.778V364H258.978ZM266.547 364.192C267.811 364.192 268.851 363.776 269.619 363.008L269.043 362.224C268.435 362.848 267.539 363.2 266.659 363.2C264.995 363.2 263.971 361.984 263.875 360.528H270.131V360.224C270.131 357.904 268.755 356.08 266.419 356.08C264.211 356.08 262.611 357.888 262.611 360.128C262.611 362.544 264.259 364.192 266.547 364.192ZM268.947 359.648H263.875C263.939 358.464 264.755 357.072 266.403 357.072C268.163 357.072 268.931 358.496 268.947 359.648ZM275.307 363.12C273.755 363.12 272.843 361.84 272.843 360.128C272.843 358.416 273.755 357.152 275.307 357.152C276.267 357.152 277.211 357.712 277.611 358.384V361.872C277.211 362.544 276.267 363.12 275.307 363.12ZM275.019 364.192C276.059 364.192 276.987 363.696 277.611 362.832V366.944H278.811V356.272H277.611V357.424C277.067 356.64 276.107 356.08 275.019 356.08C272.987 356.08 271.579 357.616 271.579 360.128C271.579 362.624 272.987 364.192 275.019 364.192ZM287.647 364V356.272H286.447V361.952C285.999 362.576 285.103 363.12 284.159 363.12C283.119 363.12 282.431 362.72 282.431 361.36V356.272H281.231V361.728C281.231 363.408 282.079 364.192 283.695 364.192C284.847 364.192 285.855 363.584 286.447 362.912V364H287.647ZM291.244 364V358.528C291.596 357.904 292.604 357.296 293.34 357.296C293.532 357.296 293.676 357.312 293.82 357.344V356.112C292.764 356.112 291.868 356.704 291.244 357.52V356.272H290.044V364H291.244ZM298.813 364.192C300.077 364.192 301.117 363.776 301.885 363.008L301.309 362.224C300.701 362.848 299.805 363.2 298.925 363.2C297.261 363.2 296.237 361.984 296.141 360.528H302.397V360.224C302.397 357.904 301.021 356.08 298.685 356.08C296.477 356.08 294.877 357.888 294.877 360.128C294.877 362.544 296.525 364.192 298.813 364.192ZM301.213 359.648H296.141C296.205 358.464 297.021 357.072 298.669 357.072C300.429 357.072 301.197 358.496 301.213 359.648ZM306.789 364.192C308.789 364.192 309.829 363.152 309.829 361.856C309.829 358.848 305.045 359.968 305.045 358.272C305.045 357.584 305.701 357.056 306.757 357.056C307.749 357.056 308.597 357.472 309.061 358.032L309.621 357.2C308.997 356.576 308.069 356.08 306.757 356.08C304.917 356.08 303.877 357.104 303.877 358.304C303.877 361.168 308.661 360.016 308.661 361.888C308.661 362.656 308.021 363.216 306.837 363.216C305.781 363.216 304.805 362.704 304.293 362.112L303.669 362.976C304.453 363.808 305.525 364.192 306.789 364.192ZM313.73 364.192C314.434 364.192 314.866 363.984 315.17 363.696L314.818 362.8C314.658 362.976 314.338 363.12 314.002 363.12C313.474 363.12 313.218 362.704 313.218 362.128V357.328H314.786V356.272H313.218V354.16H312.018V356.272H310.738V357.328H312.018V362.384C312.018 363.536 312.594 364.192 313.73 364.192ZM319.969 364.192C321.233 364.192 322.273 363.776 323.041 363.008L322.465 362.224C321.857 362.848 320.961 363.2 320.081 363.2C318.417 363.2 317.393 361.984 317.297 360.528H323.553V360.224C323.553 357.904 322.177 356.08 319.841 356.08C317.633 356.08 316.033 357.888 316.033 360.128C316.033 362.544 317.681 364.192 319.969 364.192ZM322.369 359.648H317.297C317.361 358.464 318.177 357.072 319.825 357.072C321.585 357.072 322.353 358.496 322.369 359.648ZM332.297 364V353.328H331.097V357.44C330.473 356.592 329.529 356.08 328.489 356.08C326.457 356.08 325.049 357.68 325.049 360.144C325.049 362.656 326.473 364.192 328.489 364.192C329.577 364.192 330.521 363.632 331.097 362.848V364H332.297ZM328.777 363.12C327.225 363.12 326.297 361.856 326.297 360.144C326.297 358.432 327.225 357.152 328.777 357.152C329.737 357.152 330.665 357.728 331.097 358.4V361.904C330.665 362.576 329.737 363.12 328.777 363.12ZM340.361 364V357.328H341.929V356.272H340.361V355.68C340.361 354.704 340.793 354.16 341.577 354.16C341.881 354.16 342.089 354.24 342.265 354.352L342.569 353.44C342.265 353.248 341.849 353.168 341.401 353.168C340.057 353.168 339.161 354.08 339.161 355.68V356.272H337.881V357.328H339.161V364H340.361ZM343.945 355.168C344.393 355.168 344.761 354.816 344.761 354.368C344.761 353.92 344.393 353.552 343.945 353.552C343.513 353.552 343.145 353.92 343.145 354.368C343.145 354.816 343.513 355.168 343.945 355.168ZM344.553 364V356.272H343.353V364H344.553ZM348.166 364V353.328H346.966V364H348.166ZM354.047 364.192C355.311 364.192 356.351 363.776 357.119 363.008L356.543 362.224C355.935 362.848 355.039 363.2 354.159 363.2C352.495 363.2 351.471 361.984 351.375 360.528H357.631V360.224C357.631 357.904 356.255 356.08 353.919 356.08C351.711 356.08 350.111 357.888 350.111 360.128C350.111 362.544 351.759 364.192 354.047 364.192ZM356.447 359.648H351.375C351.439 358.464 352.255 357.072 353.903 357.072C355.663 357.072 356.431 358.496 356.447 359.648ZM371.588 364L374.052 356.272H372.804L370.916 362.432L368.884 356.272H367.86L365.828 362.432L363.94 356.272H362.692L365.156 364H366.356L368.372 357.792L370.388 364H371.588ZM381.482 364V358.688C381.482 356.816 380.122 356.08 378.49 356.08C377.226 356.08 376.234 356.496 375.402 357.36L375.962 358.192C376.65 357.456 377.402 357.12 378.33 357.12C379.45 357.12 380.282 357.712 380.282 358.752V360.144C379.658 359.424 378.778 359.088 377.722 359.088C376.41 359.088 375.018 359.904 375.018 361.632C375.018 363.312 376.41 364.192 377.722 364.192C378.762 364.192 379.642 363.824 380.282 363.12V364H381.482ZM378.154 363.328C377.034 363.328 376.25 362.624 376.25 361.648C376.25 360.656 377.034 359.952 378.154 359.952C379.002 359.952 379.818 360.272 380.282 360.912V362.368C379.818 363.008 379.002 363.328 378.154 363.328ZM386.336 364.192C388.336 364.192 389.376 363.152 389.376 361.856C389.376 358.848 384.592 359.968 384.592 358.272C384.592 357.584 385.248 357.056 386.304 357.056C387.296 357.056 388.144 357.472 388.608 358.032L389.168 357.2C388.544 356.576 387.616 356.08 386.304 356.08C384.464 356.08 383.424 357.104 383.424 358.304C383.424 361.168 388.208 360.016 388.208 361.888C388.208 362.656 387.568 363.216 386.384 363.216C385.328 363.216 384.352 362.704 383.84 362.112L383.215 362.976C384 363.808 385.072 364.192 386.336 364.192ZM396.042 355.168C396.49 355.168 396.858 354.816 396.858 354.368C396.858 353.92 396.49 353.552 396.042 353.552C395.61 353.552 395.242 353.92 395.242 354.368C395.242 354.816 395.61 355.168 396.042 355.168ZM396.65 364V356.272H395.45V364H396.65ZM401.492 364.192C403.492 364.192 404.532 363.152 404.532 361.856C404.532 358.848 399.748 359.968 399.748 358.272C399.748 357.584 400.404 357.056 401.46 357.056C402.452 357.056 403.3 357.472 403.764 358.032L404.324 357.2C403.7 356.576 402.772 356.08 401.46 356.08C399.62 356.08 398.58 357.104 398.58 358.304C398.58 361.168 403.364 360.016 403.364 361.888C403.364 362.656 402.724 363.216 401.54 363.216C400.484 363.216 399.508 362.704 398.996 362.112L398.372 362.976C399.156 363.808 400.228 364.192 401.492 364.192ZM417.022 364V358.576C417.022 356.896 416.174 356.08 414.558 356.08C413.406 356.08 412.35 356.752 411.806 357.392V356.272H410.606V364H411.806V358.352C412.254 357.728 413.15 357.152 414.094 357.152C415.134 357.152 415.822 357.584 415.822 358.944V364H417.022ZM422.795 364.192C425.147 364.192 426.619 362.368 426.619 360.128C426.619 357.888 425.147 356.08 422.795 356.08C420.443 356.08 418.971 357.888 418.971 360.128C418.971 362.368 420.443 364.192 422.795 364.192ZM422.795 363.12C421.147 363.12 420.219 361.712 420.219 360.128C420.219 358.56 421.147 357.152 422.795 357.152C424.443 357.152 425.355 358.56 425.355 360.128C425.355 361.712 424.443 363.12 422.795 363.12ZM430.527 364.192C431.231 364.192 431.663 363.984 431.967 363.696L431.615 362.8C431.455 362.976 431.135 363.12 430.799 363.12C430.271 363.12 430.015 362.704 430.015 362.128V357.328H431.583V356.272H430.015V354.16H428.815V356.272H427.535V357.328H428.815V362.384C428.815 363.536 429.391 364.192 430.527 364.192ZM438.939 364V357.328H440.507V356.272H438.939V355.68C438.939 354.704 439.371 354.16 440.155 354.16C440.555 354.16 440.859 354.32 441.115 354.544L441.611 353.76C441.131 353.312 440.587 353.168 439.979 353.168C438.603 353.168 437.739 354.096 437.739 355.68V356.272H436.459V357.328H437.739V364H438.939ZM445.31 364.192C447.662 364.192 449.134 362.368 449.134 360.128C449.134 357.888 447.662 356.08 445.31 356.08C442.958 356.08 441.486 357.888 441.486 360.128C441.486 362.368 442.958 364.192 445.31 364.192ZM445.31 363.12C443.662 363.12 442.734 361.712 442.734 360.128C442.734 358.56 443.662 357.152 445.31 357.152C446.958 357.152 447.87 358.56 447.87 360.128C447.87 361.712 446.958 363.12 445.31 363.12ZM457.507 364V356.272H456.307V361.952C455.859 362.576 454.963 363.12 454.019 363.12C452.979 363.12 452.291 362.72 452.291 361.36V356.272H451.091V361.728C451.091 363.408 451.939 364.192 453.555 364.192C454.707 364.192 455.715 363.584 456.307 362.912V364H457.507ZM466.319 364V358.576C466.319 356.896 465.471 356.08 463.855 356.08C462.703 356.08 461.647 356.752 461.103 357.392V356.272H459.903V364H461.103V358.352C461.551 357.728 462.447 357.152 463.391 357.152C464.431 357.152 465.119 357.584 465.119 358.944V364H466.319ZM475.516 364V353.328H474.316V357.44C473.692 356.592 472.748 356.08 471.708 356.08C469.676 356.08 468.268 357.68 468.268 360.144C468.268 362.656 469.692 364.192 471.708 364.192C472.796 364.192 473.74 363.632 474.316 362.848V364H475.516ZM471.996 363.12C470.444 363.12 469.516 361.856 469.516 360.144C469.516 358.432 470.444 357.152 471.996 357.152C472.956 357.152 473.884 357.728 474.316 358.4V361.904C473.884 362.576 472.956 363.12 471.996 363.12ZM485.42 364.192C487.772 364.192 489.244 362.368 489.244 360.128C489.244 357.888 487.772 356.08 485.42 356.08C483.068 356.08 481.596 357.888 481.596 360.128C481.596 362.368 483.068 364.192 485.42 364.192ZM485.42 363.12C483.772 363.12 482.844 361.712 482.844 360.128C482.844 358.56 483.772 357.152 485.42 357.152C487.068 357.152 487.98 358.56 487.98 360.128C487.98 361.712 487.068 363.12 485.42 363.12ZM497.616 364V358.576C497.616 356.896 496.768 356.08 495.152 356.08C494 356.08 492.944 356.752 492.4 357.392V356.272H491.2V364H492.4V358.352C492.848 357.728 493.744 357.152 494.688 357.152C495.728 357.152 496.416 357.584 496.416 358.944V364H497.616ZM506.09 364.192C506.794 364.192 507.226 363.984 507.53 363.696L507.178 362.8C507.018 362.976 506.698 363.12 506.362 363.12C505.834 363.12 505.578 362.704 505.578 362.128V357.328H507.146V356.272H505.578V354.16H504.378V356.272H503.098V357.328H504.378V362.384C504.378 363.536 504.954 364.192 506.09 364.192ZM515.273 364V358.544C515.273 356.864 514.425 356.08 512.809 356.08C511.641 356.08 510.585 356.752 510.041 357.392V353.328H508.841V364H510.041V358.352C510.505 357.728 511.401 357.152 512.329 357.152C513.369 357.152 514.073 357.552 514.073 358.912V364H515.273ZM518.261 355.168C518.709 355.168 519.077 354.816 519.077 354.368C519.077 353.92 518.709 353.552 518.261 353.552C517.829 353.552 517.461 353.92 517.461 354.368C517.461 354.816 517.829 355.168 518.261 355.168ZM518.869 364V356.272H517.669V364H518.869ZM523.711 364.192C525.711 364.192 526.751 363.152 526.751 361.856C526.751 358.848 521.967 359.968 521.967 358.272C521.967 357.584 522.623 357.056 523.679 357.056C524.671 357.056 525.519 357.472 525.983 358.032L526.543 357.2C525.919 356.576 524.991 356.08 523.679 356.08C521.839 356.08 520.799 357.104 520.799 358.304C520.799 361.168 525.583 360.016 525.583 361.888C525.583 362.656 524.943 363.216 523.759 363.216C522.703 363.216 521.727 362.704 521.215 362.112L520.59 362.976C521.375 363.808 522.447 364.192 523.711 364.192ZM538.857 364V358.688C538.857 356.816 537.497 356.08 535.865 356.08C534.601 356.08 533.609 356.496 532.777 357.36L533.337 358.192C534.025 357.456 534.777 357.12 535.705 357.12C536.825 357.12 537.657 357.712 537.657 358.752V360.144C537.033 359.424 536.153 359.088 535.097 359.088C533.785 359.088 532.393 359.904 532.393 361.632C532.393 363.312 533.785 364.192 535.097 364.192C536.137 364.192 537.017 363.824 537.657 363.12V364H538.857ZM535.529 363.328C534.409 363.328 533.625 362.624 533.625 361.648C533.625 360.656 534.409 359.952 535.529 359.952C536.377 359.952 537.193 360.272 537.657 360.912V362.368C537.193 363.008 536.377 363.328 535.529 363.328ZM544.671 364.192C546.079 364.192 546.911 363.616 547.503 362.848L546.703 362.112C546.191 362.8 545.535 363.12 544.735 363.12C543.087 363.12 542.062 361.84 542.062 360.128C542.062 358.416 543.087 357.152 544.735 357.152C545.535 357.152 546.191 357.456 546.703 358.16L547.503 357.424C546.911 356.656 546.079 356.08 544.671 356.08C542.367 356.08 540.815 357.84 540.815 360.128C540.815 362.432 542.367 364.192 544.671 364.192ZM552.592 364.192C554 364.192 554.832 363.616 555.424 362.848L554.624 362.112C554.112 362.8 553.456 363.12 552.656 363.12C551.008 363.12 549.984 361.84 549.984 360.128C549.984 358.416 551.008 357.152 552.656 357.152C553.456 357.152 554.112 357.456 554.624 358.16L555.424 357.424C554.832 356.656 554 356.08 552.592 356.08C550.288 356.08 548.736 357.84 548.736 360.128C548.736 362.432 550.288 364.192 552.592 364.192ZM560.482 364.192C562.834 364.192 564.306 362.368 564.306 360.128C564.306 357.888 562.834 356.08 560.482 356.08C558.13 356.08 556.658 357.888 556.658 360.128C556.658 362.368 558.13 364.192 560.482 364.192ZM560.482 363.12C558.834 363.12 557.906 361.712 557.906 360.128C557.906 358.56 558.834 357.152 560.482 357.152C562.13 357.152 563.042 358.56 563.042 360.128C563.042 361.712 562.13 363.12 560.482 363.12ZM572.679 364V356.272H571.479V361.952C571.031 362.576 570.135 363.12 569.191 363.12C568.151 363.12 567.463 362.72 567.463 361.36V356.272H566.263V361.728C566.263 363.408 567.111 364.192 568.727 364.192C569.879 364.192 570.887 363.584 571.479 362.912V364H572.679ZM581.491 364V358.576C581.491 356.896 580.643 356.08 579.027 356.08C577.875 356.08 576.819 356.752 576.275 357.392V356.272H575.075V364H576.275V358.352C576.723 357.728 577.619 357.152 578.563 357.152C579.603 357.152 580.291 357.584 580.291 358.944V364H581.491ZM585.84 364.192C586.544 364.192 586.976 363.984 587.28 363.696L586.928 362.8C586.768 362.976 586.448 363.12 586.112 363.12C585.584 363.12 585.328 362.704 585.328 362.128V357.328H586.896V356.272H585.328V354.16H584.128V356.272H582.848V357.328H584.128V362.384C584.128 363.536 584.704 364.192 585.84 364.192ZM590.207 363.616C590.207 362.848 589.727 362.4 589.199 362.4C588.719 362.4 588.351 362.8 588.351 363.264C588.351 363.744 588.671 364.08 589.119 364.08C589.199 364.08 589.311 364.064 589.343 364.048C589.279 364.576 588.815 365.2 588.303 365.536L588.895 366.032C589.631 365.504 590.207 364.592 590.207 363.616ZM598.355 364.192C599.059 364.192 599.491 363.984 599.795 363.696L599.443 362.8C599.283 362.976 598.963 363.12 598.627 363.12C598.099 363.12 597.843 362.704 597.843 362.128V357.328H599.411V356.272H597.843V354.16H596.643V356.272H595.363V357.328H596.643V362.384C596.643 363.536 597.219 364.192 598.355 364.192ZM607.538 364V358.544C607.538 356.864 606.69 356.08 605.074 356.08C603.906 356.08 602.85 356.752 602.306 357.392V353.328H601.106V364H602.306V358.352C602.77 357.728 603.666 357.152 604.594 357.152C605.634 357.152 606.338 357.552 606.338 358.912V364H607.538ZM615.966 364V358.688C615.966 356.816 614.606 356.08 612.974 356.08C611.71 356.08 610.718 356.496 609.886 357.36L610.446 358.192C611.134 357.456 611.886 357.12 612.814 357.12C613.934 357.12 614.766 357.712 614.766 358.752V360.144C614.142 359.424 613.262 359.088 612.206 359.088C610.894 359.088 609.502 359.904 609.502 361.632C609.502 363.312 610.894 364.192 612.206 364.192C613.246 364.192 614.126 363.824 614.766 363.12V364H615.966ZM612.638 363.328C611.518 363.328 610.734 362.624 610.734 361.648C610.734 360.656 611.518 359.952 612.638 359.952C613.486 359.952 614.302 360.272 614.766 360.912V362.368C614.302 363.008 613.486 363.328 612.638 363.328ZM620.324 364.192C621.028 364.192 621.46 363.984 621.764 363.696L621.412 362.8C621.252 362.976 620.932 363.12 620.596 363.12C620.068 363.12 619.812 362.704 619.812 362.128V357.328H621.38V356.272H619.812V354.16H618.612V356.272H617.332V357.328H618.612V362.384C618.612 363.536 619.188 364.192 620.324 364.192ZM624.691 354.384C624.691 353.6 624.211 353.168 623.683 353.168C623.203 353.168 622.835 353.568 622.835 354.032C622.835 354.512 623.155 354.848 623.603 354.848C623.683 354.848 623.795 354.832 623.827 354.816C623.763 355.328 623.299 355.968 622.787 356.304L623.379 356.8C624.115 356.272 624.691 355.36 624.691 354.384ZM628.726 364.192C630.726 364.192 631.766 363.152 631.766 361.856C631.766 358.848 626.982 359.968 626.982 358.272C626.982 357.584 627.638 357.056 628.694 357.056C629.686 357.056 630.534 357.472 630.998 358.032L631.558 357.2C630.934 356.576 630.006 356.08 628.694 356.08C626.854 356.08 625.814 357.104 625.814 358.304C625.814 361.168 630.598 360.016 630.598 361.888C630.598 362.656 629.958 363.216 628.774 363.216C627.718 363.216 626.742 362.704 626.23 362.112L625.606 362.976C626.39 363.808 627.462 364.192 628.726 364.192ZM393.099 386V380.688C393.099 378.816 391.739 378.08 390.107 378.08C388.843 378.08 387.851 378.496 387.019 379.36L387.579 380.192C388.267 379.456 389.019 379.12 389.947 379.12C391.067 379.12 391.899 379.712 391.899 380.752V382.144C391.275 381.424 390.395 381.088 389.339 381.088C388.027 381.088 386.635 381.904 386.635 383.632C386.635 385.312 388.027 386.192 389.339 386.192C390.379 386.192 391.259 385.824 391.899 385.12V386H393.099ZM389.771 385.328C388.651 385.328 387.867 384.624 387.867 383.648C387.867 382.656 388.651 381.952 389.771 381.952C390.619 381.952 391.435 382.272 391.899 382.912V384.368C391.435 385.008 390.619 385.328 389.771 385.328ZM396.705 386V375.328H395.505V386H396.705ZM400.298 386V375.328H399.098V386H400.298ZM414.705 386L417.169 378.272H415.921L414.033 384.432L412.001 378.272H410.977L408.945 384.432L407.057 378.272H405.809L408.273 386H409.473L411.489 379.792L413.505 386H414.705ZM422.055 386.192C423.319 386.192 424.359 385.776 425.127 385.008L424.551 384.224C423.943 384.848 423.047 385.2 422.167 385.2C420.503 385.2 419.479 383.984 419.383 382.528H425.639V382.224C425.639 379.904 424.263 378.08 421.927 378.08C419.719 378.08 418.119 379.888 418.119 382.128C418.119 384.544 419.767 386.192 422.055 386.192ZM424.455 381.648H419.383C419.447 380.464 420.263 379.072 421.911 379.072C423.671 379.072 424.439 380.496 424.455 381.648ZM438.508 386L435.068 381.776L438.492 378.272H436.972L432.908 382.384V375.328H431.708V386H432.908V383.792L434.188 382.528L436.972 386H438.508ZM446.343 386V380.576C446.343 378.896 445.495 378.08 443.879 378.08C442.727 378.08 441.671 378.752 441.127 379.392V378.272H439.927V386H441.127V380.352C441.575 379.728 442.471 379.152 443.415 379.152C444.455 379.152 445.143 379.584 445.143 380.944V386H446.343ZM452.115 386.192C454.467 386.192 455.939 384.368 455.939 382.128C455.939 379.888 454.467 378.08 452.115 378.08C449.763 378.08 448.291 379.888 448.291 382.128C448.291 384.368 449.763 386.192 452.115 386.192ZM452.115 385.12C450.467 385.12 449.539 383.712 449.539 382.128C449.539 380.56 450.467 379.152 452.115 379.152C453.763 379.152 454.675 380.56 454.675 382.128C454.675 383.712 453.763 385.12 452.115 385.12ZM465.783 386L468.247 378.272H466.999L465.111 384.432L463.079 378.272H462.055L460.023 384.432L458.135 378.272H456.887L459.351 386H460.551L462.567 379.792L464.583 386H465.783ZM470.781 383.008L471.037 375.328H469.533L469.789 383.008H470.781ZM470.285 386.16C470.765 386.16 471.165 385.744 471.165 385.28C471.165 384.8 470.765 384.4 470.285 384.4C469.805 384.4 469.405 384.8 469.405 385.28C469.405 385.744 469.805 386.16 470.285 386.16Z" fill="#303030"/>
<defs>
<linearGradient id="paint0_linear_2159_66633" x1="425.375" y1="233.996" x2="314.375" y2="233.996" gradientUnits="userSpaceOnUse">
<stop stop-color="#E1E5EF"/>
<stop offset="1" stop-color="#E1E5EF" stop-opacity="0"/>
</linearGradient>
<linearGradient id="paint1_linear_2159_66633" x1="555.875" y1="188.246" x2="391.875" y2="188.246" gradientUnits="userSpaceOnUse">
<stop stop-color="#E1E5EF"/>
<stop offset="1" stop-color="#E1E5EF" stop-opacity="0"/>
</linearGradient>
<linearGradient id="paint2_linear_2159_66633" x1="479.696" y1="68.5409" x2="322.486" y2="115.243" gradientUnits="userSpaceOnUse">
<stop stop-color="#E1E5EF"/>
<stop offset="1" stop-color="#E1E5EF" stop-opacity="0"/>
</linearGradient>
</defs>
</svg>
