<svg width="16" height="16" viewBox="0 0 16 16" fill="none" xmlns="http://www.w3.org/2000/svg">
<path d="M7.3737 8.62512V11.3335C7.3737 11.5106 7.43361 11.659 7.55345 11.7788C7.6733 11.8986 7.8218 11.9585 7.99895 11.9585C8.17612 11.9585 8.32452 11.8986 8.44418 11.7788C8.56383 11.659 8.62366 11.5106 8.62366 11.3335V8.62512H11.332C11.5091 8.62512 11.6575 8.56521 11.7773 8.44537C11.8971 8.32553 11.957 8.17702 11.957 7.99987C11.957 7.82271 11.8971 7.6743 11.7773 7.55464C11.6575 7.43499 11.5091 7.37516 11.332 7.37516H8.62366V4.66681C8.62366 4.48973 8.56374 4.34129 8.44391 4.2215C8.32406 4.10172 8.17556 4.04183 7.99841 4.04183C7.82124 4.04183 7.67283 4.10172 7.55318 4.2215C7.43352 4.34129 7.3737 4.48973 7.3737 4.66681V7.37516H4.66534C4.48826 7.37516 4.33983 7.43508 4.22005 7.55491C4.10026 7.67476 4.04036 7.82326 4.04036 8.00041C4.04036 8.17758 4.10026 8.32599 4.22005 8.44564C4.33983 8.5653 4.48826 8.62512 4.66534 8.62512H7.3737ZM8.00007 15.9168C6.90513 15.9168 5.87593 15.709 4.91249 15.2935C3.94903 14.8779 3.11096 14.3139 2.39828 13.6016C1.68559 12.8892 1.12137 12.0515 0.705636 11.0885C0.289899 10.1255 0.0820312 9.09648 0.0820312 8.00154C0.0820312 6.90659 0.289809 5.8774 0.705365 4.91396C1.12092 3.9505 1.68488 3.11243 2.39724 2.39975C3.10961 1.68705 3.94732 1.12284 4.91034 0.707101C5.87336 0.291365 6.90234 0.0834961 7.99728 0.0834961C9.09223 0.0834961 10.1214 0.291275 11.0849 0.70683C12.0483 1.12239 12.8864 1.68634 13.5991 2.3987C14.3118 3.11108 14.876 3.94878 15.2917 4.91181C15.7075 5.87482 15.9153 6.9038 15.9153 7.99875C15.9153 9.09369 15.7075 10.1229 15.292 11.0863C14.8764 12.0498 14.3125 12.8879 13.6001 13.6005C12.8877 14.3132 12.05 14.8774 11.087 15.2932C10.124 15.7089 9.09502 15.9168 8.00007 15.9168Z" fill="#2196F3"/>
</svg>
