<svg width="32" height="32" viewBox="0 0 32 32" fill="none" xmlns="http://www.w3.org/2000/svg">
<rect width="32" height="32" rx="16" fill="white"/>
<path d="M12.725 5.20844V3.4585H19.2762V5.20844H12.725ZM15.1257 18.1091H16.8756V11.5578H15.1257V18.1091ZM16.0006 27.0834C14.6365 27.0834 13.3532 26.8232 12.1507 26.3026C10.9481 25.7821 9.89659 25.0717 8.99616 24.1713C8.09575 23.2708 7.38528 22.2193 6.86478 21.0168C6.34425 19.8142 6.08398 18.5309 6.08398 17.1668C6.08398 15.8027 6.34425 14.5194 6.86478 13.3168C7.38528 12.1143 8.09575 11.0628 8.99616 10.1623C9.89659 9.26192 10.9481 8.55146 12.1507 8.03096C13.3532 7.51043 14.6365 7.25016 16.0006 7.25016C17.1688 7.25016 18.2939 7.44835 19.3761 7.84473C20.4583 8.2411 21.463 8.80873 22.3903 9.54762L23.8442 8.09378L25.0736 9.32324L23.6198 10.7771C24.3587 11.7044 24.9263 12.7092 25.3227 13.7913C25.7191 14.8735 25.9173 15.9986 25.9173 17.1668C25.9173 18.5309 25.657 19.8142 25.1365 21.0168C24.616 22.2193 23.9055 23.2708 23.0051 24.1713C22.1047 25.0717 21.0532 25.7821 19.8506 26.3026C18.6481 26.8232 17.3647 27.0834 16.0006 27.0834ZM16.0006 25.3335C18.2562 25.3335 20.1812 24.5362 21.7756 22.9418C23.3701 21.3474 24.1673 19.4224 24.1673 17.1668C24.1673 14.9112 23.3701 12.9862 21.7756 11.3918C20.1812 9.79736 18.2562 9.00013 16.0006 9.00013C13.7451 9.00013 11.8201 9.79736 10.2256 11.3918C8.63118 12.9862 7.83396 14.9112 7.83396 17.1668C7.83396 19.4224 8.63118 21.3474 10.2256 22.9418C11.8201 24.5362 13.7451 25.3335 16.0006 25.3335Z" fill="#EB4A84"/>
</svg>
