<svg width="32" height="32" viewBox="0 0 32 32" fill="none" xmlns="http://www.w3.org/2000/svg">
<mask id="path-1-inside-1_2643_3145" fill="white">
<path d="M15.8439 10.6604C15.9357 10.2245 16.558 10.2245 16.6497 10.6604L17.2062 13.3029C17.2398 13.4625 17.3646 13.5873 17.5243 13.6209L20.1667 14.1774C20.6026 14.2692 20.6026 14.8914 20.1667 14.9832L17.5243 15.5397C17.3646 15.5733 17.2398 15.6981 17.2062 15.8578L16.6497 18.5002C16.558 18.9361 15.9357 18.9361 15.8439 18.5002L15.2874 15.8578C15.2538 15.6981 15.1291 15.5733 14.9694 15.5397L12.3269 14.9832C11.891 14.8914 11.891 14.2692 12.3269 14.1774L14.9694 13.6209C15.1291 13.5873 15.2538 13.4625 15.2874 13.3029L15.8439 10.6604Z"/>
</mask>
<path d="M15.8439 10.6604C15.9357 10.2245 16.558 10.2245 16.6497 10.6604L17.2062 13.3029C17.2398 13.4625 17.3646 13.5873 17.5243 13.6209L20.1667 14.1774C20.6026 14.2692 20.6026 14.8914 20.1667 14.9832L17.5243 15.5397C17.3646 15.5733 17.2398 15.6981 17.2062 15.8578L16.6497 18.5002C16.558 18.9361 15.9357 18.9361 15.8439 18.5002L15.2874 15.8578C15.2538 15.6981 15.1291 15.5733 14.9694 15.5397L12.3269 14.9832C11.891 14.8914 11.891 14.2692 12.3269 14.1774L14.9694 13.6209C15.1291 13.5873 15.2538 13.4625 15.2874 13.3029L15.8439 10.6604Z" fill="#6200EE"/>
<path d="M14.9694 13.6209L54.2751 200.277L14.9694 13.6209ZM15.2874 13.3029L201.944 52.6086L201.944 52.6086L15.2874 13.3029ZM12.3269 14.9832L-26.9788 201.64L-26.9788 201.64L12.3269 14.9832ZM12.3269 14.1774L-26.9788 -172.479L12.3269 14.1774ZM15.2874 15.8578L201.944 -23.448L201.944 -23.448L15.2874 15.8578ZM14.9694 15.5397L54.2751 -171.117L54.2751 -171.117L14.9694 15.5397ZM16.6497 18.5002L203.306 57.8059L203.306 57.8059L16.6497 18.5002ZM15.8439 18.5002L-170.813 57.8059L-170.813 57.8059L15.8439 18.5002ZM17.5243 15.5397L-21.7814 -171.117L-21.7815 -171.117L17.5243 15.5397ZM17.2062 15.8578L-169.45 -23.448L-169.45 -23.448L17.2062 15.8578ZM20.1667 14.1774L59.4724 -172.479L20.1667 14.1774ZM20.1667 14.9832L59.4724 201.64L59.4724 201.64L20.1667 14.9832ZM17.2062 13.3029L203.863 -26.0029L203.863 -26.0029L17.2062 13.3029ZM17.5243 13.6209L56.83 -173.035L17.5243 13.6209ZM16.6497 10.6604L-170.007 49.9661L-170.007 49.9661L16.6497 10.6604ZM15.8439 10.6604L-170.813 -28.6453L15.8439 10.6604ZM-170.007 49.9661L-169.45 52.6086L203.863 -26.0029L203.306 -28.6453L-170.007 49.9661ZM-21.7815 200.277L-19.139 200.834L59.4724 -172.479L56.83 -173.035L-21.7815 200.277ZM-19.139 -171.673L-21.7814 -171.117L56.83 202.196L59.4724 201.64L-19.139 -171.673ZM-169.45 -23.448L-170.007 -20.8055L203.306 57.8059L203.863 55.1635L-169.45 -23.448ZM202.5 -20.8055L201.944 -23.448L-171.369 55.1635L-170.813 57.8059L202.5 -20.8055ZM54.2751 -171.117L51.6326 -171.673L-26.9788 201.64L-24.3363 202.196L54.2751 -171.117ZM51.6326 200.834L54.2751 200.277L-24.3364 -173.035L-26.9788 -172.479L51.6326 200.834ZM201.944 52.6086L202.5 49.9661L-170.813 -28.6453L-171.369 -26.0029L201.944 52.6086ZM54.2751 200.277C128.411 184.666 186.332 126.745 201.944 52.6086L-171.369 -26.0029C-155.825 -99.8198 -98.1533 -157.491 -24.3364 -173.035L54.2751 200.277ZM51.6326 -171.673C253.125 -129.243 253.12 158.405 51.6326 200.834L-26.9788 -172.479C-229.338 -129.867 -229.343 159.026 -26.9788 201.64L51.6326 -171.673ZM201.944 -23.448C186.332 -97.5845 128.411 -155.505 54.2751 -171.117L-24.3364 202.196C-98.1531 186.652 -155.825 128.981 -171.369 55.1635L201.944 -23.448ZM-170.007 -20.8055C-127.577 -222.298 160.071 -222.293 202.5 -20.8055L-170.813 57.8059C-128.2 260.165 160.693 260.17 203.306 57.8059L-170.007 -20.8055ZM-21.7815 -171.117C-95.9178 -155.505 -153.839 -97.5843 -169.45 -23.448L203.863 55.1635C188.318 128.98 130.647 186.652 56.83 202.196L-21.7815 -171.117ZM-19.139 200.834C-220.631 158.404 -220.627 -129.244 -19.139 -171.673L59.4724 201.64C261.832 159.027 261.836 -129.866 59.4724 -172.479L-19.139 200.834ZM-169.45 52.6086C-153.839 126.745 -95.9178 184.666 -21.7815 200.277L56.83 -173.035C130.647 -157.491 188.318 -99.8198 203.863 -26.0029L-169.45 52.6086ZM203.306 -28.6453C160.694 -231.004 -128.199 -231.01 -170.813 -28.6453L202.5 49.9661C160.07 251.459 -127.578 251.453 -170.007 49.9661L203.306 -28.6453Z" fill="black" mask="url(#path-1-inside-1_2643_3145)"/>
<path d="M16 27.077C15.4948 27.077 15.0593 26.902 14.6933 26.552C14.3273 26.202 14.1283 25.7744 14.0963 25.2693H17.9038C17.8718 25.7744 17.6728 26.202 17.3068 26.552C16.9408 26.902 16.5052 27.077 16 27.077ZM13 23.8845C12.7872 23.8845 12.609 23.8128 12.4655 23.6693C12.3218 23.5256 12.25 23.3473 12.25 23.1345C12.25 22.9217 12.3218 22.7435 12.4655 22.6C12.609 22.4563 12.7872 22.3845 13 22.3845H19C19.2128 22.3845 19.391 22.4563 19.5345 22.6C19.6782 22.7435 19.75 22.9217 19.75 23.1345C19.75 23.3473 19.6782 23.5256 19.5345 23.6693C19.391 23.8128 19.2128 23.8845 19 23.8845H13ZM12.4037 21C11.3564 20.3487 10.5273 19.4977 9.9165 18.447C9.3055 17.3965 9 16.2475 9 15C9 13.0513 9.6795 11.3975 11.0385 10.0385C12.3975 8.6795 14.0513 8 16 8C17.9487 8 19.6025 8.6795 20.9615 10.0385C22.3205 11.3975 23 13.0513 23 15C23 16.2475 22.6945 17.3965 22.0835 18.447C21.4727 19.4977 20.6436 20.3487 19.5962 21H12.4037ZM12.85 19.5H19.15C19.9 18.9667 20.4792 18.3083 20.8875 17.525C21.2958 16.7417 21.5 15.9 21.5 15C21.5 13.4667 20.9667 12.1667 19.9 11.1C18.8333 10.0333 17.5333 9.5 16 9.5C14.4667 9.5 13.1667 10.0333 12.1 11.1C11.0333 12.1667 10.5 13.4667 10.5 15C10.5 15.9 10.7042 16.7417 11.1125 17.525C11.5208 18.3083 12.1 18.9667 12.85 19.5Z" fill="black"/>
</svg>
