<svg width="32" height="32" viewBox="0 0 32 32" fill="none" xmlns="http://www.w3.org/2000/svg">
  <!-- Base Table Icon (from table.svg) -->
  <circle cx="16" cy="16" r="16" fill="url(#paint0_linear_update)"/>
  <path d="M13.67 14.04H8.67V9.04H14.42L14.93 9.6L16.41 11.42L18.4 14.02L18.43 14.04V22.73H13.66V14.04H13.67Z" fill="white"/>
  <path d="M23.2 9.04H18.2V14.04H23.2V9.04Z" fill="white"/>
  
  <!-- Action Badge with Pencil icon (bottom right) -->
  <circle cx="24" cy="24" r="6" fill="#3B82F6"/>
  <path d="M21.5 25.5L24.5 22.5C24.7 22.3 24.7 21.9 24.5 21.7L24 21.2C23.8 21 23.4 21 23.2 21.2L20.2 24.2C20.1 24.3 20 24.4 20 24.6V25.5H20.9C21.1 25.5 21.3 25.4 21.4 25.3L21.5 25.5Z" fill="white"/>
  
  <defs>
    <linearGradient id="paint0_linear_update" x1="-3.95" y1="34.83" x2="33.18" y2="-0.2" gradientUnits="userSpaceOnUse">
      <stop stop-color="#369B7D"/>
      <stop offset="0.23" stop-color="#39A380"/>
      <stop offset="0.6" stop-color="#42BA88"/>
      <stop offset="1" stop-color="#4FDB95"/>
    </linearGradient>
  </defs>
</svg>
