<svg width="24" height="32" viewBox="0 0 24 32" fill="none" xmlns="http://www.w3.org/2000/svg">
<path fillRule="evenodd" clipRule="evenodd" d="M4 0C1.79086 0 0 1.79086 0 4V28C0 30.2091 1.79086 32 4 32H20C22.2091 32 24 30.2091 24 28V10H14V0H4Z" fill="#0263D1"/>
<path d="M14 0L19 5L24 10H14V0Z" fill="#0263D1" fillOpacity="0.5"/>
<path d="M5.96982 23H3.81925V17.1818H5.96697C6.55978 17.1818 7.07019 17.2983 7.49822 17.5312C7.92815 17.7623 8.25959 18.0956 8.49254 18.5312C8.7255 18.965 8.84197 19.4839 8.84197 20.0881C8.84197 20.6941 8.7255 21.215 8.49254 21.6506C8.26148 22.0862 7.93099 22.4205 7.50107 22.6534C7.07114 22.8845 6.56072 23 5.96982 23ZM5.2255 21.8011H5.91584C6.2416 21.8011 6.51716 21.7462 6.74254 21.6364C6.96982 21.5246 7.14122 21.3438 7.25675 21.0938C7.37417 20.8419 7.43288 20.5066 7.43288 20.0881C7.43288 19.6695 7.37417 19.3362 7.25675 19.0881C7.13932 18.8381 6.96603 18.6581 6.73686 18.5483C6.50959 18.4366 6.22929 18.3807 5.89595 18.3807H5.2255V21.8011ZM15.1545 20.0909C15.1545 20.7311 15.0314 21.2737 14.7852 21.7188C14.5389 22.1638 14.2056 22.5019 13.7852 22.733C13.3666 22.964 12.8969 23.0795 12.3761 23.0795C11.8533 23.0795 11.3827 22.9631 10.9641 22.7301C10.5456 22.4972 10.2132 22.1591 9.96697 21.7159C9.72266 21.2708 9.6005 20.7292 9.6005 20.0909C9.6005 19.4508 9.72266 18.9081 9.96697 18.4631C10.2132 18.018 10.5456 17.6799 10.9641 17.4489C11.3827 17.2178 11.8533 17.1023 12.3761 17.1023C12.8969 17.1023 13.3666 17.2178 13.7852 17.4489C14.2056 17.6799 14.5389 18.018 14.7852 18.4631C15.0314 18.9081 15.1545 19.4508 15.1545 20.0909ZM13.717 20.0909C13.717 19.7121 13.663 19.392 13.555 19.1307C13.449 18.8693 13.2956 18.6714 13.0948 18.5369C12.896 18.4025 12.6564 18.3352 12.3761 18.3352C12.0977 18.3352 11.8581 18.4025 11.6573 18.5369C11.4566 18.6714 11.3022 18.8693 11.1942 19.1307C11.0882 19.392 11.0352 19.7121 11.0352 20.0909C11.0352 20.4697 11.0882 20.7898 11.1942 21.0511C11.3022 21.3125 11.4566 21.5104 11.6573 21.6449C11.8581 21.7794 12.0977 21.8466 12.3761 21.8466C12.6564 21.8466 12.896 21.7794 13.0948 21.6449C13.2956 21.5104 13.449 21.3125 13.555 21.0511C13.663 20.7898 13.717 20.4697 13.717 20.0909ZM21.2567 19.2898H19.8363C19.8174 19.1439 19.7785 19.0123 19.7198 18.8949C19.6611 18.7775 19.5835 18.6771 19.4869 18.5938C19.3903 18.5104 19.2757 18.447 19.1431 18.4034C19.0124 18.358 18.8675 18.3352 18.7085 18.3352C18.4263 18.3352 18.1829 18.4044 17.9783 18.5426C17.7757 18.6809 17.6194 18.8807 17.5096 19.142C17.4016 19.4034 17.3477 19.7197 17.3477 20.0909C17.3477 20.4773 17.4026 20.8011 17.5124 21.0625C17.6242 21.322 17.7804 21.518 17.9812 21.6506C18.1838 21.7812 18.4234 21.8466 18.6999 21.8466C18.8552 21.8466 18.9963 21.8267 19.1232 21.7869C19.252 21.7472 19.3647 21.6894 19.4613 21.6136C19.5598 21.536 19.6403 21.4422 19.7028 21.3324C19.7672 21.2206 19.8117 21.0947 19.8363 20.9545L21.2567 20.9631C21.2321 21.2206 21.1573 21.4744 21.0323 21.7244C20.9092 21.9744 20.7397 22.2027 20.5238 22.4091C20.3079 22.6136 20.0446 22.7765 19.734 22.8977C19.4253 23.0189 19.0711 23.0795 18.6715 23.0795C18.145 23.0795 17.6734 22.964 17.2567 22.733C16.842 22.5 16.5143 22.161 16.2738 21.7159C16.0333 21.2708 15.913 20.7292 15.913 20.0909C15.913 19.4508 16.0352 18.9081 16.2795 18.4631C16.5238 18.018 16.8543 17.6799 17.271 17.4489C17.6876 17.2178 18.1545 17.1023 18.6715 17.1023C19.0238 17.1023 19.3496 17.1515 19.6488 17.25C19.948 17.3466 20.2113 17.4886 20.4386 17.6761C20.6658 17.8617 20.8505 18.09 20.9925 18.3608C21.1346 18.6316 21.2227 18.9413 21.2567 19.2898Z" fill="white"/>
</svg>