<svg width="24" height="32" viewBox="0 0 24 32" fill="none" xmlns="http://www.w3.org/2000/svg">
<path fillRule="evenodd" clipRule="evenodd" d="M4 0C1.79086 0 0 1.79086 0 4V28C0 30.2091 1.79086 32 4 32H20C22.2091 32 24 30.2091 24 28V10H14V0H4Z" fill="#FFBD2E"/>
<path d="M14 0L19 5L24 10H14V0Z" fill="#FFBD2E" fillOpacity="0.5"/>
<path d="M7.53915 25.6668C7.20237 25.6668 6.91732 25.5502 6.68398 25.3168C6.45065 25.0835 6.33398 24.7984 6.33398 24.4617V15.5387C6.33398 15.2019 6.45065 14.9168 6.68398 14.6835C6.91732 14.4502 7.20237 14.3335 7.53915 14.3335H16.4622C16.7989 14.3335 17.084 14.4502 17.3173 14.6835C17.5507 14.9168 17.6673 15.2019 17.6673 15.5387V24.4617C17.6673 24.7984 17.5507 25.0835 17.3173 25.3168C17.084 25.5502 16.7989 25.6668 16.4622 25.6668H7.53915ZM9.10332 23.1668H14.9493C15.0699 23.1668 15.1592 23.1121 15.2173 23.0027C15.2754 22.8933 15.2664 22.7874 15.1903 22.6848L13.6007 20.5553C13.5382 20.475 13.4579 20.4348 13.3597 20.4348C13.2613 20.4348 13.181 20.475 13.1187 20.5553L11.4878 22.6797L10.3955 21.2797C10.3332 21.2036 10.2539 21.1655 10.1577 21.1655C10.0615 21.1655 9.98226 21.2057 9.91982 21.2862L8.86865 22.6848C8.78832 22.7874 8.77721 22.8933 8.83532 23.0027C8.89343 23.1121 8.98276 23.1668 9.10332 23.1668ZM9.66732 18.5002C9.8981 18.5002 10.0947 18.4189 10.257 18.2565C10.4194 18.0942 10.5007 17.8976 10.5007 17.6668C10.5007 17.4361 10.4194 17.2395 10.257 17.0772C10.0947 16.9147 9.8981 16.8335 9.66732 16.8335C9.43654 16.8335 9.23998 16.9147 9.07765 17.0772C8.91521 17.2395 8.83398 17.4361 8.83398 17.6668C8.83398 17.8976 8.91521 18.0942 9.07765 18.2565C9.23998 18.4189 9.43654 18.5002 9.66732 18.5002Z" fill="white"/>
</svg>