<svg width="24" height="32" viewBox="0 0 24 32" fill="none" xmlns="http://www.w3.org/2000/svg">
<path fillRule="evenodd" clipRule="evenodd" d="M4 0C1.79086 0 0 1.79086 0 4V28C0 30.2091 1.79086 32 4 32H20C22.2091 32 24 30.2091 24 28V10H14V0H4Z" fill="#67645E"/>
<path d="M14 0L19 5L24 10H14V0Z" fill="#67645E" fillOpacity="0.5"/>
<path fillRule="evenodd" clipRule="evenodd" d="M6.53874 12.9688H5.93161C5.57745 12.9688 4.86912 13.2116 4.86912 14.183V15.3973C4.86912 15.6923 4.98379 16.2739 5.43595 16.3066C5.45607 16.308 5.47074 16.3273 5.4652 16.3467L4.56556 19.4954C4.36318 20.5073 4.56082 22.5311 6.9941 22.5311C9.51501 22.5311 9.6668 20.5579 9.4226 19.4954L8.52295 16.3467C8.51741 16.3273 8.53201 16.3079 8.55207 16.3058C8.76329 16.2831 9.11903 16.0803 9.11903 15.3973V14.183C9.11903 13.7783 8.90653 12.9688 8.05655 12.9688H7.44941H6.53874ZM6.08308 13.8795C5.91543 13.8795 5.77952 14.0154 5.77952 14.1831V15.3973C5.77952 15.565 5.91543 15.7009 6.08308 15.7009H7.90449C8.07214 15.7009 8.20805 15.565 8.20805 15.3973V14.1831C8.20805 14.0154 8.07214 13.8795 7.90449 13.8795H6.08308Z" fill="white"/>
<path d="M7.65215 17H6.5185C6.50721 17 6.49723 17.0073 6.49387 17.0181L5.73768 19.4498C5.38071 20.997 6.48137 21.3838 7.07632 21.3838C8.45133 21.3838 8.66286 20.0944 8.41496 19.4498L7.67683 17.0183C7.67353 17.0074 7.66351 17 7.65215 17Z" fill="#67645E"/>
<path d="M7 1H4.5C4.22386 1 4 1.22386 4 1.5V2C4 2.27614 4.22386 2.5 4.5 2.5H6C6.27614 2.5 6.5 2.72386 6.5 3V4C6.5 4.27614 6.27614 4.5 6 4.5H5C4.72386 4.5 4.5 4.72386 4.5 5V5.5C4.5 5.77614 4.72386 6 5 6H6C6.27614 6 6.5 6.22386 6.5 6.5V7.5C6.5 7.77614 6.27614 8 6 8H5C4.72386 8 4.5 8.22386 4.5 8.5V9C4.5 9.27614 4.72386 9.5 5 9.5H6C6.27614 9.5 6.5 9.72386 6.5 10V11C6.5 11.2761 6.72386 11.5 7 11.5H9C9.27614 11.5 9.5 11.2761 9.5 11V10C9.5 9.72386 9.27614 9.5 9 9.5H8C7.72386 9.5 7.5 9.27614 7.5 9V8C7.5 7.72386 7.72386 7.5 8 7.5H9C9.27614 7.5 9.5 7.27614 9.5 7V6.5C9.5 6.22386 9.27614 6 9 6H8C7.72386 6 7.5 5.77614 7.5 5.5V4.5C7.5 4.22386 7.72386 4 8 4H9C9.27614 4 9.5 3.77614 9.5 3.5V3C9.5 2.72386 9.27614 2.5 9 2.5H8C7.72386 2.5 7.5 2.27614 7.5 2V1.5C7.5 1.22386 7.27614 1 7 1Z" fill="white"/>
</svg>