<svg width="33" height="32" viewBox="0 0 33 32" fill="none" xmlns="http://www.w3.org/2000/svg">
<path d="M5.33398 28.5127V3.48718L7.18015 5.12818L9.07758 3.48718L10.975 5.12818L12.8724 3.48718L14.7699 5.12818L16.6673 3.48718L18.5647 5.12818L20.4622 3.48718L22.3596 5.12818L24.257 3.48718L26.1544 5.12818L28.0006 3.48718V28.5127L26.1544 26.8717L24.257 28.5127L22.3596 26.8717L20.4622 28.5127L18.5647 26.8717L16.6673 28.5127L14.7699 26.8717L12.8724 28.5127L10.975 26.8717L9.07758 28.5127L7.18015 26.8717L5.33398 28.5127ZM9.00065 21.923H24.3339V19.923H9.00065V21.923ZM9.00065 16.9999H24.3339V15H9.00065V16.9999ZM9.00065 12.0769H24.3339V10.0769H9.00065V12.0769ZM7.33395 25.4666H26.0006V6.53328H7.33395V25.4666Z" fill="#0D47A1"/>
</svg>
