<svg xmlns="http://www.w3.org/2000/svg" width="32" height="32" viewBox="0 0 32 32" fill="none">
  <path d="M16 26.018C18.6085 23.683 20.6047 21.4432 21.9884 19.2987C23.3722 17.1543 24.0641 15.2761 24.0641 13.6641C24.0641 11.2334 23.2919 9.23506 21.7474 7.66924C20.203 6.10342 18.2872 5.32051 16 5.32051C13.7128 5.32051 11.797 6.10342 10.2525 7.66924C8.7081 9.23506 7.93588 11.2334 7.93588 13.6641C7.93588 15.2761 8.62776 17.1543 10.0115 19.2987C11.3953 21.4432 13.3914 23.683 16 26.018ZM16 27.9205C15.7402 27.9205 15.4803 27.8756 15.2205 27.7859C14.9607 27.6961 14.7256 27.5572 14.5154 27.3692C13.3188 26.2667 12.1992 25.1312 11.1564 23.9628C10.1137 22.7945 9.2073 21.6265 8.43721 20.459C7.66712 19.2915 7.05772 18.1342 6.60901 16.9872C6.16028 15.8402 5.93591 14.7325 5.93591 13.6641C5.93591 10.5872 6.93121 8.09621 8.92181 6.19107C10.9124 4.28594 13.2718 3.33337 16 3.33337C18.7282 3.33337 21.0876 4.28594 23.0781 6.19107C25.0687 8.09621 26.064 10.5872 26.064 13.6641C26.064 14.7325 25.8397 15.8381 25.3909 16.9808C24.9422 18.1235 24.335 19.2808 23.5691 20.4526C22.8033 21.6244 21.8991 22.7923 20.8563 23.9564C19.8136 25.1205 18.694 26.2538 17.4974 27.3564C17.2902 27.5444 17.0548 27.6855 16.7911 27.7795C16.5274 27.8735 16.2637 27.9205 16 27.9205ZM16.0022 15.8205C16.6657 15.8205 17.2329 15.5843 17.7038 15.1118C18.1747 14.6394 18.4102 14.0715 18.4102 13.408C18.4102 12.7446 18.174 12.1774 17.7015 11.7064C17.2291 11.2355 16.6612 11 15.9977 11C15.3343 11 14.7671 11.2363 14.2961 11.7087C13.8252 12.1812 13.5897 12.7491 13.5897 13.4125C13.5897 14.076 13.826 14.6432 14.2984 15.1141C14.7709 15.585 15.3388 15.8205 16.0022 15.8205Z" fill="#007B47"/>
</svg>