<svg width="128" height="128" viewBox="0 0 128 128" fill="none" xmlns="http://www.w3.org/2000/svg">
<circle cx="64" cy="64" r="64" fill="white"/>
<path d="M31.6716 61.6762H47.5048C50.5732 61.6762 52.9215 61.2254 54.5498 60.3237C56.1779 59.4219 57.7249 58.1506 59.1908 56.5096L62.7548 60.0736C62.1009 60.783 61.3413 61.4913 60.4759 62.1986C59.6105 62.9059 58.6928 63.5651 57.7227 64.1762C58.9278 64.8898 60.04 65.7136 61.0593 66.6473C62.0785 67.5811 63.0411 68.5501 63.9471 69.5544C66.148 72.0074 68.7933 74.0737 71.8831 75.7532C74.9729 77.4327 79.9152 78.2852 86.7101 78.3108L80.6268 72.2274L84.1394 68.6634L96.3188 80.8428L84.1394 93.0222L80.6268 89.5095L86.7743 83.3107C79.0649 83.2851 73.3373 82.2391 69.5915 80.1729C65.8457 78.1067 62.725 75.7039 60.2293 72.9646C58.554 71.1227 56.9045 69.6141 55.2805 68.4389C53.6566 67.2637 51.0647 66.6761 47.5048 66.6761H31.6716V61.6762ZM77.4985 45.7724C78.631 45.5288 80.0348 45.3546 81.7101 45.2499C83.3853 45.1452 85.0734 45.0758 86.7743 45.0416L80.6268 38.8428L84.1394 35.3301L96.3188 47.5095L84.1394 59.6889L80.6268 56.1249L86.6588 50.0415C85.1503 50.0201 83.6951 50.0703 82.2933 50.1922C80.8916 50.3139 79.6822 50.4624 78.6651 50.6377L77.4985 45.7724ZM63.1203 52.4582C64.2442 51.454 65.5572 50.4807 67.0593 49.5384C68.5615 48.5961 70.2271 47.8108 72.0561 47.1827L73.2548 51.9967C71.9685 52.4667 70.7708 53.0468 69.6618 53.737C68.5529 54.4272 67.5604 55.1889 66.6843 56.0222L63.1203 52.4582Z" fill="#4AA3EB"/>
</svg>
