<svg width="128" height="128" viewBox="0 0 128 128" fill="none" xmlns="http://www.w3.org/2000/svg">
<circle cx="64" cy="64" r="64" fill="white"/>
<path d="M45.1668 66.1282C45.1668 69.3192 45.8228 72.259 47.1348 74.9477C48.4468 77.6364 50.5259 80.2393 53.3721 82.7565V76.1282C53.3721 75.4198 53.6118 74.8261 54.0912 74.3469C54.5705 73.8678 55.1645 73.6282 55.8732 73.6282C56.5818 73.6282 57.1754 73.8678 57.6541 74.3469C58.1327 74.8261 58.372 75.4198 58.372 76.1282V88.564C58.372 89.4176 58.0833 90.1332 57.5058 90.7106C56.9283 91.288 56.2128 91.5768 55.3592 91.5768H42.9233C42.215 91.5768 41.6213 91.3371 41.1422 90.8577C40.663 90.3783 40.4234 89.7843 40.4234 89.0757C40.4234 88.3671 40.663 87.7735 41.1422 87.2948C41.6213 86.8162 42.215 86.5769 42.9233 86.5769H50.1157C46.7055 83.6196 44.1948 80.4401 42.5837 77.0383C40.9725 73.6367 40.167 69.9961 40.167 66.1166C40.167 61.0517 41.4854 56.4562 44.1221 52.3301C46.7589 48.204 50.2076 45.062 54.4682 42.9038C55.0751 42.5662 55.7075 42.5331 56.3656 42.8044C57.0237 43.0758 57.4596 43.5491 57.6732 44.2243C57.8869 44.8995 57.8544 45.5525 57.5756 46.1834C57.2968 46.8143 56.8572 47.298 56.2567 47.6345C52.9318 49.3995 50.2523 51.9251 48.2182 55.2114C46.1839 58.4978 45.1668 62.1367 45.1668 66.1282ZM86.8337 66.064C86.8337 62.9102 86.1894 59.9957 84.9009 57.3204C83.6125 54.6452 81.5216 51.9635 78.6284 49.2754V55.8717C78.6284 56.58 78.3887 57.1738 77.9093 57.6529C77.43 58.1321 76.836 58.3717 76.1273 58.3717C75.4187 58.3717 74.8251 58.1321 74.3464 57.6529C73.8678 57.1738 73.6285 56.58 73.6285 55.8717V43.4358C73.6285 42.5822 73.9172 41.8667 74.4947 41.2893C75.0722 40.7118 75.7877 40.4231 76.6413 40.4231H89.0772C89.7855 40.4231 90.3792 40.6628 90.8583 41.1422C91.3375 41.6215 91.5771 42.2155 91.5771 42.9242C91.5771 43.6328 91.3375 44.2264 90.8583 44.705C90.3792 45.1836 89.7855 45.4229 89.0772 45.4229H81.8847C85.6326 48.6879 88.2299 52.0598 89.6765 55.5384C91.123 59.017 91.842 62.5256 91.8335 66.064H86.8337Z" fill="#90A4AE"/>
<path d="M74.6364 78.5488H78.5225V96.1285C78.5225 96.904 78.7816 97.5453 79.2997 98.0523C79.8179 98.5595 80.4721 98.813 81.2625 98.813C82.0529 98.813 82.7064 98.5595 83.2232 98.0523C83.74 97.5453 83.9984 96.904 83.9984 96.1285V75.8642C83.9984 75.0887 83.7398 74.4474 83.2226 73.9404C82.7055 73.4333 82.0514 73.1797 81.2605 73.1797H74.6364C73.8454 73.1797 73.1914 73.4337 72.6741 73.9417C72.157 74.4498 71.8984 75.0914 71.8984 75.8663C71.8984 76.6412 72.157 77.282 72.6741 77.7887C73.1914 78.2954 73.8454 78.5488 74.6364 78.5488Z" fill="#90A4AE"/>
</svg>
