<svg xmlns="http://www.w3.org/2000/svg" width="80" height="80" viewBox="0 0 80 80" fill="none">
<path d="M21.6666 64.9998C17.0598 64.9998 13.1303 63.3994 9.87817 60.1986C6.62606 56.9978 5 53.0939 5 48.4871C5 44.4102 6.30556 40.7841 8.91667 37.6089C11.5278 34.4338 14.859 32.5556 18.9103 31.9744C19.9786 26.9915 22.484 22.9167 26.4263 19.75C30.3685 16.5833 34.8931 15 39.9999 15C46.0298 15 51.1484 17.1036 55.3556 21.3109C59.5629 25.5181 61.6665 30.6367 61.6665 36.6666V38.3333H62.6922C66.2049 38.6068 69.1344 40.0192 71.4806 42.5705C73.8268 45.1218 74.9998 48.1538 74.9998 51.6666C74.9998 55.3845 73.7071 58.5362 71.1217 61.1217C68.5362 63.7071 65.3845 64.9998 61.6666 64.9998H42.4998V40.7178L46.9422 45.1088C47.4038 45.5704 47.9754 45.8012 48.657 45.8012C49.3386 45.8012 49.9273 45.5533 50.4229 45.0576C50.9059 44.596 51.142 44.0106 51.1313 43.3012C51.1206 42.5918 50.8845 42.0063 50.4229 41.5448L42.1088 33.2308C41.5063 32.6282 40.8033 32.3269 39.9999 32.3269C39.1965 32.3269 38.4936 32.6282 37.891 33.2308L29.5769 41.5448C29.1154 42.0063 28.8707 42.5833 28.8429 43.2756C28.8151 43.9679 29.0598 44.5619 29.5769 45.0576C30.0384 45.5191 30.6153 45.7531 31.3076 45.7595C31.9999 45.7659 32.5939 45.5383 33.0896 45.0767L37.5 40.7178V64.9998H21.6666Z" fill="#263238"/>
</svg>